<?xml version="1.0" standalone="no"?>
<!DOCTYPE svg PUBLIC "-//W3C//DTD SVG 1.1//EN" "http://www.w3.org/Graphics/SVG/1.1/DTD/svg11.dtd" >
<svg>
<metadata>
Created by FontForge 20090914 at Wed May 23 11:38:31 2018
 By www-data
(c) Copyright 2005 by Tong Duc Thinh. All Rights Reserved
</metadata>
<defs>
<font id="SFUEurostileBold" horiz-adv-x="720" >
  <font-face 
    font-family="SFU Eurostile"
    font-weight="700"
    font-stretch="normal"
    units-per-em="1000"
    panose-1="0 0 7 0 0 0 0 0 0 0"
    ascent="800"
    descent="-200"
    x-height="525"
    cap-height="750"
    bbox="-173 -233.001 1267 1177"
    underline-thickness="75"
    underline-position="-76"
    unicode-range="U+0020-U+F002"
  />
<missing-glyph horiz-adv-x="500" 
d="M63 0v782h375v-782h-375zM125 63h250v657h-250v-657z" />
    <glyph glyph-name=".notdef" horiz-adv-x="500" 
d="M63 0v782h375v-782h-375zM125 63h250v657h-250v-657z" />
    <glyph glyph-name="space" unicode=" " horiz-adv-x="360" 
 />
    <glyph glyph-name="exclam" unicode="!" horiz-adv-x="349" 
d="M256 174v-174h-162v174h162zM268 750l-7 -455h-172l-7 455h186z" />
    <glyph glyph-name="quotedbl" unicode="&#x22;" horiz-adv-x="442" 
d="M41 750h138v-130l-42 -129h-54l-42 129v130zM263 750h138v-130l-42 -129h-54l-42 129v130z" />
    <glyph glyph-name="numbersign" unicode="#" 
d="M282 750h106l-39 -210h101l39 210h105l-39 -210h80v-115h-98l-24 -130h94v-115h-118l-33 -180h-106l33 180h-101l-33 -180h-106l33 180h-91v115h113l24 130h-96v115h117zM328 425l-24 -130h102l26 130h-104z" />
    <glyph glyph-name="dollar" unicode="$" 
d="M309 462l97.001 -8.99609c110 -10 181 -24 213 -42c52 -28.667 78 -87.667 78 -177c0 -90.667 -22 -153.334 -66 -188.001s-119 -52 -225 -52v-92h-97v92c-100.667 0 -171.334 15 -212.001 45c-49.333 36.667 -74 106 -74 208h180c0 -43.333 8.33301 -71 25 -83
c12 -9.33301 39 -14 81 -14h97c42.667 0 70.334 3.33301 83.001 10c18.667 9.33301 28 31.666 28 66.999c0 27.333 -6.83301 45.666 -20.5 54.999s-43.834 15.666 -90.501 18.999l-97 7c-116.667 8.66699 -193 28.334 -229 59.001c-31.333 26.667 -47 79.667 -47 159
c0 93.333 20 155.666 60 186.999c36.667 28.667 108.667 43 216 43v82h97v-82c94 -5.33301 158 -19 192 -41c49.333 -32.667 74 -95.667 74 -189h-175c0 32 -7 52.667 -21 62c-11.333 8 -34.666 12 -69.999 12h-97c-35.333 0 -59 -3.66699 -71 -11
c-16.667 -10.667 -25 -31.667 -25 -63c0 -25.333 5.66699 -41.333 17 -48s37.666 -12 78.999 -16z" />
    <glyph glyph-name="percent" unicode="%" horiz-adv-x="907" 
d="M742 750l-443 -750h-120l443 750h120zM884 240l0.000976562 -109.998c0 -56.667 -13 -94.334 -39 -113.001c-21.333 -15.333 -63.333 -23 -126 -23c-62 0 -103.333 7.33301 -124 22c-24 18 -36 55.667 -36 113v110c0 57.333 12 95 36 113c20.667 15.333 61.667 23 123 23
c63.333 0 105.666 -7.33301 126.999 -22c26 -18.667 39 -56.334 39 -113.001zM784.001 145.002l0.00195312 83.001c0 28 -3.83301 45 -11.5 51s-25.834 9 -54.501 9c-26.667 0 -43.167 -3.33301 -49.5 -10s-9.5 -23.334 -9.5 -50.001v-83c0 -28.667 3 -46.5 9 -53.5
s22.667 -10.5 50 -10.5s44.666 2.66699 51.999 8c9.33301 8 14 26.667 14 56zM348.003 621.003l0.000976562 -109.998c0 -56.667 -13 -94.334 -39 -113.001c-21.333 -15.333 -63.333 -23 -126 -23c-62 0 -103.333 7.33301 -124 22c-24 18 -36 55.667 -36 113v110
c0 57.333 12 95 36 113c20.667 15.333 61.667 23 123 23c63.333 0 105.666 -7.33301 126.999 -22c26 -18.667 39 -56.334 39 -113.001zM248.004 526.005l0.00195312 83.001c0 28 -3.83301 45 -11.5 51s-25.834 9 -54.501 9c-26.667 0 -43.167 -3.33301 -49.5 -10
s-9.5 -23.334 -9.5 -50.001v-83c0 -28.667 3 -46.5 9 -53.5s22.667 -10.5 50 -10.5s44.666 2.66699 51.999 8c9.33301 8 14 26.667 14 56z" />
    <glyph glyph-name="ampersand" unicode="&#x26;" horiz-adv-x="774" 
d="M483 169l-199 172c-21.333 -2 -35 -12.667 -41 -32c-3.33301 -10.667 -5 -29.667 -5 -57c0 -46 12.333 -75 37 -87c15.333 -8 50.333 -12 105 -12c46 0 80.333 5.33301 103 16zM671 0l-69.001 62.0029c-22 -30 -55 -49.667 -99 -59c-26 -6 -67 -9 -123 -9
c-112.667 0 -191 12.333 -235 37c-60.667 34 -91 101 -91 201c0 129.333 44.333 194.666 133 195.999c-23.333 20.667 -38.666 39.167 -45.999 55.5s-11 40.166 -11 71.499c0 81.333 21 136.333 63 165c34.667 24 97 36 187 36c94 0 158.667 -11.667 194 -35
c44 -28.667 66 -85.334 66 -170.001v-38h-172c0.666992 41.333 -3.83301 67.333 -13.5 78s-34.5 16 -74.5 16c-26 0 -43.5 -4.33301 -52.5 -13s-13.5 -26.334 -13.5 -53.001c0 -25.333 13.333 -50 40 -74l184 -164v99h159v-147c0 -23.333 -6.66699 -47.666 -20 -72.999
l83 -75z" />
    <glyph glyph-name="quotesingle" unicode="'" horiz-adv-x="220" 
d="M41 750h138v-130l-42 -129h-54l-42 129v130z" />
    <glyph glyph-name="parenleft" unicode="(" horiz-adv-x="385" 
d="M57 168v264.001c0 87.333 3.33301 147 10 179c10.667 50 34 86 70 108c40.667 24.667 104.334 37 191.001 37v-164c-34.667 0 -57.667 -10.667 -69 -32c-8 -16.667 -12 -48.334 -12 -95.001v-324c0 -42 3.66699 -71 11 -87c11.333 -26.667 34.666 -40 69.999 -40v-164
c-85.333 0 -146.833 10 -184.5 30s-62.5 54 -74.5 102c-8 35.333 -12 97.333 -12 186z" />
    <glyph glyph-name="parenright" unicode=")" horiz-adv-x="385" 
d="M328 432l-0.000976562 -264.001c0 -88.667 -4 -150.667 -12 -186c-12 -48 -36.333 -81.667 -73 -101c-38.667 -20.667 -100.667 -31 -186 -31v164c35.333 0 59 13.333 71 40c6.66699 16 10 45 10 87v324c0 46.667 -4 78.334 -12 95.001c-11.333 21.333 -34.333 32 -69 32
v164c86.667 0 150.334 -12.333 191.001 -37c36 -22 59.333 -58 70 -108c6.66699 -32 10 -91.667 10 -179z" />
    <glyph glyph-name="asterisk" unicode="*" 
d="M565 564l-125 -39l75 -107l-73 -56l-78 112l-84 -111l-76 55l78 108l-127 46l32 88l126 -45v135h93v-135l130 45z" />
    <glyph glyph-name="plus" unicode="+" horiz-adv-x="600" 
d="M242 334v191h115v-191h193v-115h-193v-199h-115v199h-192v115h192z" />
    <glyph glyph-name="comma" unicode="," horiz-adv-x="360" 
d="M95 168l162.001 0.000976562v-168c0 -53.333 -11.667 -90 -35 -110c-24.667 -22 -70.334 -32.667 -137.001 -32v75c28 0.666992 47 5.66699 57 15s15 26.666 15 51.999h-62v168z" />
    <glyph glyph-name="hyphen" unicode="-" horiz-adv-x="272" 
d="M0 358h272v-164h-272v164z" />
    <glyph glyph-name="hyphen" unicode="&#x2010;" horiz-adv-x="272" 
d="M0 358h272v-164h-272v164z" />
    <glyph glyph-name="period" unicode="." horiz-adv-x="360" 
d="M252 174v-174h-162v174h162z" />
    <glyph glyph-name="slash" unicode="/" horiz-adv-x="637" 
d="M608 750l-441 -863h-137l441 863h137z" />
    <glyph glyph-name="zero" unicode="0" 
d="M360 756c102 0 173.667 -12.333 215 -37c64.667 -37.333 97 -112.666 97 -225.999v-236c0 -113.333 -32.333 -188.666 -97 -225.999c-41.333 -24.667 -113 -37 -215 -37s-173.667 12.333 -215 37c-64.667 37.333 -97 112.666 -97 225.999v236
c0 113.333 32.333 188.666 97 225.999c41.333 24.667 113 37 215 37zM360 591c-52.667 0 -85.334 -5.66699 -98.001 -17c-16 -14.667 -24 -52.334 -24 -113.001v-172c0 -60.667 8 -98.334 24 -113.001c12.667 -11.333 45.334 -17 98.001 -17s85.334 5.66699 98.001 17
c16 14.667 24 52.334 24 113.001v172c0 60.667 -8 98.334 -24 113.001c-12.667 11.333 -45.334 17 -98.001 17z" />
    <glyph glyph-name="one" unicode="1" 
d="M558 750v-750h-200v573l-194 -177l-113 128l273 226h234z" />
    <glyph glyph-name="two" unicode="2" 
d="M654 156v-156.001h-592v156c0 86 15.333 143.5 46 172.5s103.334 56.833 218.001 83.5c66.667 15.333 106.167 27.333 118.5 36s18.5 31.667 18.5 69c0 38 -9.33301 62.333 -28 73c-12 6.66699 -37.667 10 -77 10c-46.667 0 -76 -4.66699 -88 -14
s-18 -33.666 -18 -72.999v-37h-190v37c0 96 25.333 162 76 198c42.667 30 116 45 220 45c101.333 0 172.666 -13 213.999 -39c54 -34 81 -99.667 81 -197c0 -80.667 -14.667 -136.667 -44 -168c-25.333 -27.333 -79.333 -52.333 -162 -75l-154 -38
c-27.333 -11.333 -41 -39 -41 -83h402z" />
    <glyph glyph-name="three" unicode="3" 
d="M311 311l-0.000976562 145h48c40 0 64.333 1.33301 73 4c21.333 7.33301 32 26.333 32 57c0 34 -4.66699 55.667 -14 65c-12.667 12 -43 18 -91 18c-42 0 -68.667 -3.66699 -80 -11c-17.333 -10.667 -26 -36 -26 -76v-15h-190v26c0 98.667 27 164 81 196
c39.333 24 114 36 224 36c84.667 0 147.334 -9.66699 188.001 -29c65.333 -30.667 98 -88.334 98 -173.001c0 -102.667 -38.333 -159 -115 -169v-8c82.667 -3.33301 124 -57 124 -161c0 -89.333 -28 -150.666 -84 -183.999c-43.333 -25.333 -113.666 -38 -210.999 -38
c-105.333 0 -179.333 11.333 -222 34c-60.667 33.333 -91 98.333 -91 195v40h190v-25c0 -38.667 10.333 -63.667 31 -75c14 -8.66699 41.667 -13 83 -13c45.333 0 74.666 4.33301 87.999 13c17.333 11.333 26 37.333 26 78c0 27.333 -6 45.333 -18 54
c-14.667 10.667 -46.667 16 -96 16h-48z" />
    <glyph glyph-name="four" unicode="4" 
d="M618 750v-457h64v-145h-64v-148h-190v148h-392v214l287 388h295zM428 293v303h-7l-228 -303h235z" />
    <glyph glyph-name="five" unicode="5" 
d="M65 218l189.999 0.000976562c2 -28.667 11.667 -48 29 -58c12 -6.66699 34.333 -10 67 -10c47.333 0 77.333 4.33301 90 13c16 12 24 40.667 24 86c0 51.333 -5 83 -15 95c-12.667 14.667 -45.667 22 -99 22c-35.333 0 -58 -1.33301 -68 -4
c-13.333 -4.66699 -22.666 -15.334 -27.999 -32.001h-172v420h542v-145h-370v-144c24 25.333 46 41 66 47c16 5.33301 49 8 99 8c88.667 0 150.667 -19.333 186 -58c32.667 -36 49 -98.667 49 -188c0 -114 -23.667 -190 -71 -228c-40 -32 -117.667 -48 -233 -48
c-99.333 0 -169.333 14 -210 42c-48 33.333 -73.333 94 -76 182z" />
    <glyph glyph-name="six" unicode="6" 
d="M343 299c-38.667 0 -64.332 -3.83105 -76.999 -11.498s-19 -25.834 -19 -54.501c0 -35.333 5.66699 -58 17 -68s37.666 -15 78.999 -15c54.667 0 88.5 4.5 101.5 13.5s19.5 33.5 19.5 73.5c0 29.333 -9 47.666 -27 54.999c-12.667 4.66699 -44 7 -94 7zM660.002 521.002
l-189.998 -0.00195312c0 35.333 -8 58 -24 68c-12.667 7.33301 -39.334 11 -80.001 11c-49.333 0 -80.333 -4.66699 -93 -14c-16.667 -12.667 -25 -42.667 -25 -90v-119h2c12 34.667 29.667 57.334 53 68.001c16 6.66699 43.667 10 83 10c98 0 164.667 -11.333 200 -34
c45.333 -30 68 -90.333 68 -181c0 -98.667 -24 -165.667 -72 -201c-40.667 -30 -112.667 -45 -216 -45c-124.667 0 -206.667 19 -246 57c-41.333 39.333 -62 121.333 -62 246v188c0 110.667 24.333 185 73 223c41.333 32 119.666 48 234.999 48
c98 0 166.333 -9.33301 205 -28c59.333 -29.333 89 -87.666 89 -174.999v-32z" />
    <glyph glyph-name="seven" unicode="7" 
d="M624 750v-168l-249 -582h-210l254 582h-361v168h566z" />
    <glyph glyph-name="eight" unicode="8" 
d="M358 309c-42.667 0 -69.666 -2.66699 -80.999 -8c-21.333 -10 -32 -34 -32 -72c0 -32 7.83301 -53.167 23.5 -63.5s45.5 -15.5 89.5 -15.5c53.333 0 87 5.33301 101 16c10.667 9.33301 16 31.333 16 66s-6.33301 56.167 -19 64.5s-45.334 12.5 -98.001 12.5zM360.001 -6
c-98 0 -168.668 11 -212.001 33c-62 32 -93 92 -93 180c0 46.667 10.667 85.667 32 117c24.667 35.333 59.334 54 104.001 56v7c-44.667 11.333 -76.334 31 -95.001 59c-18 26 -27 63.333 -27 112c0 82 30 138 90 168c41.333 20 108.333 30 201 30c98 0 167 -10.333 207 -31
c58 -30 87 -88.667 87 -176c0 -50.667 -7.66699 -86.667 -23 -108s-45.666 -39.333 -90.999 -54v-7c83.333 -11.333 125 -69 125 -173c0 -90 -29.667 -150.333 -89 -181c-42 -21.333 -114 -32 -216 -32zM360 454c44 0 72.334 4.5 85.001 13.5s19 30.5 19 64.5
c0 28 -5.33301 46 -16 54c-12.667 9.33301 -42 14 -88 14c-38.667 0 -63.334 -2.66699 -74.001 -8c-18 -9.33301 -27 -31.666 -27 -66.999c0 -30.667 7.66699 -50.334 23 -59.001c12.667 -8 38.667 -12 78 -12z" />
    <glyph glyph-name="nine" unicode="9" 
d="M374 451c38.667 0 64.332 3.83105 76.999 11.498s19 25.834 19 54.501c0 35.333 -5.66699 58 -17 68s-37.666 15 -78.999 15c-54.667 0 -88.5 -4.5 -101.5 -13.5s-19.5 -33.5 -19.5 -73.5c0 -29.333 9.33301 -47.666 28 -54.999c12 -4.66699 43 -7 93 -7zM56.998 228.998
l189.998 0.00292969c0 -35.333 8 -58 24 -68c12.667 -7.33301 39.334 -11 80.001 -11c49.333 0 80.333 5 93 15c16.667 12 25 41.667 25 89v119h-2c-12 -34.667 -29.667 -57.334 -53 -68.001c-16 -6.66699 -43.667 -10 -83 -10c-98 0 -164.667 11.333 -200 34
c-45.333 30 -68 90.333 -68 181c0 98.667 24 165.667 72 201c40.667 30 112.667 45 216 45c124.667 0 207.167 -19.333 247.5 -58s60.5 -120.334 60.5 -245.001v-188c0 -110.667 -24.333 -184.667 -73 -222c-41.333 -32.667 -119.666 -49 -234.999 -49
c-98 0 -166.333 9.33301 -205 28c-59.333 29.333 -89 87.666 -89 174.999v32z" />
    <glyph glyph-name="colon" unicode=":" horiz-adv-x="360" 
d="M252 174v-174h-162v174h162zM252 525v-174h-162v174h162z" />
    <glyph glyph-name="semicolon" unicode=";" horiz-adv-x="360" 
d="M85 -142l0.000976562 75.001c28 0.666992 47 5.66699 57 15s15 26.666 15 51.999h-62v168h162v-168c0 -53.333 -11.667 -90 -35 -110c-24.667 -22 -70.334 -32.667 -137.001 -32zM257.001 525.001v-174h-162v174h162z" />
    <glyph glyph-name="less" unicode="&#x3c;" horiz-adv-x="600" 
d="M550 525v-128l-338 -119v-2l338 -119v-128l-500 188v120z" />
    <glyph glyph-name="equal" unicode="=" horiz-adv-x="600" 
d="M50 449h500v-115h-500v115zM50 219h500v-115h-500v115z" />
    <glyph glyph-name="greater" unicode="&#x3e;" horiz-adv-x="600" 
d="M50 525l500 -188v-120l-500 -188v128l338 119v2l-338 119v128z" />
    <glyph glyph-name="question" unicode="?" horiz-adv-x="605" 
d="M361 265l-172.002 -0.000976562v30c0 48.667 5.33301 82.334 16 101.001c12.667 22 41.334 43.667 86.001 65l36 17c21.333 10 36 19.333 44 28c11.333 13.333 17 32.333 17 57c0 26 -7.66699 43.333 -23 52c-10.667 6 -29.667 9 -57 9c-30.667 0 -52 -3 -64 -9
c-17.333 -9.33301 -26 -26.666 -26 -51.999v-31h-172v31c0 79.333 23.667 133 71 161c36.667 21.333 100.334 32 191.001 32c86.667 0 147.667 -11 183 -33c46 -28 69 -81.333 69 -160c0 -61.333 -11 -106 -33 -134c-17.333 -22.667 -54.666 -46.667 -111.999 -72
c-20.667 -9.33301 -34.834 -18.333 -42.501 -27s-11.5 -20.334 -11.5 -35.001v-30zM355.998 173.999v-174h-162v174h162z" />
    <glyph glyph-name="at" unicode="@" horiz-adv-x="760" 
d="M291 351c0 -24.667 6.83301 -45.501 20.5 -62.501s32.167 -25.5 55.5 -25.5c30 0 54.5 11 73.5 33s28.5 48 28.5 78c0 24.667 -7.33301 45 -22 61s-34 24 -58 24c-27.333 0 -50.5 -11.167 -69.5 -33.5s-28.5 -47.166 -28.5 -74.499zM498 505.999l10.0029 51h95l-49 -292
c-2 -14 -3 -21.667 -3 -23c0.666992 -8.66699 5.66699 -13 15 -13c23.333 0 45 17 65 51c21.333 36.667 32 80.667 32 132c0 79.333 -25.667 142 -77 188c-48.667 44 -112.334 66 -191.001 66c-82.667 0 -149.834 -27.833 -201.501 -83.5s-77.5 -125.5 -77.5 -209.5
c0 -87.333 27.667 -157.333 83 -210s126.333 -79 213 -79c70 0 133.667 22.333 191 67h99c-76 -104.667 -175.333 -157 -298 -157c-108.667 0 -200.5 36 -275.5 108s-112.5 162.333 -112.5 271c0 107.333 37 198 111 272s164.333 111 271 111c88 0 167 -29.333 237 -88
c73.333 -62 110 -136.333 110 -223c0 -76.667 -24.833 -144.334 -74.5 -203.001s-108.167 -88 -175.5 -88c-40.667 0 -60 16.333 -58 49l-2 2c-26.667 -31.333 -58.667 -47 -96 -47c-44.667 0 -83.834 17.333 -117.501 52s-50.5 76.334 -50.5 125.001
c0 61.333 18.667 114.333 56 159c38.667 47.333 88 71 148 71c53.333 0 94.333 -19.667 123 -59z" />
    <glyph glyph-name="A" unicode="A" horiz-adv-x="733" 
d="M502 129h-269l-37 -129h-208l225 750h304l228 -750h-204zM462 275l-93 325h-2l-91 -325h186z" />
    <glyph glyph-name="B" unicode="B" horiz-adv-x="738" 
d="M60 0v750.002h394c82 0 140 -11.333 174 -34c42 -28.667 63 -81.334 63 -158.001c0 -52.667 -7.33301 -91.334 -22 -116.001c-17.333 -30.667 -49.333 -49.667 -96 -57v-8c51.333 -3.33301 87 -20.333 107 -51c15.333 -24.667 23 -63.667 23 -117
c0 -86 -21 -143.667 -63 -173c-33.333 -24 -94 -36 -182 -36h-398zM260 586.002l0.00195312 -136h144c35.333 0 58.666 4.5 69.999 13.5s17 28.5 17 58.5c0 24 -3.33301 40.333 -10 49c-8.66699 10 -26.334 15 -53.001 15h-168zM260.002 311.002v-146.999h151
c34 0 57.833 5.33301 71.5 16s20.5 30.667 20.5 60c0 31.333 -7.66699 51.666 -23 60.999c-11.333 6.66699 -33 10 -65 10h-155z" />
    <glyph glyph-name="C" unicode="C" horiz-adv-x="728" 
d="M489 284l205.999 0.000976562v-22c0 -52.667 -3 -91.334 -9 -116.001c-9.33301 -39.333 -29.166 -71.5 -59.499 -96.5s-67.833 -41.5 -112.5 -49.5c-25.333 -4 -67.333 -6 -126 -6c-124 0 -208.333 13 -253 39c-66.667 39.333 -100 121 -100 245v194
c0 115.333 31.333 193.666 94 234.999c49.333 32.667 135.666 49 258.999 49c114.667 0 191.334 -13 230.001 -39c50.667 -32.667 76 -101.667 76 -207v-29h-206v29c-3.33301 30.667 -16 51 -38 61c-16 7.33301 -44 11 -84 11c-54.667 0 -89.667 -10.333 -105 -31
c-13.333 -17.333 -20 -54.333 -20 -111v-117c0 -62 6 -101.667 18 -119c15.333 -24 51 -36 107 -36c46.667 0 77.667 4.66699 93 14c20 12.667 30 39.334 30 80.001v22z" />
    <glyph glyph-name="D" unicode="D" horiz-adv-x="775" 
d="M52 0v749.999h380c106 0 182.833 -22.167 230.5 -66.5s71.5 -119.166 71.5 -224.499v-157c0 -106 -19.667 -182 -59 -228c-42 -49.333 -114 -74 -216 -74h-407zM252 575.999l0.000976562 -402.001h175c67.333 0 101 42.667 101 128v157c0 46.667 -8 78.334 -24 95.001
c-14.667 14.667 -40.334 22 -77.001 22h-175z" />
    <glyph glyph-name="E" unicode="E" horiz-adv-x="678" 
d="M264 586v-137h320v-139h-320v-146h348v-164h-548v750h541v-164h-341z" />
    <glyph glyph-name="F" unicode="F" horiz-adv-x="616" 
d="M255 586v-147h306v-164h-306v-275h-200v750h532v-164h-332z" />
    <glyph glyph-name="G" unicode="G" horiz-adv-x="758" 
d="M720 517h-202.999c-2 33.333 -16.333 55.333 -43 66c-16 6 -44.667 9 -86 9c-67.333 0 -110.333 -12.333 -129 -37c-14 -18.667 -21 -61.334 -21 -128.001v-122c0 -62.667 12 -103.667 36 -123c19.333 -16 57.333 -24 114 -24c51.333 0 85.666 8.33301 102.999 25
s26 50.667 26 102h-138v139h341v-131c0 -124.667 -21.333 -205.667 -64 -243s-132 -56 -268 -56c-128 0 -216.667 16.667 -266 50c-60 40.667 -90 118.334 -90 233.001v194c0 115.333 32 194 96 236c50 32.667 136.667 49 260 49c120 0 199.667 -10 239 -30
c62 -32 93 -101.667 93 -209z" />
    <glyph glyph-name="H" unicode="H" horiz-adv-x="788" 
d="M725 750v-750h-200v294h-261v-294h-200v750h200v-282h261v282h200z" />
    <glyph glyph-name="I" unicode="I" horiz-adv-x="324" 
d="M262 750v-750h-200v750h200z" />
    <glyph glyph-name="J" unicode="J" horiz-adv-x="602" 
d="M343 750l200 0.000976562v-519c0 -98 -18.667 -162.667 -56 -194c-34.667 -28.667 -106 -43 -214 -43c-103.333 0 -171 16.667 -203 50s-48 102.666 -48 207.999v62h190v-62c0 -30 2.33301 -50 7 -60c8 -16 26 -24 54 -24c28.667 0 47.5 4 56.5 12s13.5 25 13.5 51v519z
" />
    <glyph glyph-name="K" unicode="K" horiz-adv-x="752" 
d="M264 750v-282h60l193 282h242l-264 -368l286 -382h-248l-209 294h-60v-294h-200v750h200z" />
    <glyph glyph-name="L" unicode="L" horiz-adv-x="585" 
d="M258 750v-576h313v-174h-513v750h200z" />
    <glyph glyph-name="M" unicode="M" horiz-adv-x="1049" 
d="M241 575l20 -575h-200v750h317l143 -471h7l136 471h325v-750h-200l20 575h-7l-190 -575h-173l-192 575h-6z" />
    <glyph glyph-name="N" unicode="N" horiz-adv-x="871" 
d="M249 576l12 -576h-200v750h338l215 -576h8l-12 576h200v-750h-341l-212 576h-8z" />
    <glyph glyph-name="O" unicode="O" horiz-adv-x="760" 
d="M380 -6c-114 0 -197.333 17 -250 51c-64.667 42 -97 116.667 -97 224v212c0 107.333 32.333 182 97 224c52.667 34 136 51 250 51s197.333 -17 250 -51c64.667 -42 97 -116.667 97 -224v-212c0 -107.333 -32.333 -182 -97 -224c-52.667 -34 -136 -51 -250 -51zM380 168
c56 0 92.667 6.66797 110 20.001c20.667 15.333 31 49.666 31 102.999v169c0 52.667 -10.333 87 -31 103c-17.333 12.667 -54 19 -110 19s-92.333 -6.33301 -109 -19c-21.333 -16 -32 -50.333 -32 -103v-169c0 -53.333 10.667 -88 32 -104c16.667 -12.667 53 -19 109 -19z
" />
    <glyph glyph-name="P" unicode="P" horiz-adv-x="711" 
d="M258 0h-200v750h377c92.667 0 158.5 -21.167 197.5 -63.5s58.5 -112.833 58.5 -211.5c0 -108 -16.667 -181.667 -50 -221c-35.333 -41.333 -104 -62 -206 -62h-177v-192zM258 366h137c40 0 65 6.16699 75 18.5s15 42.5 15 90.5c0 40 -5.5 66.833 -16.5 80.5
s-35.5 20.5 -73.5 20.5h-137v-210z" />
    <glyph glyph-name="Q" unicode="Q" horiz-adv-x="796" 
d="M433 378l106.999 -76v122c0 67.333 -8.33301 110.5 -25 129.5s-56 28.5 -118 28.5c-61.333 0 -100.166 -9.5 -116.499 -28.5s-24.5 -62.167 -24.5 -129.5v-135c0 -53.333 11.333 -88 34 -104c16.667 -11.333 52.667 -17 108 -17c40 0 69.667 3.66699 89 11l-133 87z
M730.999 -1l-74 59c-48.667 -42.667 -135 -64 -259 -64s-211 19 -261 57c-58 44 -87 125.667 -87 245v158c0 117.333 29.667 198.333 89 243c50.667 39.333 137 59 259 59s208.667 -19.667 260 -59c58.667 -44.667 88 -125.667 88 -243v-188c0 -38.667 -5 -72 -15 -100
l82 -56z" />
    <glyph glyph-name="R" unicode="R" horiz-adv-x="742" 
d="M257 373h155c39.333 0 64 9 74 27c6 11.333 9 41.333 9 90c0 34 -5.66699 56.833 -17 68.5s-33.333 17.5 -66 17.5h-155v-203zM57 0v749.999h386c92 0 156.667 -14.333 194 -43c42.667 -33.333 64 -94.666 64 -183.999c0 -74.667 -6 -124.667 -18 -150
c-18 -38.667 -59.333 -65.667 -124 -81v-8c42 -1.33301 75 -13.5 99 -36.5s36 -55.167 36 -96.5v-151h-200v105c0 62.667 -27.333 94 -82 94h-155v-199h-200z" />
    <glyph glyph-name="S" unicode="S" horiz-adv-x="716" 
d="M320 462l83.002 -5.99805c114 -8 188 -24.667 222 -50c36.667 -26.667 55 -82 55 -166c0 -56 -3.66699 -95.667 -11 -119c-12.667 -40.667 -40.334 -71 -83.001 -91c-51.333 -24 -128.333 -36 -231 -36c-115.333 0 -192.333 11 -231 33
c-58 33.333 -87 105.666 -87 216.999h192c0 -37.333 8.66699 -61.333 26 -72c15.333 -9.33301 48.666 -14 99.999 -14c50 0 82.667 3.66699 98 11c18 8.66699 27 28 27 58c0 31.333 -5.16699 50 -15.5 56s-40.166 10.667 -89.499 14l-44 3c-80 5.33301 -132.667 11 -158 17
c-46.667 10 -80 29.333 -100 58c-23.333 33.333 -35 84 -35 152c0 98.667 28.333 163.667 85 195c40.667 22.667 118 34 232 34c104 0 175.333 -9 214 -27c60 -29.333 90 -90.333 90 -183v-31h-192c0 35.333 -8.66699 57.666 -26 66.999c-12 6.66699 -40.667 10 -86 10
c-50 0 -83 -5.33301 -99 -16c-12 -8.66699 -18 -24.667 -18 -48c0 -27.333 7 -45.333 21 -54c9.33301 -6 29.666 -10 60.999 -12z" />
    <glyph glyph-name="T" unicode="T" horiz-adv-x="595" 
d="M393 576v-576h-200v576h-192v174h594v-174h-202z" />
    <glyph glyph-name="U" unicode="U" horiz-adv-x="771" 
d="M509 750l200.001 -0.000976562v-500c0 -97.333 -24.667 -165 -74 -203c-46.667 -35.333 -126.667 -53 -240 -53c-98 0 -170.5 8.5 -217.5 25.5s-78.833 45.167 -95.5 84.5c-12.667 30.667 -19 79.334 -19 146.001v500h200v-496c0 -38.667 11.667 -63.667 35 -75
c15.333 -7.33301 47.666 -11 96.999 -11c46 0 75.667 5 89 15c16.667 11.333 25 38 25 80v487z" />
    <glyph glyph-name="V" unicode="V" horiz-adv-x="711" 
d="M355 172l165 578h207l-219 -750h-312l-212 750h203l162 -578h6z" />
    <glyph glyph-name="W" unicode="W" horiz-adv-x="1104" 
d="M799 172l113 578h201l-166 -750h-289l-102 470h-8l-109 -470h-286l-162 750h203l108 -578h7l141 578h208l134 -578h7z" />
    <glyph glyph-name="X" unicode="X" horiz-adv-x="732" 
d="M733 750l-207 -364l223 -386h-233l-149 289l-148 -289h-235l225 386l-211 364h234l135 -275l136 275h230z" />
    <glyph glyph-name="Y" unicode="Y" horiz-adv-x="708" 
d="M724 750l-274 -487v-263h-200v263l-266 487h229l134 -289h7l138 289h232z" />
    <glyph glyph-name="Z" unicode="Z" horiz-adv-x="659" 
d="M636 750v-168l-359 -408h359v-174h-613v169l354 407h-331v174h590z" />
    <glyph glyph-name="bracketleft" unicode="[" horiz-adv-x="385" 
d="M57 756h271v-164h-81v-578h81v-164h-271v906z" />
    <glyph glyph-name="backslash" unicode="\" horiz-adv-x="640" 
d="M74 750h140l352 -750h-140z" />
    <glyph glyph-name="bracketright" unicode="]" horiz-adv-x="385" 
d="M328 -150h-271v164h81v578h-81v164h271v-906z" />
    <glyph glyph-name="asciicircum" unicode="^" horiz-adv-x="600" 
d="M180 250h-130l190 500h120l190 -500h-130l-119 338h-2z" />
    <glyph glyph-name="underscore" unicode="_" horiz-adv-x="500" 
d="M500 -75v-75h-500v75h500z" />
    <glyph glyph-name="grave" unicode="`" horiz-adv-x="404" 
d="M125 756l204 -120l-28 -62l-226 71z" />
    <glyph glyph-name="a" unicode="a" horiz-adv-x="609" 
d="M288 217c-50 0 -74.999 -18.333 -74.999 -55c0 -38 25 -57 75 -57c33.333 0 55.333 2.33301 66 7c18.667 8.66699 28 27.667 28 57c0 20 -8.66699 33.667 -26 41c-12.667 4.66699 -35.334 7 -68.001 7zM382.001 0l6 77.999h-6c-10 -56 -60.333 -84 -151 -84
c-65.333 0 -112 10.333 -140 31c-33.333 24.667 -50 68.667 -50 132c0 60.667 16.333 104 49 130c29.333 23.333 76.333 35 141 35c37.333 0 65 -2.33301 83 -7c32 -8.66699 52 -26 60 -52h8v83c0 28.667 -3.66699 48 -11 58c-10.667 14.667 -33 22 -67 22
c-46.667 0 -70 -19 -70 -57h-172c0 72.667 25 120 75 142c29.333 13.333 85 20 167 20c95.333 0 159 -11.333 191 -34c39.333 -27.333 59 -83.666 59 -168.999v-328h-172z" />
    <glyph glyph-name="b" unicode="b" horiz-adv-x="613" 
d="M55 750h172v-300h8c22 54 70.667 81 146 81c72 0 123.167 -17.333 153.5 -52s45.5 -92 45.5 -172v-120c0 -128.667 -66.333 -193 -199 -193c-41.333 0 -73.333 6.33301 -96 19c-26.667 14.667 -44.667 40.667 -54 78h-8l4 -91h-172v750zM322 126
c36 0 59.332 8.83301 69.999 26.5s16 54.5 16 110.5c0 50 -4.33301 83.667 -13 101c-11.333 23.333 -35.666 35 -72.999 35s-62 -7.66699 -74 -23c-14 -18 -21 -55.667 -21 -113c0 -56 4.33301 -91.667 13 -107c12 -20 39.333 -30 82 -30z" />
    <glyph glyph-name="c" unicode="c" horiz-adv-x="557" 
d="M364 210l172.001 -0.00195312c0 -73.333 -10.667 -124.666 -32 -153.999c-24 -34 -69.667 -53.667 -137 -59c-22 -2 -50.333 -3 -85 -3c-100 0 -166.833 18.5 -200.5 55.5s-50.5 107.833 -50.5 212.5c0 96.667 15 163.667 45 201c36 45.333 104.667 68 206 68
c88 0 149.333 -10.333 184 -31c46.667 -29.333 70 -86.666 70 -171.999h-172c1.33301 30 -4.66699 49.667 -18 59c-10.667 8 -32 12 -64 12s-52.667 -7.66699 -62 -23c-11.333 -18 -17 -56 -17 -114c0 -60 4.83301 -97.667 14.5 -113s31.167 -23 64.5 -23
c37.333 0 60.666 6 69.999 18c8 9.33301 12 31.333 12 66z" />
    <glyph glyph-name="d" unicode="d" horiz-adv-x="612" 
d="M558 750v-750h-172l4 91h-8c-9.33301 -37.333 -27.333 -63.333 -54 -78c-22.667 -12.667 -54.667 -19 -96 -19c-132.667 0 -199 64.333 -199 193v120c0 80 15.167 137.333 45.5 172s81.5 52 153.5 52c75.333 0 124 -27 146 -81h8v300h172zM205 262
c0 -61.333 5.66797 -100 17.001 -116c9.33301 -13.333 33 -20 71 -20c37.333 0 61.666 7.66699 72.999 23c13.333 18 20 55.667 20 113c0 56 -4 91.667 -12 107c-11.333 20 -38.333 30 -81 30c-40.667 0 -66 -9.66699 -76 -29c-8 -15.333 -12 -51.333 -12 -108z" />
    <glyph glyph-name="e" unicode="e" horiz-adv-x="574" 
d="M202 328h169c0 36 -7.33301 59.667 -22 71c-10.667 8 -32.334 12 -65.001 12c-31.333 0 -52.666 -5.33301 -63.999 -16s-17.333 -33 -18 -67zM374 175h169.001c0 -56.667 -13.167 -98.5 -39.5 -125.5s-67.166 -43.833 -122.499 -50.5c-24.667 -3.33301 -56 -5 -94 -5
c-100.667 0 -169.334 20.333 -206.001 61c-34 37.333 -51 106.333 -51 207c0 103.333 16.333 173.333 49 210c35.333 39.333 104.666 59 207.999 59c99.333 0 166.833 -18.333 202.5 -55s53.5 -108 53.5 -214v-29h-341c0 -47.333 5.5 -79 16.5 -95s33.833 -24 68.5 -24
c30.667 0 51.667 3.33301 63 10c16 8.66699 24 25.667 24 51z" />
    <glyph glyph-name="f" unicode="f" horiz-adv-x="393" 
d="M378 525l0.00195312 -125.999h-117v-399h-172v399h-69v126h69v51c0 70 18.667 116.667 56 140s112.666 34.666 225.999 33.999v-131c-11.333 3.33301 -22 5 -32 5c-36.667 0 -58.834 -4.66699 -66.501 -14s-11.5 -31.333 -11.5 -66v-19h117z" />
    <glyph glyph-name="g" unicode="g" horiz-adv-x="615" 
d="M295 132c39.333 0 65 10.333 77 31c9.33301 16.667 14 49.667 14 99c0 58 -5.83301 95.333 -17.5 112s-36.167 25 -73.5 25c-39.333 0 -63.833 -7.5 -73.5 -22.5s-14.5 -53.167 -14.5 -114.5c0 -54 5.5 -89.167 16.5 -105.5s34.833 -24.5 71.5 -24.5zM56 -47h163
c0 -25.333 7 -42.333 21 -51c10.667 -6.66699 29.334 -10 56.001 -10c37.333 0 61.666 5.16699 72.999 15.5s17 33.5 17 69.5v109h-6c-19.333 -57.333 -67 -86 -143 -86c-84.667 0 -141.667 25 -171 75c-20.667 36 -31 98.333 -31 187c0 96 11 162 33 198
c28.667 47.333 85 71 169 71c40.667 0 72 -6.33301 94 -19c26.667 -15.333 45 -42 55 -80h6l-6 93h172v-502c0 -98.667 -17.667 -166 -53 -202s-103 -54 -203 -54c-97.333 0 -160.666 10.333 -189.999 31c-34.667 23.333 -53.334 75 -56.001 155z" />
    <glyph glyph-name="h" unicode="h" horiz-adv-x="619" 
d="M229 750v-323h7c12 39.333 31.333 67 58 83c22.667 14 55.667 21 99 21c112.667 0 169 -56 169 -168v-363h-172v323c0 26.667 -4.66699 45.667 -14 57c-11.333 12.667 -30.333 19 -57 19c-35.333 0 -60 -10.333 -74 -31c-10.667 -16 -16 -42.333 -16 -79v-289h-172v750
h172z" />
    <glyph glyph-name="i" unicode="i" horiz-adv-x="257" 
d="M215 525v-525h-172v525h172zM215 750v-132h-172v132h172z" />
    <glyph glyph-name="j" unicode="j" horiz-adv-x="242" 
d="M202 525v-531.999c0 -56.667 -14.333 -97.334 -43 -122.001c-26 -22.667 -68.333 -34 -127 -34c-20.667 0 -37.667 2 -51 6v118c32.667 0 49 16.667 49 50v514h172zM202 750.001v-132h-172v132h172z" />
    <glyph glyph-name="k" unicode="k" horiz-adv-x="592" 
d="M227 750v-422h30l104 197h189l-148 -252l182 -273h-201l-126 213h-30v-213h-172v750h172z" />
    <glyph glyph-name="l" unicode="l" horiz-adv-x="289" 
d="M231 750v-750h-172v750h172z" />
    <glyph glyph-name="m" unicode="m" horiz-adv-x="929" 
d="M58 525h167v-74h7c18 53.333 66 80 144 80c99.333 0 152.333 -34.333 159 -103h8c4 34.667 21.333 61.334 52 80.001c25.333 15.333 56.666 23 93.999 23c122 0 183 -57.333 183 -172v-359h-172v304c0 33.333 -3 56 -9 68c-10 18 -30 27 -60 27
c-53.333 0 -80 -33.667 -80 -101v-298h-172v318c0 28 -3.33301 47.667 -10 59c-9.33301 14.667 -27.666 22 -54.999 22c-33.333 0 -56.333 -9 -69 -27c-10 -14.667 -15 -39.334 -15 -74.001v-298h-172v525z" />
    <glyph glyph-name="n" unicode="n" horiz-adv-x="619" 
d="M57 525h172v-98h7c12 39.333 31.333 67 58 83c22.667 14 55.667 21 99 21c112.667 0 169 -56 169 -168v-363h-172v323c0 26.667 -4.66699 45.667 -14 57c-11.333 12.667 -30.333 19 -57 19c-35.333 0 -60 -10.333 -74 -31c-10.667 -16 -16 -42.333 -16 -79v-289h-172v525
z" />
    <glyph glyph-name="o" unicode="o" horiz-adv-x="593" 
d="M296 531c109.333 0 180.5 -17 213.5 -51s49.5 -106.667 49.5 -218c0 -108.667 -16.833 -180.5 -50.5 -215.5s-104.5 -52.5 -212.5 -52.5c-106 0 -176.167 18 -210.5 54s-51.5 107.333 -51.5 214c0 108.667 16.667 180.667 50 216s104 53 212 53zM299 399
c-45.333 0 -73.666 -12.999 -84.999 -38.999c-5.33301 -12.667 -8 -45.334 -8 -98.001c0 -52 2.66699 -84.333 8 -97c11.333 -26 39.666 -39 84.999 -39c39.333 0 63.833 8 73.5 24s14.5 53.333 14.5 112s-4.83301 96.167 -14.5 112.5s-34.167 24.5 -73.5 24.5z" />
    <glyph glyph-name="p" unicode="p" horiz-adv-x="618" 
d="M55 -227v752h172l-4 -83h8c16.667 59.333 66.667 89 150 89c132.667 0 199 -64.333 199 -193v-120c0 -80 -15.167 -137.333 -45.5 -172s-81.5 -52 -153.5 -52c-75.333 0 -124 28.333 -146 85h-8v-306h-172zM313 399c-36 0 -59.333 -8.83301 -70 -26.5
s-16 -54.5 -16 -110.5c0 -50 4.33301 -83.667 13 -101c12 -23.333 36.333 -35 73 -35c37.333 0 62 7.66699 74 23c14 18 21 55.667 21 113c0 56 -4.33301 91.667 -13 107c-12 20 -39.333 30 -82 30z" />
    <glyph glyph-name="q" unicode="q" horiz-adv-x="619" 
d="M562 -227h-172v306h-8c-22 -56.667 -70.667 -85 -146 -85c-72 0 -123.167 17.333 -153.5 52s-45.5 92 -45.5 172v120c0 128.667 66.333 193 199 193c83.333 0 133.333 -29.667 150 -89h8l-4 83h172v-752zM295 399c-36 0 -59.333 -8.83301 -70 -26.5s-16 -54.5 -16 -110.5
c0 -50 4.33301 -83.667 13 -101c12 -23.333 36.333 -35 73 -35c37.333 0 62 7.66699 74 23c14 18 21 55.667 21 113c0 56 -4.33301 91.667 -13 107c-12 20 -39.333 30 -82 30z" />
    <glyph glyph-name="r" unicode="r" horiz-adv-x="501" 
d="M335 296v25c0 26 -1.66699 43.667 -5 53c-6 16.667 -19.333 25 -40 25c-42.667 0 -64 -28 -64 -84v-315h-172v525h167v-77h7c21.333 55.333 65.333 83 132 83c54 0 90.667 -20.333 110 -61c13.333 -28 20 -72.333 20 -133v-41h-155z" />
    <glyph glyph-name="s" unicode="s" horiz-adv-x="578" 
d="M521 376l-161.999 0.00390625c-4 29.333 -27.333 44 -70 44c-42 0 -68.333 -3 -79 -9c-7.33301 -4.66699 -11 -15.667 -11 -33c0 -16 4 -26.667 12 -32c12 -8.66699 38 -13.334 78 -14.001c99.333 -2 164.333 -11 195 -27c41.333 -20.667 62 -65.334 62 -134.001
c0 -70 -25.667 -118.667 -77 -146c-38.667 -20.667 -98.667 -31 -180 -31c-89.333 0 -149 6.66699 -179 20c-52 22.667 -78 72.667 -78 150h172c0 -26 9 -43.333 27 -52c10.667 -4.66699 30 -7 58 -7c39.333 0 64.166 2.66699 74.499 8s15.5 18 15.5 38
c0 24 -7.33301 39.333 -22 46c-10 4 -32.667 6 -68 6c-104 0 -174 12.667 -210 38c-31.333 21.333 -47 60.666 -47 117.999c0 76 24.667 125.667 74 149c31.333 15.333 92.333 23 183 23c70 0 120.667 -5.66699 152 -17c53.333 -18.667 80 -56.334 80 -113.001v-25z" />
    <glyph glyph-name="t" unicode="t" horiz-adv-x="485" 
d="M449 525l0.000976562 -126h-199v-235c0 -16 2.5 -27.333 7.5 -34s15.5 -10 31.5 -10c20 0 33 6.66699 39 20c3.33301 7.33301 5.33301 23.333 6 48l1 28h137v-47c0 -69.333 -14.667 -116.333 -44 -141c-26.667 -22.667 -76.334 -34 -149.001 -34
c-66 0 -113.333 8 -142 24c-39.333 21.333 -59 62 -59 122v259h-64v126h64v111h172v-111h199z" />
    <glyph glyph-name="u" unicode="u" horiz-adv-x="615" 
d="M555 0h-167.002l6 101h-8c-21.333 -71.333 -73.666 -107 -156.999 -107c-118.667 0 -178 57.333 -178 172v359h172v-313c0 -28.667 3.33301 -49 10 -61c8.66699 -16.667 26.334 -25 53.001 -25c25.333 0 47.833 6.66699 67.5 20s29.5 32 29.5 56v323h172v-525z" />
    <glyph glyph-name="v" unicode="v" horiz-adv-x="530" 
d="M537 525l-129 -525h-270l-145 525h180l95 -410h5l86 410h178z" />
    <glyph glyph-name="w" unicode="w" horiz-adv-x="838" 
d="M837 525l-92 -525h-247l-74 374h-6l-72 -374h-250l-95 525h165l58 -410h8l87 410h201l87 -410h7l61 410h162z" />
    <glyph glyph-name="x" unicode="x" horiz-adv-x="545" 
d="M537 525l-138 -247l152 -278h-202l-75 173l-73 -173h-207l156 278l-135 247h199l60 -145l63 145h200z" />
    <glyph glyph-name="y" unicode="y" horiz-adv-x="533" 
d="M540 525l-132 -571c-16 -70.667 -39.333 -119 -70 -145c-32.667 -28 -84.667 -42 -156 -42c0.666992 0 -19 1 -59 3v119c13.333 -1.33301 23.333 -2 30 -2c56 0 86 37.667 90 113h-94l-156 525h180l104 -427h2l85 427h176z" />
    <glyph glyph-name="z" unicode="z" horiz-adv-x="496" 
d="M40 525h435v-136l-254 -269h254v-120h-454v142l248 263h-229v120z" />
    <glyph glyph-name="braceleft" unicode="{" horiz-adv-x="385" 
d="M24 242v132.002c54.667 0 82 14.667 82 44v205c0 41.333 14.333 75 43 101c23.333 21.333 46.666 32 69.999 32h142v-132h-37c-20.667 0 -34 -5.33301 -40 -16c-4 -6.66699 -6 -18.334 -6 -35.001v-171c0 -56.667 -32 -88 -96 -94v-2c64 -6 96 -40 96 -102v-171
c0 -16.667 2 -28.334 6 -35.001c6 -10.667 19.333 -16 40 -16h37v-132h-142c-23.333 0 -46.666 10.667 -69.999 32c-28.667 26 -43 59.667 -43 101v205c0 36 -27.333 54 -82 54z" />
    <glyph glyph-name="bar" unicode="|" horiz-adv-x="600" 
d="M358 750v-750h-115v750h115z" />
    <glyph glyph-name="braceright" unicode="}" horiz-adv-x="385" 
d="M361 374v-132.002c-54.667 0 -82 -18 -82 -54v-205c0 -41.333 -14.333 -75 -43 -101c-23.333 -21.333 -46.666 -32 -69.999 -32h-142v132h37c20.667 0 34 5.33301 40 16c4 6.66699 6 18.334 6 35.001v171c0 62 32 96 96 102v2c-64 6 -96 37.333 -96 94v171
c0 16.667 -2 28.334 -6 35.001c-6 10.667 -19.333 16 -40 16h-37v132h142c23.333 0 46.666 -10.667 69.999 -32c28.667 -26 43 -59.667 43 -101v-205c0 -29.333 27.333 -44 82 -44z" />
    <glyph glyph-name="asciitilde" unicode="~" horiz-adv-x="600" 
d="M453 359h96.999c0 -54 -8.66699 -99 -26 -135c-22 -46.667 -56 -70 -102 -70c-19.333 0 -44 9.66699 -74 29l-123 80c-19.333 12.667 -36 19 -50 19c-11.333 0 -19 -10.667 -23 -32l-5 -55h-97c0 55.333 8.66699 101 26 137c22 46.667 57.333 70 106 70
c22.667 0 45 -7.66699 67 -23l111 -78c24.667 -17.333 44.334 -26 59.001 -26c12 0 21.333 10 28 30c5.33301 17.333 7.33301 35.333 6 54z" />
    <glyph glyph-name="euro" horiz-adv-x="498" 
d="M522 633l-22.999 -156.001l-48 6c0 104.667 -31.333 157 -94 157c-68.667 0 -122.334 -70.333 -161.001 -211h172l-21 -48h-164c-4 -16 -9.33301 -40.333 -16 -73h147l-21 -47h-134c-4 -27.333 -6 -52 -6 -74c0 -37.333 7 -67.666 21 -90.999
c17.333 -28.667 43.333 -43 78 -43c38.667 0 72.334 22.667 101.001 68c16 25.333 33 65 51 119l55 -10l-54 -188c-51.333 -35.333 -104.333 -53 -159 -53c-74 0 -129.333 28 -166 84c-31.333 47.333 -47 110 -47 188h-74l21 47h56c2 16.667 6 41 12 73h-66l21 48h59
c27.333 74.667 63.333 135.667 108 183c55.333 58.667 117.666 88 186.999 88c62.667 0 117.667 -22.333 165 -67z" />
    <glyph glyph-name="exclamdown" unicode="&#xa1;" horiz-adv-x="349" 
d="M256 525v-174h-162v174h162zM82 -227l7 455h172l7 -455h-186z" />
    <glyph glyph-name="cent" unicode="&#xa2;" 
d="M395 -11l-75.999 -0.000976562v90c-86.667 0 -145.334 23.333 -176.001 70c-25.333 38.667 -38 108.334 -38 209.001c0 94 12.333 159 37 195c30 45.333 89 68 177 68v75h76v-75c75.333 0 128.5 -15.333 159.5 -46s46.167 -83.334 45.5 -158.001h-160
c-1.33301 24.667 -7.33301 42.334 -18 53.001c-12.667 12.667 -34.334 19 -65.001 19c-38 0 -61.667 -13.667 -71 -41c-4 -12 -6 -42 -6 -90c0 -68 3.83301 -109.5 11.5 -124.5s29.5 -22.5 65.5 -22.5c32.667 0 54.834 6.5 66.501 19.5s17.167 36.167 16.5 69.5h160
c0 -84 -11.667 -140.333 -35 -169c-27.333 -34.667 -84 -52 -170 -52v-90z" />
    <glyph glyph-name="sterling" unicode="&#xa3;" 
d="M702 501h-196.002c0 34 -5.16699 57.167 -15.5 69.5s-32.166 18.5 -65.499 18.5c-35.333 0 -59 -6 -71 -18s-18 -35.667 -18 -71v-79h190v-145h-190c0 -34.667 -2.33301 -58.667 -7 -72c-6 -16 -19.333 -29 -40 -39v-5h413v-160h-632v160
c30.667 0 50.334 11.667 59.001 35c4.66699 12.667 7 39.667 7 81h-89v145h89v108c0 83.333 19.333 141.333 58 174c42 35.333 119.333 53 232 53c110.667 0 185 -15.667 223 -47c35.333 -29.333 53 -87 53 -173v-35z" />
    <glyph glyph-name="currency" unicode="&#xa4;" 
d="M538 252l80.998 -81l-72 -68l-81 81l-43 -22c-19.333 -8 -41.333 -11.667 -66 -11c-41.333 1.33301 -76 13 -104 35l-84 -84l-71 70l82 83c-25.333 30.667 -38 67.667 -38 111c0 46.667 12 81.667 36 105l-83 81l73 72l82 -82c30.667 23.333 68.334 34 113.001 32
c47.333 -2 83 -12 107 -30l83 82l72 -71l-84 -83l21 -38c8.66699 -18.667 13.334 -38.667 14.001 -60c0.666992 -26 -4 -51 -14 -75c-0.666992 -2 -8.66699 -17.667 -24 -47zM263.998 358c2 -26 12.166 -47.833 30.499 -65.5s39.833 -26.5 64.5 -26.5
c31.333 0 56.333 11.333 75 34c14.667 18 21.334 37.333 20.001 58c2 25.333 -6.16699 48.5 -24.5 69.5s-41.833 31.5 -70.5 31.5c-28 0 -51.333 -10.5 -70 -31.5s-27 -44.167 -25 -69.5z" />
    <glyph glyph-name="yen" unicode="&#xa5;" 
d="M607 558h94v-132h-166l-42 -78h208v-132h-245v-216h-200v216h-237v132h201l-41 78h-160v132h91l-101 192h217l127 -289h7l131 289h220z" />
    <glyph glyph-name="brokenbar" unicode="&#xa6;" horiz-adv-x="600" 
d="M358 300v-300h-115v300h115zM358 750v-300h-115v300h115z" />
    <glyph glyph-name="section" unicode="&#xa7;" 
d="M270 215l157.001 -29c21.333 -4 36 -6 44 -6c34 0 51 25.333 51 76c0 24 -5.33301 40.667 -16 50s-37.334 18 -80.001 26l-121 23c-31.333 6 -50 9 -56 9c-35.333 0 -53 -24.333 -53 -73c0 -30.667 6.33301 -51 19 -61c6.66699 -4.66699 25 -9.66699 55 -15zM660.001 559
l-0.00292969 -41.9941h-185c-1.33301 42 -12.666 67.667 -33.999 77c-10 4 -39 6 -87 6c-45.333 0 -75.333 -4 -90 -12c-12 -6.66699 -18 -19 -18 -37c0 -22.667 6.33301 -37.667 19 -45c6 -2.66699 26.667 -7.33398 62 -14.001l188 -34c70 -12.667 115.333 -28 136 -46
c27.333 -24 41 -69.333 41 -136c0 -42.667 -2.33301 -72.334 -7 -89.001c-8 -29.333 -25.667 -51 -53 -65c26 -8.66699 43.333 -26 52 -52c6.66699 -18.667 10 -47.334 10 -86.001c0 -80.667 -19 -135.334 -57 -164.001c-46.667 -35.333 -141 -53 -283 -53
c-120 0 -199 13.667 -237 41c-46.667 32.667 -70 103 -70 211h185c1.33301 -41.333 10 -68 26 -80c14 -10.667 46 -16 96 -16c58.667 0 97.334 4.33301 116.001 13c16 8 24 23.667 24 47c0 24 -7.33301 40.667 -22 50c-9.33301 6 -31.333 12 -66 18l-238 41
c-60 10 -98.667 25.667 -116 47s-26 62.333 -26 123c0 40 3.33301 69.667 10 89c10 31.333 30.333 51.333 61 60c-22.667 15.333 -37.667 37.666 -45 66.999c-4 17.333 -6 44.666 -6 81.999c0 66 17 113 51 141c44.667 36.667 130.334 55 257.001 55
c105.333 0 178 -9.33301 218 -28c58.667 -28 88 -84.333 88 -169z" />
    <glyph glyph-name="dieresis" unicode="&#xa8;" horiz-adv-x="469" 
d="M184 712v-103h-109v103h109zM394 712v-103h-109v103h109z" />
    <glyph glyph-name="copyright" unicode="&#xa9;" horiz-adv-x="800" 
d="M400 -6c-105.333 0 -195.166 37.167 -269.499 111.5s-111.5 164.166 -111.5 269.499s37.167 195.166 111.5 269.499s164.166 111.5 269.499 111.5s195.166 -37.167 269.499 -111.5s111.5 -164.166 111.5 -269.499s-37.167 -195.166 -111.5 -269.499
s-164.166 -111.5 -269.499 -111.5zM400 81c80.667 0 149.834 28.667 207.501 86s86.5 126.666 86.5 207.999s-28.833 150.666 -86.5 207.999s-126.834 86 -207.501 86c-82 0 -151.5 -28.667 -208.5 -86s-85.5 -126.666 -85.5 -207.999s28.5 -150.666 85.5 -207.999
s126.5 -86 208.5 -86zM513 303h89c-5.33301 -47.333 -25.5 -85 -60.5 -113s-76.833 -42 -125.5 -42c-66 0 -119.333 22.333 -160 67c-40 42.667 -60 97 -60 163c0 68 19.667 123.5 59 166.5s92.333 64.5 159 64.5c49.333 0 91 -13.5 125 -40.5s55 -63.833 63 -110.5h-89
c-4.66699 24 -16.167 43.167 -34.5 57.5s-40.166 21.5 -65.499 21.5c-40.667 0 -72.5 -15.5 -95.5 -46.5s-34.5 -67.833 -34.5 -110.5c0 -40.667 11.667 -76.667 35 -108c26 -34.667 58.667 -52 98 -52c24.667 0 46.667 7.83301 66 23.5s29.666 35.5 30.999 59.5z" />
    <glyph glyph-name="ordfeminine" unicode="&#xaa;" horiz-adv-x="480" 
d="M53 377h374v-77h-374v77zM282 596l-0.000976562 45.002c0 21.333 -2.16699 35.166 -6.5 41.499s-17.166 9.5 -38.499 9.5c-28 0 -42 -11.333 -42 -34h-104c0 43.333 15 72 45 86c18 8 51 12 99 12c52 0 88 -5.33301 108 -16c28.667 -14.667 43 -44 43 -88v-220h-104v52
h-2c-5.33301 -37.333 -35.333 -56 -90 -56c-74.667 0 -112 34 -112 102c0 37.333 9.33301 63.666 28 78.999c16.667 14 44.667 21 84 21c24.667 0 42 -1 52 -3c18.667 -4.66699 31 -15 37 -31h3zM225.999 567.002c-29.333 0 -44 -12 -44 -36c0 -12 3.16699 -20.333 9.5 -25
s21.833 -7 46.5 -7c19.333 0 32 3 38 9c4 4.66699 6 13.667 6 27c0 21.333 -18.667 32 -56 32z" />
    <glyph glyph-name="guillemotleft" unicode="&#xab;" horiz-adv-x="556" 
d="M174 515l113 -61l-96 -182l96 -169l-107 -66l-134 235zM397 515l113 -61l-96 -182l96 -169l-107 -66l-134 235z" />
    <glyph glyph-name="logicalnot" unicode="&#xac;" horiz-adv-x="600" 
d="M435 157v177h-385v115h500v-292h-115z" />
    <glyph glyph-name="sfthyphen" unicode="&#xad;" horiz-adv-x="338" 
d="M8 174l33 122h246l-33 -122h-246z" />
    <glyph glyph-name="registered" unicode="&#xae;" horiz-adv-x="800" 
d="M400 -6c-105.333 0 -195.166 37.167 -269.499 111.5s-111.5 164.166 -111.5 269.499s37.167 195.166 111.5 269.499s164.166 111.5 269.499 111.5s195.166 -37.167 269.499 -111.5s111.5 -164.166 111.5 -269.499s-37.167 -195.166 -111.5 -269.499
s-164.166 -111.5 -269.499 -111.5zM400 81c80.667 0 149.834 28.667 207.501 86s86.5 126.666 86.5 207.999s-28.833 150.666 -86.5 207.999s-126.834 86 -207.501 86c-82 0 -151.5 -28.667 -208.5 -86s-85.5 -126.666 -85.5 -207.999s28.5 -150.666 85.5 -207.999
s126.5 -86 208.5 -86zM490 340l100 -174h-98l-92 169h-77v-169h-87v412h206c54 0 92.667 -7.33301 116 -22c29.333 -18.667 44 -53.334 44 -104.001c0 -69.333 -37.333 -106.666 -112 -111.999zM323 401l121 0.000976562c24.667 0 42 3.66699 52 11
c12.667 9.33301 19 26.333 19 51c0 21.333 -10.333 35.666 -31 42.999c-12 4 -32.333 6 -61 6h-100v-111z" />
    <glyph glyph-name="macron" unicode="&#xaf;" horiz-adv-x="464" 
d="M75 706h314v-94h-314v94z" />
    <glyph glyph-name="macron" unicode="&#x2c9;" horiz-adv-x="464" 
d="M75 706h314v-94h-314v94z" />
    <glyph glyph-name="degree" unicode="&#xb0;" horiz-adv-x="400" 
d="M350 606c0 -41.333 -14.667 -76.666 -44 -105.999s-64.666 -44 -105.999 -44s-76.666 14.667 -105.999 44s-44 64.666 -44 105.999s14.667 76.666 44 105.999s64.666 44 105.999 44s76.666 -14.667 105.999 -44s44 -64.666 44 -105.999zM281 606
c0 22 -8.00098 41 -24.001 57s-35.333 24 -58 24c-22 0 -40.833 -8 -56.5 -24s-23.5 -35 -23.5 -57c0 -22.667 7.83301 -41.834 23.5 -57.501s34.834 -23.5 57.501 -23.5c22 0 41 7.83301 57 23.5s24 34.834 24 57.501z" />
    <glyph glyph-name="plusminus" unicode="&#xb1;" horiz-adv-x="600" 
d="M242 525h115v-118h193v-115h-193v-123h-115v123h-192v115h192v118zM50 0v115h500v-115h-500z" />
    <glyph glyph-name="twosuperior" unicode="&#xb2;" horiz-adv-x="432" 
d="M405 396v-93.999h-385v94c0 51.333 10.333 85.666 31 102.999c18.667 16.667 65.667 33.334 141 50.001c41.333 8.66699 62.333 13.334 63 14.001c16.667 8 25 24.333 25 49c0 23.333 -6.33301 38 -19 44c-7.33301 4 -23.666 6 -48.999 6
c-29.333 0 -47.333 -2.33301 -54 -7c-9.33301 -5.33301 -14 -20.333 -14 -45v-22h-124v22c0 57.333 16.667 97 50 119c27.333 18 74.666 27 141.999 27c66 0 112.333 -7.66699 139 -23c35.333 -20.667 53 -60.334 53 -119.001c0 -48.667 -9.66699 -82.334 -29 -101.001
c-16 -16.667 -51 -31.667 -105 -45l-100 -23c-17.333 -6.66699 -26 -23 -26 -49h261z" />
    <glyph glyph-name="threesuperior" unicode="&#xb3;" horiz-adv-x="432" 
d="M195 489v86.998h31c26 0 41.667 0.666992 47 2c14 4.66699 21 16.334 21 35.001c0 20 -3 32.667 -9 38c-8.66699 7.33301 -28.334 11 -59.001 11c-26.667 0 -44 -2.33301 -52 -7c-10.667 -6.66699 -16 -21.667 -16 -45v-9h-124v16c0 58.667 17 98 51 118
c24.667 14 69.667 21 135 21c60.667 0 105 -5.66699 133 -17c43.333 -18 65 -52.667 65 -104c0 -61.333 -25 -95 -75 -101v-5c54 -2.66699 81 -35 81 -97c0 -54 -18.667 -90.667 -56 -110c-29.333 -16 -78.666 -24 -147.999 -24c-62.667 0 -107 7 -133 21
c-38.667 20 -58 59 -58 117v24h124v-15c0 -22.667 6.66699 -37.667 20 -45c9.33301 -5.33301 27 -8 53 -8c29.333 0 48.333 2.66699 57 8c11.333 6.66699 17 22.334 17 47.001c0 16.667 -3.66699 27.667 -11 33c-10 6 -31 9 -63 9h-31z" />
    <glyph glyph-name="acute" unicode="&#xb4;" horiz-adv-x="404" 
d="M279 756l50 -111l-226 -71l-28 62z" />
    <glyph glyph-name="mu" unicode="&#xb5;" horiz-adv-x="615" 
d="M558 0h-167.002l6 101h-8c-21.333 -71.333 -75.666 -107 -162.999 -107v-221h-172v752h172v-313c0 -28.667 3.33301 -49 10 -61c8.66699 -16.667 26.334 -25 53.001 -25c25.333 0 47.833 6.66699 67.5 20s29.5 32 29.5 56v323h172v-525z" />
    <glyph glyph-name="mu" unicode="&#x3bc;" horiz-adv-x="615" 
d="M558 0h-167.002l6 101h-8c-21.333 -71.333 -75.666 -107 -162.999 -107v-221h-172v752h172v-313c0 -28.667 3.33301 -49 10 -61c8.66699 -16.667 26.334 -25 53.001 -25c25.333 0 47.833 6.66699 67.5 20s29.5 32 29.5 56v323h172v-525z" />
    <glyph glyph-name="paragraph" unicode="&#xb6;" 
d="M713 -227h-119.999v832h-77v-832h-120v422h-130c-108.667 0 -180.334 19 -215.001 57c-34 36 -51 109.667 -51 221c0 99.333 19.5 170.333 58.5 213s104.833 64 197.5 64h457v-977zM396.001 340v265h-100c-50.667 0 -82.667 -9.33301 -96 -28
c-10 -14 -15 -48.667 -15 -104c0 -57.333 5.33301 -93 16 -107c12.667 -17.333 44.667 -26 96 -26h99z" />
    <glyph glyph-name="ch270" unicode="&#xb7;" horiz-adv-x="249" 
d="M38 348c0 22.667 7.66699 41.667 23 57s34.333 23 57 23s41.834 -7.66699 57.501 -23s23.5 -34.333 23.5 -57s-7.83301 -41.834 -23.5 -57.501s-34.834 -23.5 -57.501 -23.5s-41.667 7.83301 -57 23.5s-23 34.834 -23 57.501z" />
    <glyph glyph-name="ch270" unicode="&#x2219;" horiz-adv-x="249" 
d="M38 348c0 22.667 7.66699 41.667 23 57s34.333 23 57 23s41.834 -7.66699 57.501 -23s23.5 -34.333 23.5 -57s-7.83301 -41.834 -23.5 -57.501s-34.834 -23.5 -57.501 -23.5s-41.667 7.83301 -57 23.5s-23 34.834 -23 57.501z" />
    <glyph glyph-name="cedilla" unicode="&#xb8;" horiz-adv-x="322" 
d="M203 -41l44 -82l-144 -52l-28 52z" />
    <glyph glyph-name="onesuperior" unicode="&#xb9;" horiz-adv-x="432" 
d="M341 756v-454h-130v348l-126 -106l-74 76l178 136h152z" />
    <glyph glyph-name="ordmasculine" unicode="&#xba;" horiz-adv-x="480" 
d="M53 377h374v-77h-374v77zM240 756c66.667 0 110.334 -11.667 131.001 -35c17.333 -20.667 26 -63.667 26 -129s-8.66699 -108.333 -26 -129c-20.667 -23.333 -64.334 -35 -131.001 -35s-110.334 11.667 -131.001 35c-17.333 20.667 -26 63.667 -26 129
s8.66699 108.333 26 129c20.667 23.333 64.334 35 131.001 35zM240 679c-21.333 0 -35.5 -5.33301 -42.5 -16s-10.5 -34.334 -10.5 -71.001s3.5 -60.334 10.5 -71.001s21.167 -16 42.5 -16s35.5 5.33301 42.5 16s10.5 34.334 10.5 71.001s-3.5 60.334 -10.5 71.001
s-21.167 16 -42.5 16z" />
    <glyph glyph-name="guillemotright" unicode="&#xbb;" horiz-adv-x="556" 
d="M375 37l-113 61l96 182l-96 169l107 66l134 -235zM152 37l-113 61l96 182l-96 169l107 66l134 -235z" />
    <glyph glyph-name="onequarter" unicode="&#xbc;" horiz-adv-x="1080" 
d="M977 450v-274h41v-87h-41v-89h-124v89h-255v128l187 233h192zM853 176v182h-5l-148 -182h153zM791 750l-443 -750h-120l443 750h120zM292 750v-448h-130v342l-126 -106l-74 76l178 136h152z" />
    <glyph glyph-name="onehalf" unicode="&#xbd;" horiz-adv-x="1080" 
d="M793 750l-443 -750h-120l443 750h120zM294 750v-448h-130v342l-126 -106l-75 76l179 136h152zM1037 94v-93.999h-385v94c0 51.333 10.333 85.666 31 102.999c18.667 16.667 65.667 33.334 141 50.001c41.333 8.66699 62.333 13.334 63 14.001c16.667 8 25 24.333 25 49
c0 23.333 -6.33301 38 -19 44c-7.33301 4 -23.666 6 -48.999 6c-29.333 0 -47.333 -2.33301 -54 -7c-9.33301 -5.33301 -14 -20.333 -14 -45v-22h-124v22c0 57.333 16.667 97 50 119c27.333 18 74.666 27 141.999 27c66 0 112.333 -7.66699 139 -23
c35.333 -20.667 53 -60.334 53 -119.001c0 -48.667 -9.66699 -82.334 -29 -101.001c-16 -16.667 -51 -31.667 -105 -45l-100 -23c-17.333 -6.66699 -26 -23 -26 -49h261z" />
    <glyph glyph-name="threequarters" unicode="&#xbe;" horiz-adv-x="1080" 
d="M1014 450v-274h41v-87h-41v-89h-124v89h-255v128l187 233h192zM890 176v182h-5l-148 -182h153zM848 750l-443 -750h-120l443 750h120zM192 489v86.998h31c26 0 41.667 0.666992 47 2c14 4.66699 21 16.334 21 35.001c0 20 -3 32.667 -9 38
c-8.66699 7.33301 -28.334 11 -59.001 11c-26.667 0 -44 -2.33301 -52 -7c-10.667 -6.66699 -16 -21.667 -16 -45v-9h-124v16c0 58.667 17 98 51 118c24.667 14 69.667 21 135 21c60.667 0 105 -5.66699 133 -17c43.333 -18 65 -52.667 65 -104c0 -61.333 -25 -95 -75 -101
v-5c54 -2.66699 81 -35 81 -97c0 -54 -18.667 -90.667 -56 -110c-29.333 -16 -78.666 -24 -147.999 -24c-62.667 0 -107 7 -133 21c-38.667 20 -58 59 -58 117v24h124v-15c0 -22.667 6.66699 -37.667 20 -45c9.33301 -5.33301 27 -8 53 -8c29.333 0 48.333 2.66699 57 8
c11.333 6.66699 17 22.334 17 47.001c0 16.667 -3.66699 27.667 -11 33c-10 6 -31 9 -63 9h-31z" />
    <glyph glyph-name="questiondown" unicode="&#xbf;" horiz-adv-x="605" 
d="M245 258l172.002 0.000976562v-30c0 -48.667 -5.33301 -82.334 -16 -101.001c-12.667 -22 -41.334 -43.667 -86.001 -65l-36 -17c-21.333 -10 -36 -19.333 -44 -28c-11.333 -13.333 -17 -32.333 -17 -57c0 -26 7.66699 -43.333 23 -52c10.667 -6 29.667 -9 57 -9
c30.667 0 52 3 64 9c17.333 9.33301 26 26.666 26 51.999v31h172v-31c0 -79.333 -23.667 -133 -71 -161c-36.667 -21.333 -100.334 -32 -191.001 -32c-86.667 0 -147.667 11 -183 33c-46 28 -69 81.333 -69 160c0 61.333 11 106 33 134
c17.333 22.667 54.666 46.667 111.999 72c20.667 9.33301 34.834 18.333 42.501 27s11.5 20.334 11.5 35.001v30zM412.002 525.001v-174h-162v174h162z" />
    <glyph glyph-name="Agrave" unicode="&#xc0;" horiz-adv-x="733" 
d="M403 820h-67l-196 136h159zM745 0h-204l-39 129h-269l-37 -129h-208l225 750h304zM462 275l-93 325h-2l-91 -325h186z" />
    <glyph glyph-name="Aacute" unicode="&#xc1;" horiz-adv-x="733" 
d="M502 129h-269l-37 -129h-208l225 750h304l228 -750h-204zM462 275l-93 325h-2l-91 -325h186zM437 956h159l-196 -136h-67z" />
    <glyph glyph-name="Acircumflex" unicode="&#xc2;" horiz-adv-x="733" 
d="M502 129h-269l-37 -129h-208l225 750h304l228 -750h-204zM462 275l-93 325h-2l-91 -325h186zM368 949l169 -128l-33 -41l-137 61l-141 -61l-35 41z" />
    <glyph glyph-name="Atilde" unicode="&#xc3;" horiz-adv-x="733" 
d="M502 129h-269l-37 -129h-208l225 750h304l228 -750h-204zM462 275l-93 325h-2l-91 -325h186zM494 935l60.999 -18.999c-44 -58 -86.333 -89 -127 -93c-24 -2 -50.333 4.66699 -79 20c-23.333 18 -40.666 26.667 -51.999 26c-21.333 -2 -41.666 -16.333 -60.999 -43
l-61 22c48.667 56.667 93 86.667 133 90c22 2 46.333 -5 73 -21c25.333 -18.667 44.666 -27.334 57.999 -26.001c18 1.33301 36.333 16 55 44z" />
    <glyph glyph-name="Adieresis" unicode="&#xc4;" horiz-adv-x="733" 
d="M502 129h-269l-37 -129h-208l225 750h304l228 -750h-204zM462 275l-93 325h-2l-91 -325h186zM316 937v-103h-109v103h109zM526 937v-103h-109v103h109z" />
    <glyph glyph-name="Aring" unicode="&#xc5;" horiz-adv-x="733" 
d="M502 129h-269l-37 -129h-208l225 750h304l228 -750h-204zM462 275l-93 325h-2l-91 -325h186zM269 889c0 26.667 9.5 49.5 28.5 68.5s42.167 28.5 69.5 28.5c26.667 0 49.5 -9.5 68.5 -28.5s28.5 -41.833 28.5 -68.5s-9.5 -49.667 -28.5 -69s-41.833 -29 -68.5 -29
s-49.667 9.66699 -69 29s-29 42.333 -29 69zM321 889c0 -12.667 4.33301 -23.499 13 -32.499s19.334 -13.5 32.001 -13.5c12 0 22.667 4.5 32 13.5s14 19.833 14 32.5c0 12 -4.66699 22.5 -14 31.5s-20 13.5 -32 13.5c-12.667 0 -23.334 -4.33301 -32.001 -13
s-13 -19.334 -13 -32.001z" />
    <glyph glyph-name="AE" unicode="&#xc6;" horiz-adv-x="1074" 
d="M499 272v314h-86l-119 -314h205zM499 0v133h-258l-50 -133h-217l294 750h764v-164h-343v-140h316v-139h-316v-143h343v-164h-533z" />
    <glyph glyph-name="Ccedilla" unicode="&#xc7;" horiz-adv-x="728" 
d="M489 284l205.999 0.000976562v-22c0 -52.667 -3 -91.334 -9 -116.001c-9.33301 -39.333 -29.166 -71.5 -59.499 -96.5s-67.833 -41.5 -112.5 -49.5c-25.333 -4 -67.333 -6 -126 -6c-124 0 -208.333 13 -253 39c-66.667 39.333 -100 121 -100 245v194
c0 115.333 31.333 193.666 94 234.999c49.333 32.667 135.666 49 258.999 49c114.667 0 191.334 -13 230.001 -39c50.667 -32.667 76 -101.667 76 -207v-29h-206v29c-3.33301 30.667 -16 51 -38 61c-16 7.33301 -44 11 -84 11c-54.667 0 -89.667 -10.333 -105 -31
c-13.333 -17.333 -20 -54.333 -20 -111v-117c0 -62 6 -101.667 18 -119c15.333 -24 51 -36 107 -36c46.667 0 77.667 4.66699 93 14c20 12.667 30 39.334 30 80.001v22zM405.999 -40.999l44 -82l-144 -52l-28 52z" />
    <glyph glyph-name="Egrave" unicode="&#xc8;" horiz-adv-x="678" 
d="M264 586v-137h320v-139h-320v-146h348v-164h-548v750h541v-164h-341zM367 820h-67l-196 136h159z" />
    <glyph glyph-name="Eacute" unicode="&#xc9;" horiz-adv-x="678" 
d="M264 586v-137h320v-139h-320v-146h348v-164h-548v750h541v-164h-341zM402 956h159l-196 -136h-67z" />
    <glyph glyph-name="Ecircumflex" unicode="&#xca;" horiz-adv-x="678" 
d="M264 586v-137h320v-139h-320v-146h348v-164h-548v750h541v-164h-341zM332 960l169 -128l-33 -41l-137 61l-141 -61l-35 41z" />
    <glyph glyph-name="Edieresis" unicode="&#xcb;" horiz-adv-x="678" 
d="M264 586v-137h320v-139h-320v-146h348v-164h-548v750h541v-164h-341zM289 937v-103h-109v103h109zM499 937v-103h-109v103h109z" />
    <glyph glyph-name="Igrave" unicode="&#xcc;" horiz-adv-x="324" 
d="M262 750v-750h-200v750h200zM197 820h-67l-196 136h159z" />
    <glyph glyph-name="Iacute" unicode="&#xcd;" horiz-adv-x="324" 
d="M262 750v-750h-200v750h200zM231 956h159l-196 -136h-67z" />
    <glyph glyph-name="Icircumflex" unicode="&#xce;" horiz-adv-x="324" 
d="M262 750v-750h-200v750h200zM160 981l183 -109l-25 -57l-158 62l-152 -62l-27 57z" />
    <glyph glyph-name="Idieresis" unicode="&#xcf;" horiz-adv-x="324" 
d="M262 750v-750h-200v750h200zM112 937v-103h-109v103h109zM322 937v-103h-109v103h109z" />
    <glyph glyph-name="Eth" unicode="&#xd0;" horiz-adv-x="775" 
d="M52 453v296.999h380c106 0 182.833 -22.167 230.5 -66.5s71.5 -119.166 71.5 -224.499v-157c0 -106 -19.667 -182 -59 -228c-42 -49.333 -114 -74 -216 -74h-407v314h-84v139h84zM252 575.999l0.000976562 -123.001h112v-139h-112v-140h175c67.333 0 101 42.667 101 128
v157c0 46.667 -8 78.334 -24 95.001c-14.667 14.667 -40.334 22 -77.001 22h-175z" />
    <glyph glyph-name="Ntilde" unicode="&#xd1;" horiz-adv-x="871" 
d="M249 576l12 -576h-200v750h338l215 -576h8l-12 576h200v-750h-341l-212 576h-8zM571 958l81.999 -41c-32.667 -66 -73.667 -99 -123 -99c-29.333 0 -62.166 11.333 -98.499 34s-60.166 34 -71.499 34c-24 0 -44 -15 -60 -45l-82 44c36.667 64 80 96 130 96
c26 0 57.167 -11.5 93.5 -34.5s62.166 -34.5 77.499 -34.5c20 0 37.333 15.333 52 46z" />
    <glyph glyph-name="Ograve" unicode="&#xd2;" horiz-adv-x="760" 
d="M380 -6c-113.333 0 -196.333 17 -249 51c-65.333 42 -98 116.667 -98 224v212c0 107.333 32.667 182 98 224c52.667 34 135.667 51 249 51s196.333 -17 249 -51c65.333 -42 98 -116.667 98 -224v-212c0 -107.333 -32.667 -182 -98 -224
c-52.667 -34 -135.667 -51 -249 -51zM380 168c55.333 0 92.001 6.66895 110.001 20.002c20.667 15.333 31 49.666 31 102.999v169c0 53.333 -10.333 87.666 -31 102.999c-16.667 12.667 -53.334 19 -110.001 19c-56 0 -92.333 -6.33301 -109 -19
c-21.333 -16 -32 -50.333 -32 -103v-169c0 -53.333 10.667 -88 32 -104c16.667 -12.667 53 -19 109 -19zM415.001 825.002h-67l-196 136h159z" />
    <glyph glyph-name="Oacute" unicode="&#xd3;" horiz-adv-x="760" 
d="M380 -6c-113.333 0 -196.333 17 -249 51c-65.333 42 -98 116.667 -98 224v212c0 107.333 32.667 182 98 224c52.667 34 135.667 51 249 51s196.333 -17 249 -51c65.333 -42 98 -116.667 98 -224v-212c0 -107.333 -32.667 -182 -98 -224
c-52.667 -34 -135.667 -51 -249 -51zM380 168c55.333 0 92.001 6.66895 110.001 20.002c20.667 15.333 31 49.666 31 102.999v169c0 53.333 -10.333 87.666 -31 102.999c-16.667 12.667 -53.334 19 -110.001 19c-56 0 -92.333 -6.33301 -109 -19
c-21.333 -16 -32 -50.333 -32 -103v-169c0 -53.333 10.667 -88 32 -104c16.667 -12.667 53 -19 109 -19zM449.001 961.002h159l-196 -136h-67z" />
    <glyph glyph-name="Ocircumflex" unicode="&#xd4;" horiz-adv-x="760" 
d="M380 -6c-113.333 0 -196.333 17 -249 51c-65.333 42 -98 116.667 -98 224v212c0 107.333 32.667 182 98 224c52.667 34 135.667 51 249 51s196.333 -17 249 -51c65.333 -42 98 -116.667 98 -224v-212c0 -107.333 -32.667 -182 -98 -224
c-52.667 -34 -135.667 -51 -249 -51zM380 168c55.333 0 92.001 6.66895 110.001 20.002c20.667 15.333 31 49.666 31 102.999v169c0 53.333 -10.333 87.666 -31 102.999c-16.667 12.667 -53.334 19 -110.001 19c-56 0 -92.333 -6.33301 -109 -19
c-21.333 -16 -32 -50.333 -32 -103v-169c0 -53.333 10.667 -88 32 -104c16.667 -12.667 53 -19 109 -19zM381.001 960.002l169 -128l-33 -41l-137 61l-141 -61l-35 41z" />
    <glyph glyph-name="Otilde" unicode="&#xd5;" horiz-adv-x="760" 
d="M380 -6c-113.333 0 -196.333 17 -249 51c-65.333 42 -98 116.667 -98 224v212c0 107.333 32.667 182 98 224c52.667 34 135.667 51 249 51s196.333 -17 249 -51c65.333 -42 98 -116.667 98 -224v-212c0 -107.333 -32.667 -182 -98 -224
c-52.667 -34 -135.667 -51 -249 -51zM380 168c55.333 0 92.001 6.66895 110.001 20.002c20.667 15.333 31 49.666 31 102.999v169c0 53.333 -10.333 87.666 -31 102.999c-16.667 12.667 -53.334 19 -110.001 19c-56 0 -92.333 -6.33301 -109 -19
c-21.333 -16 -32 -50.333 -32 -103v-169c0 -53.333 10.667 -88 32 -104c16.667 -12.667 53 -19 109 -19zM506.001 935.002l60.999 -18.999c-44 -58 -86.333 -89 -127 -93c-24 -2 -50.333 4.66699 -79 20c-23.333 18 -40.666 26.667 -51.999 26
c-21.333 -2 -41.666 -16.333 -60.999 -43l-61 22c48.667 56.667 93 86.667 133 90c22 2 46.333 -5 73 -21c25.333 -18.667 44.666 -27.334 57.999 -26.001c18 1.33301 36.333 16 55 44z" />
    <glyph glyph-name="Odieresis" unicode="&#xd6;" horiz-adv-x="760" 
d="M380 -6c-114 0 -197.333 17 -250 51c-64.667 42 -97 116.667 -97 224v212c0 107.333 32.333 182 97 224c52.667 34 136 51 250 51s197.333 -17 250 -51c64.667 -42 97 -116.667 97 -224v-212c0 -107.333 -32.333 -182 -97 -224c-52.667 -34 -136 -51 -250 -51zM380 168
c56 0 92.667 6.66797 110 20.001c20.667 15.333 31 49.666 31 102.999v169c0 52.667 -10.333 87 -31 103c-17.333 12.667 -54 19 -110 19s-92.333 -6.33301 -109 -19c-21.333 -16 -32 -50.333 -32 -103v-169c0 -53.333 10.667 -88 32 -104c16.667 -12.667 53 -19 109 -19z
M330 937.001v-103h-109v103h109zM540 937.001v-103h-109v103h109z" />
    <glyph glyph-name="multiply" unicode="&#xd7;" horiz-adv-x="600" 
d="M50 438l88 87l162 -161l162 161l88 -87l-162 -162l162 -162l-88 -88l-162 162l-162 -162l-88 88l162 162z" />
    <glyph glyph-name="Oslash" unicode="&#xd8;" horiz-adv-x="760" 
d="M770 781l0.000976562 -141.001l-57 -48c11.333 -43.333 17 -110.333 17 -201c0 -105.333 -6.66699 -182 -20 -230c-16.667 -59.333 -49.334 -102 -98.001 -128s-124 -39 -226 -39c-65.333 0 -115 3 -149 9c-58 10.667 -102.333 31.667 -133 63l-112 -96v139l55 46
c-11.333 28 -17 58.667 -17 92v119c0 106 8 183.667 24 233c18 58 52 98.667 102 122s126.667 35 230 35c66 0 114.333 -3 145 -9c51.333 -9.33301 93.333 -29.666 126 -60.999zM524.001 425.999l-264 -227c10 -20.667 54 -31 132 -31c88 0 132 32.667 132 98v160z
M236.001 319.999l266.002 230c-14.667 14.667 -32.334 24 -53.001 28c-12.667 2.66699 -33.667 4 -63 4c-62.667 0 -102.334 -8.66699 -119.001 -26c-20.667 -21.333 -31 -71 -31 -149v-87z" />
    <glyph glyph-name="Ugrave" unicode="&#xd9;" horiz-adv-x="771" 
d="M509 750h200.001v-500c0 -101.333 -28 -171.333 -84 -210c-45.333 -30.667 -122 -46 -230 -46c-78 0 -136.667 4.66699 -176 14c-71.333 16 -117 48 -137 96c-12.667 30 -19 78.667 -19 146v500h200v-496c0 -38.667 11.667 -63.667 35 -75
c15.333 -7.33301 47.666 -11 96.999 -11c45.333 0 75 5 89 15c16.667 12 25 38.667 25 80v487zM424.001 800h-67l-196 136h159z" />
    <glyph glyph-name="Uacute" unicode="&#xda;" horiz-adv-x="771" 
d="M509 750h200.001v-500c0 -101.333 -28 -171.333 -84 -210c-45.333 -30.667 -122 -46 -230 -46c-78 0 -136.667 4.66699 -176 14c-71.333 16 -117 48 -137 96c-12.667 30 -19 78.667 -19 146v500h200v-496c0 -38.667 11.667 -63.667 35 -75
c15.333 -7.33301 47.666 -11 96.999 -11c45.333 0 75 5 89 15c16.667 12 25 38.667 25 80v487zM456.001 936h159l-196 -136h-67z" />
    <glyph glyph-name="Ucircumflex" unicode="&#xdb;" horiz-adv-x="771" 
d="M509 750l200.001 -0.000976562v-500c0 -97.333 -24.667 -165 -74 -203c-46.667 -35.333 -126.667 -53 -240 -53c-98 0 -170.5 8.5 -217.5 25.5s-78.833 45.167 -95.5 84.5c-12.667 30.667 -19 79.334 -19 146.001v500h200v-496c0 -38.667 11.667 -63.667 35 -75
c15.333 -7.33301 47.666 -11 96.999 -11c46 0 75.667 5 89 15c16.667 11.333 25 38 25 80v487zM384.001 980.999l183 -109l-25 -57l-158 62l-152 -62l-27 57z" />
    <glyph glyph-name="Udieresis" unicode="&#xdc;" horiz-adv-x="771" 
d="M509 750l200.001 -0.000976562v-500c0 -97.333 -24.667 -165 -74 -203c-46.667 -35.333 -126.667 -53 -240 -53c-98 0 -170.5 8.5 -217.5 25.5s-78.833 45.167 -95.5 84.5c-12.667 30.667 -19 79.334 -19 146.001v500h200v-496c0 -38.667 11.667 -63.667 35 -75
c15.333 -7.33301 47.666 -11 96.999 -11c46 0 75.667 5 89 15c16.667 11.333 25 38 25 80v487zM335.001 936.999v-103h-109v103h109zM545.001 936.999v-103h-109v103h109z" />
    <glyph glyph-name="Yacute" unicode="&#xdd;" horiz-adv-x="708" 
d="M724 750l-274 -487v-263h-200v263l-266 487h229l134 -289h7l138 289h232zM421 926h159l-196 -136h-67z" />
    <glyph glyph-name="Thorn" unicode="&#xde;" horiz-adv-x="711" 
d="M258 0h-200v750h200v-96h177c92.667 0 158.5 -21.167 197.5 -63.5s58.5 -112.833 58.5 -211.5c0 -108 -16.667 -181.667 -50 -221c-35.333 -41.333 -104 -62 -206 -62h-177v-96zM258 270h137c40 0 65 6.16699 75 18.5s15 42.5 15 90.5c0 40 -5.5 66.833 -16.5 80.5
s-35.5 20.5 -73.5 20.5h-137v-210z" />
    <glyph glyph-name="germandbls" unicode="&#xdf;" horiz-adv-x="617" 
d="M229 0l-171.998 -0.00390625v565c0 74.667 22.667 126.334 68 155.001c36.667 24 97 36 181 36c79.333 0 135.666 -7.33301 168.999 -22c51.333 -23.333 77 -68.666 77 -135.999c0 -77.333 -40 -120.666 -120 -129.999v-8c62 -0.666992 104.333 -22.667 127 -66
c16 -30.667 24 -80.334 24 -149.001c0 -85.333 -13 -146.666 -39 -183.999c-32 -44.667 -88.667 -67 -170 -67l-90 6v121c14 -4.66699 29.333 -7 46 -7c33.333 0 55.166 8.5 65.499 25.5s15.5 52.167 15.5 105.5c0 57.333 -4 96.333 -12 117c-13.333 32 -40.333 48 -81 48
h-16v115h19c48 0 72 17.333 72 52c0 42.667 -29 64 -87 64c-26.667 0 -45.667 -5 -57 -15c-13.333 -11.333 -20 -31.666 -20 -60.999v-565z" />
    <glyph glyph-name="agrave" unicode="&#xe0;" horiz-adv-x="609" 
d="M288 217c-50 0 -75 -18.333 -75 -55c0 -38 25 -57 75 -57c34 0 56 2.33301 66 7c18.667 8.66699 28 27.667 28 57c0 22.667 -11 37 -33 43c-10.667 3.33301 -31 5 -61 5zM382 0l6 77.999h-6c-10 -56 -60.333 -84 -151 -84c-65.333 0 -112 10.667 -140 32
c-33.333 24 -50 67.667 -50 131c0 61.333 17 105 51 131c29.333 22.667 75.666 34 138.999 34c38 0 65.667 -2.33301 83 -7c32 -8.66699 52 -26 60 -52h8v83c0 28.667 -3.66699 48 -11 58c-10.667 14.667 -33 22 -67 22c-46.667 0 -70 -19 -70 -57h-172
c0 72.667 25 120 75 142c30 13.333 85.667 20 167 20c94.667 0 158.334 -11.333 191.001 -34c39.333 -27.333 59 -83.666 59 -168.999v-328h-172zM336 611.999h-61l-166 122h133z" />
    <glyph glyph-name="aacute" unicode="&#xe1;" horiz-adv-x="609" 
d="M288 217c-50 0 -75 -18.333 -75 -55c0 -38 25 -57 75 -57c34 0 56 2.33301 66 7c18.667 8.66699 28 27.667 28 57c0 22.667 -11 37 -33 43c-10.667 3.33301 -31 5 -61 5zM382 0l6 77.999h-6c-10 -56 -60.333 -84 -151 -84c-65.333 0 -112 10.667 -140 32
c-33.333 24 -50 67.667 -50 131c0 61.333 17 105 51 131c29.333 22.667 75.666 34 138.999 34c38 0 65.667 -2.33301 83 -7c32 -8.66699 52 -26 60 -52h8v83c0 28.667 -3.66699 48 -11 58c-10.667 14.667 -33 22 -67 22c-46.667 0 -70 -19 -70 -57h-172
c0 72.667 25 120 75 142c30 13.333 85.667 20 167 20c94.667 0 158.334 -11.333 191.001 -34c39.333 -27.333 59 -83.666 59 -168.999v-328h-172zM367 733.999h143l-176 -122h-61z" />
    <glyph glyph-name="acircumflex" unicode="&#xe2;" horiz-adv-x="609" 
d="M288 217c-50 0 -75 -18.333 -75 -55c0 -38 25 -57 75 -57c34 0 56 2.33301 66 7c18.667 8.66699 28 27.667 28 57c0 22.667 -11 37 -33 43c-10.667 3.33301 -31 5 -61 5zM382 0l6 77.999h-6c-10 -56 -60.333 -84 -151 -84c-65.333 0 -112 10.667 -140 32
c-33.333 24 -50 67.667 -50 131c0 61.333 17 105 51 131c29.333 22.667 75.666 34 138.999 34c38 0 65.667 -2.33301 83 -7c32 -8.66699 52 -26 60 -52h8v83c0 28.667 -3.66699 48 -11 58c-10.667 14.667 -33 22 -67 22c-46.667 0 -70 -19 -70 -57h-172
c0 72.667 25 120 75 142c30 13.333 85.667 20 167 20c94.667 0 158.334 -11.333 191.001 -34c39.333 -27.333 59 -83.666 59 -168.999v-328h-172zM304 716.999l152 -115l-30 -37l-123 55l-127 -55l-31 37z" />
    <glyph glyph-name="atilde" unicode="&#xe3;" horiz-adv-x="609" 
d="M288 217c-50 0 -75 -18.333 -75 -55c0 -38 25 -57 75 -57c34 0 56 2.33301 66 7c18.667 8.66699 28 27.667 28 57c0 22.667 -11 37 -33 43c-10.667 3.33301 -31 5 -61 5zM382 0l6 77.999h-6c-10 -56 -60.333 -84 -151 -84c-65.333 0 -112 10.667 -140 32
c-33.333 24 -50 67.667 -50 131c0 61.333 17 105 51 131c29.333 22.667 75.666 34 138.999 34c38 0 65.667 -2.33301 83 -7c32 -8.66699 52 -26 60 -52h8v83c0 28.667 -3.66699 48 -11 58c-10.667 14.667 -33 22 -67 22c-46.667 0 -70 -19 -70 -57h-172
c0 72.667 25 120 75 142c30 13.333 85.667 20 167 20c94.667 0 158.334 -11.333 191.001 -34c39.333 -27.333 59 -83.666 59 -168.999v-328h-172zM418 715.999l54.998 -16.999c-39.333 -52.667 -77.333 -80.667 -114 -84c-22 -2 -45.667 4 -71 18
c-22 16.667 -37.667 24.667 -47 24c-19.333 -1.33301 -37.666 -14.333 -54.999 -39l-55 20c42.667 51.333 82.667 78.333 120 81c20 1.33301 41.667 -5 65 -19c22.667 -16.667 40.334 -24.667 53.001 -24c14.667 1.33301 31 14.666 49 39.999z" />
    <glyph glyph-name="adieresis" unicode="&#xe4;" horiz-adv-x="609" 
d="M288 217c-50 0 -74.999 -18.333 -74.999 -55c0 -38 25 -57 75 -57c33.333 0 55.333 2.33301 66 7c18.667 8.66699 28 27.667 28 57c0 20 -8.66699 33.667 -26 41c-12.667 4.66699 -35.334 7 -68.001 7zM382.001 0l6 77.999h-6c-10 -56 -60.333 -84 -151 -84
c-65.333 0 -112 10.333 -140 31c-33.333 24.667 -50 68.667 -50 132c0 60.667 16.333 104 49 130c29.333 23.333 76.333 35 141 35c37.333 0 65 -2.33301 83 -7c32 -8.66699 52 -26 60 -52h8v83c0 28.667 -3.66699 48 -11 58c-10.667 14.667 -33 22 -67 22
c-46.667 0 -70 -19 -70 -57h-172c0 72.667 25 120 75 142c29.333 13.333 85 20 167 20c95.333 0 159 -11.333 191 -34c39.333 -27.333 59 -83.666 59 -168.999v-328h-172zM254.001 711.999v-103h-109v103h109zM464.001 711.999v-103h-109v103h109z" />
    <glyph glyph-name="aring" unicode="&#xe5;" horiz-adv-x="609" 
d="M288 217c-50 0 -74.999 -18.333 -74.999 -55c0 -38 25 -57 75 -57c33.333 0 55.333 2.33301 66 7c18.667 8.66699 28 27.667 28 57c0 20 -8.66699 33.667 -26 41c-12.667 4.66699 -35.334 7 -68.001 7zM382.001 0l6 77.999h-6c-10 -56 -60.333 -84 -151 -84
c-65.333 0 -112 10.333 -140 31c-33.333 24.667 -50 68.667 -50 132c0 60.667 16.333 104 49 130c29.333 23.333 76.333 35 141 35c37.333 0 65 -2.33301 83 -7c32 -8.66699 52 -26 60 -52h8v83c0 28.667 -3.66699 48 -11 58c-10.667 14.667 -33 22 -67 22
c-46.667 0 -70 -19 -70 -57h-172c0 72.667 25 120 75 142c29.333 13.333 85 20 167 20c95.333 0 159 -11.333 191 -34c39.333 -27.333 59 -83.666 59 -168.999v-328h-172zM207.001 663.999c0 26.667 9.5 49.5 28.5 68.5s42.167 28.5 69.5 28.5
c26.667 0 49.5 -9.5 68.5 -28.5s28.5 -41.833 28.5 -68.5s-9.5 -49.667 -28.5 -69s-41.833 -29 -68.5 -29s-49.667 9.66699 -69 29s-29 42.333 -29 69zM259.001 663.999c0 -12.667 4.33301 -23.499 13 -32.499s19.334 -13.5 32.001 -13.5c12 0 22.667 4.5 32 13.5
s14 19.833 14 32.5c0 12 -4.66699 22.5 -14 31.5s-20 13.5 -32 13.5c-12.667 0 -23.334 -4.33301 -32.001 -13s-13 -19.334 -13 -32.001z" />
    <glyph glyph-name="ae" unicode="&#xe6;" horiz-adv-x="927" 
d="M551 328h169.001c0 37.333 -7.33301 63 -22 77c-12.667 12 -34.334 18 -65.001 18c-30 0 -50.833 -7 -62.5 -21s-18.167 -38.667 -19.5 -74zM285.001 218c-50 0 -74.999 -18.333 -74.999 -55c0 -38 25 -57 75 -57c33.333 0 55.333 2.33301 66 7
c18.667 8.66699 28 27.667 28 57c0 20 -8.66699 33.667 -26 41c-12.667 4.66699 -35.334 7 -68.001 7zM379.002 263v82.999c0 28.667 -3.66699 48 -11 58c-10.667 14.667 -33 22 -67 22c-46.667 0 -70 -19 -70 -57h-172c0 72.667 25 120 75 142c29.333 13.333 85 20 167 20
c99.333 0 155.333 -23.667 168 -71h5c10.667 47.333 64.667 71 162 71c99.333 0 166.833 -18.333 202.5 -55s53.5 -108 53.5 -214v-29h-341c0 -47.333 5.5 -79 16.5 -95s33.833 -24 68.5 -24c30.667 0 51.667 3.33301 63 10c16 8.66699 24 25.667 24 51h169
c0 -59.333 -13.5 -102.166 -40.5 -128.499s-69.5 -42.5 -127.5 -48.5c-24 -2.66699 -53.333 -4 -88 -4c-107.333 0 -169.666 26.333 -186.999 79h-6c-12.667 -34 -40.334 -56.667 -83.001 -68c-27.333 -7.33301 -71.333 -11 -132 -11c-65.333 0 -112 10.333 -140 31
c-33.333 24.667 -50 68.667 -50 132c0 60.667 16.333 104 49 130c29.333 23.333 76.333 35 141 35c37.333 0 65 -2.33301 83 -7c32 -8.66699 52 -26 60 -52h8z" />
    <glyph glyph-name="ccedilla" unicode="&#xe7;" horiz-adv-x="557" 
d="M364 210l172.001 -0.00195312c0 -73.333 -10.667 -124.666 -32 -153.999c-24 -34 -69.667 -53.667 -137 -59c-22 -2 -50.333 -3 -85 -3c-100 0 -166.833 18.5 -200.5 55.5s-50.5 107.833 -50.5 212.5c0 96.667 15 163.667 45 201c36 45.333 104.667 68 206 68
c88 0 149.333 -10.333 184 -31c46.667 -29.333 70 -86.666 70 -171.999h-172c1.33301 30 -4.66699 49.667 -18 59c-10.667 8 -32 12 -64 12s-52.667 -7.66699 -62 -23c-11.333 -18 -17 -56 -17 -114c0 -60 4.83301 -97.667 14.5 -113s31.167 -23 64.5 -23
c37.333 0 60.666 6 69.999 18c8 9.33301 12 31.333 12 66zM321.001 -41.002l44 -82l-144 -52l-28 52z" />
    <glyph glyph-name="egrave" unicode="&#xe8;" horiz-adv-x="574" 
d="M202 328h169.001c0 36 -7.33301 59.667 -22 71c-10.667 8 -32.334 12 -65.001 12c-32 0 -53.5 -5.66699 -64.5 -17s-16.833 -33.333 -17.5 -66zM374.001 175l169 0.000976562c0 -56 -13 -97.667 -39 -125s-67 -44.333 -123 -51c-26.667 -3.33301 -58 -5 -94 -5
c-99.333 0 -167.666 20 -204.999 60c-34.667 38.667 -52 108 -52 208c0 103.333 16.667 173.333 50 210c36 39.333 105 59 207 59c101.333 0 169.333 -19.167 204 -57.5s52 -108.833 52 -211.5v-29h-341c0 -42.667 4 -71.334 12 -86.001c11.333 -22 35.666 -33 72.999 -33
c30 0 51 3.33301 63 10c16 8.66699 24 25.667 24 51zM320.001 612.001h-61l-166 122h133z" />
    <glyph glyph-name="eacute" unicode="&#xe9;" horiz-adv-x="574" 
d="M202 328h169.001c0 36 -7.33301 59.667 -22 71c-10.667 8 -32.334 12 -65.001 12c-32 0 -53.5 -5.66699 -64.5 -17s-16.833 -33.333 -17.5 -66zM374.001 175l169 0.000976562c0 -56 -13 -97.667 -39 -125s-67 -44.333 -123 -51c-26.667 -3.33301 -58 -5 -94 -5
c-99.333 0 -167.666 20 -204.999 60c-34.667 38.667 -52 108 -52 208c0 103.333 16.667 173.333 50 210c36 39.333 105 59 207 59c101.333 0 169.333 -19.167 204 -57.5s52 -108.833 52 -211.5v-29h-341c0 -42.667 4 -71.334 12 -86.001c11.333 -22 35.666 -33 72.999 -33
c30 0 51 3.33301 63 10c16 8.66699 24 25.667 24 51zM351.001 734.001h143l-176 -122h-61z" />
    <glyph glyph-name="ecircumflex" unicode="&#xea;" horiz-adv-x="574" 
d="M202 328h169.001c0 36 -7.33301 59.667 -22 71c-10.667 8 -32.334 12 -65.001 12c-32 0 -53.5 -5.66699 -64.5 -17s-16.833 -33.333 -17.5 -66zM374.001 175l169 0.000976562c0 -56 -13 -97.667 -39 -125s-67 -44.333 -123 -51c-26.667 -3.33301 -58 -5 -94 -5
c-99.333 0 -167.666 20 -204.999 60c-34.667 38.667 -52 108 -52 208c0 103.333 16.667 173.333 50 210c36 39.333 105 59 207 59c101.333 0 169.333 -19.167 204 -57.5s52 -108.833 52 -211.5v-29h-341c0 -42.667 4 -71.334 12 -86.001c11.333 -22 35.666 -33 72.999 -33
c30 0 51 3.33301 63 10c16 8.66699 24 25.667 24 51zM288.001 717.001l152 -115l-30 -37l-123 55l-127 -55l-31 37z" />
    <glyph glyph-name="edieresis" unicode="&#xeb;" horiz-adv-x="574" 
d="M202 328h169c0 36 -7.33301 59.667 -22 71c-10.667 8 -32.334 12 -65.001 12c-31.333 0 -52.666 -5.33301 -63.999 -16s-17.333 -33 -18 -67zM374 175h169.001c0 -56.667 -13.167 -98.5 -39.5 -125.5s-67.166 -43.833 -122.499 -50.5c-24.667 -3.33301 -56 -5 -94 -5
c-100.667 0 -169.334 20.333 -206.001 61c-34 37.333 -51 106.333 -51 207c0 103.333 16.333 173.333 49 210c35.333 39.333 104.666 59 207.999 59c99.333 0 166.833 -18.333 202.5 -55s53.5 -108 53.5 -214v-29h-341c0 -47.333 5.5 -79 16.5 -95s33.833 -24 68.5 -24
c30.667 0 51.667 3.33301 63 10c16 8.66699 24 25.667 24 51zM237.001 712v-103h-109v103h109zM447.001 712v-103h-109v103h109z" />
    <glyph glyph-name="igrave" unicode="&#xec;" horiz-adv-x="257" 
d="M215 525v-525h-172v525h172zM161 602h-61l-166 122h133z" />
    <glyph glyph-name="iacute" unicode="&#xed;" horiz-adv-x="257" 
d="M215 525v-525h-172v525h172zM191 724h143l-176 -122h-61z" />
    <glyph glyph-name="icircumflex" unicode="&#xee;" horiz-adv-x="257" 
d="M215 525v-525h-172v525h172zM127 756l183 -109l-25 -57l-158 62l-152 -62l-27 57z" />
    <glyph glyph-name="idieresis" unicode="&#xef;" horiz-adv-x="257" 
d="M215 525v-525h-172v525h172zM78 712v-103h-109v103h109zM288 712v-103h-109v103h109z" />
    <glyph glyph-name="eth" unicode="&#xf0;" horiz-adv-x="593" 
d="M158 542l-46.001 30l37 52c-20.667 8.66699 -53 20 -97 34l37 98c36 -8 77.667 -21.667 125 -41l31 45l49 -27l-26 -37c104.667 -48.667 185.334 -114.667 242.001 -198c32.667 -48 49 -126.667 49 -236c0 -108.667 -16.833 -180.5 -50.5 -215.5
s-104.5 -52.5 -212.5 -52.5c-106 0 -176.167 18 -210.5 54s-51.5 107.333 -51.5 214c0 109.333 17.333 181.5 52 216.5s109.667 52.5 225 52.5c-26.667 26.667 -63 51 -109 73zM298.999 399c-45.333 0 -73.666 -12.999 -84.999 -38.999
c-5.33301 -12.667 -8 -45.334 -8 -98.001c0 -52 2.66699 -84.333 8 -97c11.333 -26 39.666 -39 84.999 -39c39.333 0 63.833 8 73.5 24s14.5 53.333 14.5 112s-4.83301 96.167 -14.5 112.5s-34.167 24.5 -73.5 24.5z" />
    <glyph glyph-name="ntilde" unicode="&#xf1;" horiz-adv-x="619" 
d="M57 525h172v-98h7c12 39.333 31.333 67 58 83c22.667 14 55.667 21 99 21c112.667 0 169 -56 169 -168v-363h-172v323c0 26.667 -4.66699 45.667 -14 57c-11.333 12.667 -30.333 19 -57 19c-35.333 0 -60 -10.333 -74 -31c-10.667 -16 -16 -42.333 -16 -79v-289h-172v525
zM445 733l81.999 -41c-32.667 -66 -73.667 -99 -123 -99c-29.333 0 -62.166 11.333 -98.499 34s-60.166 34 -71.499 34c-24 0 -44 -15 -60 -45l-82 44c36.667 64 80 96 130 96c26 0 57.167 -11.5 93.5 -34.5s62.166 -34.5 77.499 -34.5c20 0 37.333 15.333 52 46z" />
    <glyph glyph-name="ograve" unicode="&#xf2;" horiz-adv-x="593" 
d="M296 531c108.667 0 179.667 -17.5 213 -52.5s50 -107.167 50 -216.5c0 -107.333 -17.167 -178.833 -51.5 -214.5s-104.833 -53.5 -211.5 -53.5c-105.333 0 -175.333 18.167 -210 54.5s-52 107.5 -52 213.5c0 108 17 179.833 51 215.5s104.333 53.5 211 53.5zM299 399
c-45.333 0 -73.666 -13 -84.999 -39c-5.33301 -12.667 -8 -45.334 -8 -98.001c0 -52 2.66699 -84.333 8 -97c11.333 -26 39.666 -39 84.999 -39c42.667 0 69.334 12.667 80.001 38c5.33301 12.667 8 45.334 8 98.001s-2.66699 85.667 -8 99
c-10.667 25.333 -37.334 38 -80.001 38zM328 612h-61l-166 122h133z" />
    <glyph glyph-name="oacute" unicode="&#xf3;" horiz-adv-x="593" 
d="M296 531c108.667 0 179.667 -17.5 213 -52.5s50 -107.167 50 -216.5c0 -107.333 -17.167 -178.833 -51.5 -214.5s-104.833 -53.5 -211.5 -53.5c-105.333 0 -175.333 18.167 -210 54.5s-52 107.5 -52 213.5c0 108 17 179.833 51 215.5s104.333 53.5 211 53.5zM299 399
c-45.333 0 -73.666 -13 -84.999 -39c-5.33301 -12.667 -8 -45.334 -8 -98.001c0 -52 2.66699 -84.333 8 -97c11.333 -26 39.666 -39 84.999 -39c42.667 0 69.334 12.667 80.001 38c5.33301 12.667 8 45.334 8 98.001s-2.66699 85.667 -8 99
c-10.667 25.333 -37.334 38 -80.001 38zM359 734h143l-176 -122h-61z" />
    <glyph glyph-name="ocircumflex" unicode="&#xf4;" horiz-adv-x="593" 
d="M296 531c108.667 0 179.667 -17.5 213 -52.5s50 -107.167 50 -216.5c0 -107.333 -17.167 -178.833 -51.5 -214.5s-104.833 -53.5 -211.5 -53.5c-105.333 0 -175.333 18.167 -210 54.5s-52 107.5 -52 213.5c0 108 17 179.833 51 215.5s104.333 53.5 211 53.5zM299 399
c-45.333 0 -73.666 -13 -84.999 -39c-5.33301 -12.667 -8 -45.334 -8 -98.001c0 -52 2.66699 -84.333 8 -97c11.333 -26 39.666 -39 84.999 -39c42.667 0 69.334 12.667 80.001 38c5.33301 12.667 8 45.334 8 98.001s-2.66699 85.667 -8 99
c-10.667 25.333 -37.334 38 -80.001 38zM297 716l152 -115l-30 -37l-123 55l-127 -55l-31 37z" />
    <glyph glyph-name="otilde" unicode="&#xf5;" horiz-adv-x="593" 
d="M296 531c108.667 0 179.667 -17.5 213 -52.5s50 -107.167 50 -216.5c0 -107.333 -17.167 -178.833 -51.5 -214.5s-104.833 -53.5 -211.5 -53.5c-105.333 0 -175.333 18.167 -210 54.5s-52 107.5 -52 213.5c0 108 17 179.833 51 215.5s104.333 53.5 211 53.5zM299 399
c-45.333 0 -73.666 -13 -84.999 -39c-5.33301 -12.667 -8 -45.334 -8 -98.001c0 -52 2.66699 -84.333 8 -97c11.333 -26 39.666 -39 84.999 -39c42.667 0 69.334 12.667 80.001 38c5.33301 12.667 8 45.334 8 98.001s-2.66699 85.667 -8 99
c-10.667 25.333 -37.334 38 -80.001 38zM410 716l54.998 -16.999c-39.333 -52.667 -77.333 -80.667 -114 -84c-22 -2 -45.667 4 -71 18c-22 16.667 -37.667 24.667 -47 24c-19.333 -1.33301 -37.666 -14.333 -54.999 -39l-55 20c42.667 51.333 82.667 78.333 120 81
c20 1.33301 41.667 -5 65 -19c22.667 -16.667 40.334 -24.667 53.001 -24c14.667 1.33301 31 14.666 49 39.999z" />
    <glyph glyph-name="odieresis" unicode="&#xf6;" horiz-adv-x="593" 
d="M296 531c109.333 0 180.5 -17 213.5 -51s49.5 -106.667 49.5 -218c0 -108.667 -16.833 -180.5 -50.5 -215.5s-104.5 -52.5 -212.5 -52.5c-106 0 -176.167 18 -210.5 54s-51.5 107.333 -51.5 214c0 108.667 16.667 180.667 50 216s104 53 212 53zM299 399
c-45.333 0 -73.666 -12.999 -84.999 -38.999c-5.33301 -12.667 -8 -45.334 -8 -98.001c0 -52 2.66699 -84.333 8 -97c11.333 -26 39.666 -39 84.999 -39c39.333 0 63.833 8 73.5 24s14.5 53.333 14.5 112s-4.83301 96.167 -14.5 112.5s-34.167 24.5 -73.5 24.5zM246 712.001
v-103h-109v103h109zM456 712.001v-103h-109v103h109z" />
    <glyph glyph-name="divide" unicode="&#xf7;" horiz-adv-x="600" 
d="M50 219v115h500v-115h-500zM357 28h-115v115h115v-115zM357 410h-115v115h115v-115z" />
    <glyph glyph-name="oslash" unicode="&#xf8;" horiz-adv-x="615" 
d="M398 285l-172 -124c10 -23.333 37 -35 81 -35c38 0 63 8.33301 75 25c10.667 14 16 43 16 87v47zM217 240l171.998 122c-5.33301 24.667 -32.666 37 -81.999 37c-33.333 0 -56.666 -5.16699 -69.999 -15.5s-20 -26.833 -20 -49.5v-94zM-2.00195 0v83l58 41
c-7.33301 39.333 -11 94.666 -11 165.999c0 98 19 163.333 57 196c34.667 30 103 45 205 45c56 0 97.333 -2.66699 124 -8c46 -9.33301 79.333 -28.333 100 -57l74 55v-85l-44 -32c6 -22 9 -59.667 9 -113c0 -121.333 -14.333 -199.666 -43 -234.999
c-32.667 -41.333 -106 -62 -220 -62c-54.667 0 -95 3 -121 9c-45.333 9.33301 -79 29 -101 59z" />
    <glyph glyph-name="ugrave" unicode="&#xf9;" horiz-adv-x="615" 
d="M555 0h-167.001l6 101h-8c-21.333 -71.333 -73.666 -107 -156.999 -107c-118.667 0 -178 57.333 -178 172v359h172v-313c0 -28.667 3.33301 -49 10 -61c9.33301 -16.667 27 -25 53 -25c25.333 0 47.333 6 66 18c20.667 14.667 31 34 31 58v323h172v-525zM335.999 578h-61
l-166 122h133z" />
    <glyph glyph-name="uacute" unicode="&#xfa;" horiz-adv-x="615" 
d="M555 0h-167.001l6 101h-8c-21.333 -71.333 -73.666 -107 -156.999 -107c-118.667 0 -178 57.333 -178 172v359h172v-313c0 -28.667 3.33301 -49 10 -61c9.33301 -16.667 27 -25 53 -25c25.333 0 47.333 6 66 18c20.667 14.667 31 34 31 58v323h172v-525zM358.999 700h143
l-176 -122h-61z" />
    <glyph glyph-name="ucircumflex" unicode="&#xfb;" horiz-adv-x="615" 
d="M555 0h-167.002l6 101h-8c-21.333 -71.333 -73.666 -107 -156.999 -107c-118.667 0 -178 57.333 -178 172v359h172v-313c0 -28.667 3.33301 -49 10 -61c8.66699 -16.667 26.334 -25 53.001 -25c25.333 0 47.833 6.66699 67.5 20s29.5 32 29.5 56v323h172v-525z
M305.998 756l183 -109l-25 -57l-158 62l-152 -62l-27 57z" />
    <glyph glyph-name="udieresis" unicode="&#xfc;" horiz-adv-x="615" 
d="M555 0h-167.002l6 101h-8c-21.333 -71.333 -73.666 -107 -156.999 -107c-118.667 0 -178 57.333 -178 172v359h172v-313c0 -28.667 3.33301 -49 10 -61c8.66699 -16.667 26.334 -25 53.001 -25c25.333 0 47.833 6.66699 67.5 20s29.5 32 29.5 56v323h172v-525z
M256.998 712v-103h-109v103h109zM466.998 712v-103h-109v103h109z" />
    <glyph glyph-name="yacute" unicode="&#xfd;" horiz-adv-x="533" 
d="M540 525l-132 -571c-16 -70 -40 -118.667 -72 -146s-83.333 -41 -154 -41c-5.33301 0 -25 1 -59 3v119c13.333 -1.33301 23.333 -2 30 -2c56 0 86 37.667 90 113h-94l-156 525h180l104 -427h2l85 427h176zM330 690h143l-176 -122h-61z" />
    <glyph glyph-name="thorn" unicode="&#xfe;" horiz-adv-x="618" 
d="M223 750l0.000976562 -306h6c15.333 58 64.666 87 147.999 87c132.667 0 199 -64.333 199 -193v-120c0 -80 -15.167 -137.333 -45.5 -172s-81.5 -52 -153.5 -52c-75.333 0 -124 28.333 -146 85h-8v-306h-172v977h172zM309.001 399c-36 0 -59.333 -8.83301 -70 -26.5
s-16 -54.5 -16 -110.5c0 -50 4.33301 -83.667 13 -101c12 -23.333 36.333 -35 73 -35c37.333 0 62 7.66699 74 23c14 18 21 55.667 21 113c0 56 -4.33301 91.667 -13 107c-12 20 -39.333 30 -82 30z" />
    <glyph glyph-name="ydieresis" unicode="&#xff;" horiz-adv-x="533" 
d="M540 525l-132 -571c-16 -70.667 -39.333 -119 -70 -145c-32.667 -28 -84.667 -42 -156 -42c0.666992 0 -19 1 -59 3v119c13.333 -1.33301 23.333 -2 30 -2c56 0 86 37.667 90 113h-94l-156 525h180l104 -427h2l85 427h176zM216 712v-103h-109v103h109zM426 712v-103h-109
v103h109z" />
    <glyph glyph-name="glyph271" unicode="&#x102;" horiz-adv-x="733" 
d="M502 129h-269l-37 -129h-208l225 750h304l228 -750h-204zM462 275l-93 325h-2l-91 -325h186zM166 900l109 15c8 -40 39 -60 93 -60c25.333 0 44 4 56 12c14.667 8.66699 24.334 24.667 29.001 48l109 -15c-4.66699 -42.667 -26.334 -72 -65.001 -88
c-27.333 -11.333 -70.333 -17 -129 -17c-126 0 -193.333 35 -202 105z" />
    <glyph glyph-name="glyph272" unicode="&#x103;" horiz-adv-x="609" 
d="M288 217c-50 0 -75 -18.333 -75 -55c0 -38 25 -57 75 -57c34 0 56 2.33301 66 7c18.667 8.66699 28 27.667 28 57c0 22.667 -11 37 -33 43c-10.667 3.33301 -31 5 -61 5zM382 0l6 77.999h-6c-10 -56 -60.333 -84 -151 -84c-65.333 0 -112 10.667 -140 32
c-33.333 24 -50 67.667 -50 131c0 61.333 17 105 51 131c29.333 22.667 75.666 34 138.999 34c38 0 65.667 -2.33301 83 -7c32 -8.66699 52 -26 60 -52h8v83c0 28.667 -3.66699 48 -11 58c-10.667 14.667 -33 22 -67 22c-46.667 0 -70 -19 -70 -57h-172
c0 72.667 25 120 75 142c30 13.333 85.667 20 167 20c94.667 0 158.334 -11.333 191.001 -34c39.333 -27.333 59 -83.666 59 -168.999v-328h-172zM122 671.999l98 14c6.66699 -36 34.667 -54 84 -54c44 0 69.333 18 76 54l98 -14c-4.66699 -40 -26 -67 -64 -81
c-24 -8.66699 -60.667 -13 -110 -13c-114 0 -174.667 31.333 -182 94z" />
    <glyph glyph-name="Cacute" unicode="&#x106;" horiz-adv-x="711" 
d="M489 284l205.999 0.000976562v-22c0 -52.667 -3 -91.334 -9 -116.001c-9.33301 -39.333 -29.166 -71.5 -59.499 -96.5s-67.833 -41.5 -112.5 -49.5c-25.333 -4 -67.333 -6 -126 -6c-124 0 -208.333 13 -253 39c-66.667 39.333 -100 121 -100 245v194
c0 115.333 31.333 193.666 94 234.999c49.333 32.667 135.666 49 258.999 49c114.667 0 191.334 -13 230.001 -39c50.667 -32.667 76 -101.667 76 -207v-29h-206v29c-3.33301 30.667 -16 51 -38 61c-16 7.33301 -44 11 -84 11c-54.667 0 -89.667 -10.333 -105 -31
c-13.333 -17.333 -20 -54.333 -20 -111v-117c0 -62 6 -101.667 18 -119c15.333 -24 51 -36 107 -36c46.667 0 77.667 4.66699 93 14c20 12.667 30 39.334 30 80.001v22zM455.999 1011l50 -111l-226 -71l-28 62z" />
    <glyph glyph-name="cacute" unicode="&#x107;" horiz-adv-x="441" 
d="M364 210l172.001 -0.00195312c0 -73.333 -10.667 -124.666 -32 -153.999c-24 -34 -69.667 -53.667 -137 -59c-22 -2 -50.333 -3 -85 -3c-100 0 -166.833 18.5 -200.5 55.5s-50.5 107.833 -50.5 212.5c0 96.667 15 163.667 45 201c36 45.333 104.667 68 206 68
c88 0 149.333 -10.333 184 -31c46.667 -29.333 70 -86.666 70 -171.999h-172c1.33301 30 -4.66699 49.667 -18 59c-10.667 8 -32 12 -64 12s-52.667 -7.66699 -62 -23c-11.333 -18 -17 -56 -17 -114c0 -60 4.83301 -97.667 14.5 -113s31.167 -23 64.5 -23
c37.333 0 60.666 6 69.999 18c8 9.33301 12 31.333 12 66zM257.001 755.998l50 -111l-226 -71l-28 62z" />
    <glyph glyph-name="Ccaron" unicode="&#x10c;" horiz-adv-x="711" 
d="M489 284l205.999 0.000976562v-22c0 -52.667 -3 -91.334 -9 -116.001c-9.33301 -39.333 -29.166 -71.5 -59.499 -96.5s-67.833 -41.5 -112.5 -49.5c-25.333 -4 -67.333 -6 -126 -6c-124 0 -208.333 13 -253 39c-66.667 39.333 -100 121 -100 245v194
c0 115.333 31.333 193.666 94 234.999c49.333 32.667 135.666 49 258.999 49c114.667 0 191.334 -13 230.001 -39c50.667 -32.667 76 -101.667 76 -207v-29h-206v29c-3.33301 30.667 -16 51 -38 61c-16 7.33301 -44 11 -84 11c-54.667 0 -89.667 -10.333 -105 -31
c-13.333 -17.333 -20 -54.333 -20 -111v-117c0 -62 6 -101.667 18 -119c15.333 -24 51 -36 107 -36c46.667 0 77.667 4.66699 93 14c20 12.667 30 39.334 30 80.001v22zM430.999 845.001l-179 109l27 57l152 -62l158 62l25 -57z" />
    <glyph glyph-name="ccaron" unicode="&#x10d;" horiz-adv-x="441" 
d="M364 210l172.001 -0.00195312c0 -73.333 -10.667 -124.666 -32 -153.999c-24 -34 -69.667 -53.667 -137 -59c-22 -2 -50.333 -3 -85 -3c-100 0 -166.833 18.5 -200.5 55.5s-50.5 107.833 -50.5 212.5c0 96.667 15 163.667 45 201c36 45.333 104.667 68 206 68
c88 0 149.333 -10.333 184 -31c46.667 -29.333 70 -86.666 70 -171.999h-172c1.33301 30 -4.66699 49.667 -18 59c-10.667 8 -32 12 -64 12s-52.667 -7.66699 -62 -23c-11.333 -18 -17 -56 -17 -114c0 -60 4.83301 -97.667 14.5 -113s31.167 -23 64.5 -23
c37.333 0 60.666 6 69.999 18c8 9.33301 12 31.333 12 66zM232.001 589.998l-179 109l27 57l152 -62l158 62l25 -57z" />
    <glyph glyph-name="Dslash" unicode="&#x110;" horiz-adv-x="775" 
d="M52 453v297.001h380c106 0 182.833 -22.333 230.5 -67s71.5 -119.334 71.5 -224.001v-157c0 -104.667 -19.333 -180 -58 -226c-42 -50.667 -114.333 -76 -217 -76h-407v314h-84v139h84zM252 576.001v-123h112v-139h-112v-140h175c67.333 0 101 42.667 101 128v157
c0 42.667 -6.33301 72 -19 88c-14.667 19.333 -42 29 -82 29h-175z" />
    <glyph glyph-name="dcroat" unicode="&#x111;" horiz-adv-x="612" 
d="M205 262c0 -61.333 5.66699 -100.001 17 -116.001c9.33301 -13.333 33 -20 71 -20c42 0 69.333 12.667 82 38c7.33301 15.333 11 48 11 98c0 56.667 -4 92.334 -12 107.001c-10.667 20 -37.667 30 -81 30c-40.667 0 -66 -9.66699 -76 -29
c-8 -15.333 -12 -51.333 -12 -108zM558 694.999l42.998 -0.000976562v-116h-43v-579h-172l4 91h-8c-9.33301 -36.667 -27.666 -62.667 -54.999 -78c-22 -12.667 -53.667 -19 -95 -19c-132.667 0 -199 64.333 -199 193v120c0 76.667 13.667 132.334 41 167.001
c30.667 38 83.334 57 158.001 57c75.333 0 124 -27 146 -81h8v129h-155v116h155v62h172v-62z" />
    <glyph glyph-name="Gbreve" unicode="&#x11e;" horiz-adv-x="767" 
d="M720 517h-202.999c-2 33.333 -16.333 55.333 -43 66c-16 6 -44.667 9 -86 9c-67.333 0 -110.333 -12.333 -129 -37c-14 -18.667 -21 -61.334 -21 -128.001v-122c0 -62.667 12 -103.667 36 -123c19.333 -16 57.333 -24 114 -24c51.333 0 85.666 8.33301 102.999 25
s26 50.667 26 102h-138v139h341v-131c0 -124.667 -21.333 -205.667 -64 -243s-132 -56 -268 -56c-128 0 -216.667 16.667 -266 50c-60 40.667 -90 118.334 -90 233.001v194c0 115.333 32 194 96 236c50 32.667 136.667 49 260 49c120 0 199.667 -10 239 -30
c62 -32 93 -101.667 93 -209zM271.001 988h94c10 -50 38 -75 84 -75c46.667 0 74.667 25 84 75h94c-5.33301 -47.333 -24.333 -85.833 -57 -115.5s-73 -44.5 -121 -44.5c-46 0 -85.833 15.167 -119.5 45.5s-53.167 68.5 -58.5 114.5z" />
    <glyph glyph-name="gbreve" unicode="&#x11f;" horiz-adv-x="492" 
d="M295 132c39.333 0 65 10.333 77 31c9.33301 16.667 14 49.667 14 99c0 58 -5.83301 95.333 -17.5 112s-36.167 25 -73.5 25c-39.333 0 -63.833 -7.5 -73.5 -22.5s-14.5 -53.167 -14.5 -114.5c0 -54 5.5 -89.167 16.5 -105.5s34.833 -24.5 71.5 -24.5zM56 -47h163
c0 -25.333 7 -42.333 21 -51c10.667 -6.66699 29.334 -10 56.001 -10c37.333 0 61.666 5.16699 72.999 15.5s17 33.5 17 69.5v109h-6c-19.333 -57.333 -67 -86 -143 -86c-84.667 0 -141.667 25 -171 75c-20.667 36 -31 98.333 -31 187c0 96 11 162 33 198
c28.667 47.333 85 71 169 71c40.667 0 72 -6.33301 94 -19c26.667 -15.333 45 -42 55 -80h6l-6 93h172v-502c0 -98.667 -17.667 -166 -53 -202s-103 -54 -203 -54c-97.333 0 -160.666 10.333 -189.999 31c-34.667 23.333 -53.334 75 -56.001 155zM71 733h94
c10 -50 38 -75 84 -75c46.667 0 74.667 25 84 75h94c-5.33301 -47.333 -24.333 -85.833 -57 -115.5s-73 -44.5 -121 -44.5c-46 0 -85.833 15.167 -119.5 45.5s-53.167 68.5 -58.5 114.5z" />
    <glyph glyph-name="glyph273" unicode="&#x128;" horiz-adv-x="324" 
d="M262 750v-750h-200v750h200zM288 930l60.999 -18.999c-44 -58 -86.333 -89 -127 -93c-24 -2 -50.333 4.66699 -79 20c-23.333 18 -40.666 26.667 -51.999 26c-21.333 -2 -41.666 -16.333 -60.999 -43l-61 22c48.667 56.667 93 86.667 133 90c22 2 46.333 -5 73 -21
c25.333 -18.667 44.666 -27.334 57.999 -26.001c18 1.33301 36.333 16 55 44z" />
    <glyph glyph-name="glyph274" unicode="&#x129;" horiz-adv-x="257" 
d="M215 525v-525h-172v525h172zM243 701l54.998 -16.999c-39.333 -52.667 -77.333 -80.667 -114 -84c-22 -2 -45.667 4 -71 18c-22 16.667 -37.667 24.667 -47 24c-19.333 -1.33301 -37.666 -14.333 -54.999 -39l-55 20c42.667 51.333 82.667 78.333 120 81
c20 1.33301 41.667 -5 65 -19c22.667 -16.667 40.334 -24.667 53.001 -24c14.667 1.33301 31 14.666 49 39.999z" />
    <glyph glyph-name="Idotaccent" unicode="&#x130;" horiz-adv-x="429" 
d="M262 750v-750h-200v750h200zM211 967v-103h-109v103h109z" />
    <glyph glyph-name="dotlessi" unicode="&#x131;" horiz-adv-x="257" 
d="M215 525v-525h-172v525h172z" />
    <glyph glyph-name="Lslash" unicode="&#x141;" horiz-adv-x="596" 
d="M270 445v-271h315v-174h-515v306l-73 -61v142l73 60v303h200v-167l127 106v-139z" />
    <glyph glyph-name="lslash" unicode="&#x142;" horiz-adv-x="312" 
d="M243 437v-437h-172v335l-71 -50v92l71 51v322h172v-218l69 51v-95z" />
    <glyph glyph-name="OE" unicode="&#x152;" horiz-adv-x="1101" 
d="M535 0l7 83h-7c-20 -33.333 -45 -57 -75 -71c-26 -12 -60 -18 -102 -18c-117.333 0 -198.333 19.333 -243 58c-50 42 -75 120.333 -75 235v141c0 116 17.667 197.667 53 245c42 55.333 119.333 83 232 83c116.667 0 186.667 -32 210 -96h7l-7 90h526v-164h-340v-139h318
v-139h-318v-144h347v-164h-533zM531 312v144.999c0 57.333 -12 95 -36 113c-20.667 14.667 -62 22 -124 22c-53.333 0 -88.5 -9.16699 -105.5 -27.5s-25.5 -54.166 -25.5 -107.499v-145c0 -64.667 8.16699 -106.5 24.5 -125.5s51.833 -28.5 106.5 -28.5
c69.333 0 114.333 11.667 135 35c16.667 19.333 25 59 25 119z" />
    <glyph glyph-name="oe" unicode="&#x153;" horiz-adv-x="920" 
d="M545 328h169.001c0 37.333 -6.83301 63 -20.5 77s-35.834 21 -66.501 21c-30 0 -50.833 -7.5 -62.5 -22.5s-18.167 -40.167 -19.5 -75.5zM373.001 262c0 60.667 -3.66797 98 -11.001 112c-9.33301 16.667 -33.666 25 -72.999 25c-38.667 0 -62.5 -7.83301 -71.5 -23.5
s-13.5 -53.5 -13.5 -113.5c0 -59.333 5.16699 -96.833 15.5 -112.5s33.5 -23.5 69.5 -23.5c37.333 0 61 9.33301 71 28c8.66699 15.333 13 51.333 13 108zM278 531c100 0 160.665 -23.332 181.998 -69.999h4c12 30.667 36.333 51 73 61c20.667 6 51.667 9 93 9
c99.333 0 166.833 -18.333 202.5 -55s53.5 -108 53.5 -214v-29h-341c0 -47.333 5.5 -79 16.5 -95s33.833 -24 68.5 -24c30.667 0 51.667 3.33301 63 10c16 8.66699 24 25.667 24 51h169c0 -56.667 -13.167 -98.5 -39.5 -125.5s-67.166 -43.833 -122.499 -50.5
c-24.667 -3.33301 -56 -5 -94 -5c-44 0 -76.667 3.33301 -98 10c-35.333 11.333 -58 33.666 -68 66.999h-6c-18 -33.333 -41 -55 -69 -65c-21.333 -8 -58.333 -12 -111 -12c-102 0 -169.333 19.333 -202 58c-29.333 34.667 -44 104.667 -44 210s14.333 175.333 43 210
c32.667 39.333 100.334 59 203.001 59z" />
    <glyph glyph-name="Scedilla" unicode="&#x15e;" horiz-adv-x="656" 
d="M320 462l83.002 -5.99805c114 -8 188 -24.667 222 -50c36.667 -26.667 55 -82 55 -166c0 -56 -3.66699 -95.667 -11 -119c-12.667 -40.667 -40.334 -71 -83.001 -91c-51.333 -24 -128.333 -36 -231 -36c-115.333 0 -192.333 11 -231 33
c-58 33.333 -87 105.666 -87 216.999h192c0 -37.333 8.66699 -61.333 26 -72c15.333 -9.33301 48.666 -14 99.999 -14c50 0 82.667 3.66699 98 11c18 8.66699 27 28 27 58c0 31.333 -5.16699 50 -15.5 56s-40.166 10.667 -89.499 14l-44 3c-80 5.33301 -132.667 11 -158 17
c-46.667 10 -80 29.333 -100 58c-23.333 33.333 -35 84 -35 152c0 98.667 28.333 163.667 85 195c40.667 22.667 118 34 232 34c104 0 175.333 -9 214 -27c60 -29.333 90 -90.333 90 -183v-31h-192c0 35.333 -8.66699 57.666 -26 66.999c-12 6.66699 -40.667 10 -86 10
c-50 0 -83 -5.33301 -99 -16c-12 -8.66699 -18 -24.667 -18 -48c0 -27.333 7 -45.333 21 -54c9.33301 -6 29.666 -10 60.999 -12zM242.002 -40.998l44 -82l-144 -52l-28 52z" />
    <glyph glyph-name="scedilla" unicode="&#x15f;" horiz-adv-x="383" 
d="M521 376l-161.999 0.00390625c-4 29.333 -27.333 44 -70 44c-42 0 -68.333 -3 -79 -9c-7.33301 -4.66699 -11 -15.667 -11 -33c0 -16 4 -26.667 12 -32c12 -8.66699 38 -13.334 78 -14.001c99.333 -2 164.333 -11 195 -27c41.333 -20.667 62 -65.334 62 -134.001
c0 -70 -25.667 -118.667 -77 -146c-38.667 -20.667 -98.667 -31 -180 -31c-89.333 0 -149 6.66699 -179 20c-52 22.667 -78 72.667 -78 150h172c0 -26 9 -43.333 27 -52c10.667 -4.66699 30 -7 58 -7c39.333 0 64.166 2.66699 74.499 8s15.5 18 15.5 38
c0 24 -7.33301 39.333 -22 46c-10 4 -32.667 6 -68 6c-104 0 -174 12.667 -210 38c-31.333 21.333 -47 60.666 -47 117.999c0 76 24.667 125.667 74 149c31.333 15.333 92.333 23 183 23c70 0 120.667 -5.66699 152 -17c53.333 -18.667 80 -56.334 80 -113.001v-25z
M145.001 -40.9961l44 -82l-144 -52l-28 52z" />
    <glyph glyph-name="Scaron" unicode="&#x160;" horiz-adv-x="716" 
d="M320 462l83.002 -5.99805c114 -8 188 -24.667 222 -50c36.667 -26.667 55 -82 55 -166c0 -56 -3.66699 -95.667 -11 -119c-12.667 -40.667 -40.334 -71 -83.001 -91c-51.333 -24 -128.333 -36 -231 -36c-115.333 0 -192.333 11 -231 33
c-58 33.333 -87 105.666 -87 216.999h192c0 -37.333 8.66699 -61.333 26 -72c15.333 -9.33301 48.666 -14 99.999 -14c50 0 82.667 3.66699 98 11c18 8.66699 27 28 27 58c0 31.333 -5.16699 50 -15.5 56s-40.166 10.667 -89.499 14l-44 3c-80 5.33301 -132.667 11 -158 17
c-46.667 10 -80 29.333 -100 58c-23.333 33.333 -35 84 -35 152c0 98.667 28.333 163.667 85 195c40.667 22.667 118 34 232 34c104 0 175.333 -9 214 -27c60 -29.333 90 -90.333 90 -183v-31h-192c0 35.333 -8.66699 57.666 -26 66.999c-12 6.66699 -40.667 10 -86 10
c-50 0 -83 -5.33301 -99 -16c-12 -8.66699 -18 -24.667 -18 -48c0 -27.333 7 -45.333 21 -54c9.33301 -6 29.666 -10 60.999 -12zM356.002 815.002l-179 109l27 57l152 -62l158 62l25 -57z" />
    <glyph glyph-name="scaron" unicode="&#x161;" horiz-adv-x="578" 
d="M521 376l-161.999 0.00390625c-4 29.333 -27.333 44 -70 44c-42 0 -68.333 -3 -79 -9c-7.33301 -4.66699 -11 -15.667 -11 -33c0 -16 4 -26.667 12 -32c12 -8.66699 38 -13.334 78 -14.001c99.333 -2 164.333 -11 195 -27c41.333 -20.667 62 -65.334 62 -134.001
c0 -70 -25.667 -118.667 -77 -146c-38.667 -20.667 -98.667 -31 -180 -31c-89.333 0 -149 6.66699 -179 20c-52 22.667 -78 72.667 -78 150h172c0 -26 9 -43.333 27 -52c10.667 -4.66699 30 -7 58 -7c39.333 0 64.166 2.66699 74.499 8s15.5 18 15.5 38
c0 24 -7.33301 39.333 -22 46c-10 4 -32.667 6 -68 6c-104 0 -174 12.667 -210 38c-31.333 21.333 -47 60.666 -47 117.999c0 76 24.667 125.667 74 149c31.333 15.333 92.333 23 183 23c70 0 120.667 -5.66699 152 -17c53.333 -18.667 80 -56.334 80 -113.001v-25z
M287.001 590.004l-179 109l27 57l152 -62l158 62l25 -57z" />
    <glyph glyph-name="ch903" unicode="&#x168;" horiz-adv-x="771" 
d="M509 750h200.001v-500c0 -101.333 -28 -171.333 -84 -210c-45.333 -30.667 -122 -46 -230 -46c-78 0 -136.667 4.66699 -176 14c-71.333 16 -117 48 -137 96c-12.667 30 -19 78.667 -19 146v500h200v-496c0 -38.667 11.667 -63.667 35 -75
c15.333 -7.33301 47.666 -11 96.999 -11c45.333 0 75 5 89 15c16.667 12 25 38.667 25 80v487zM513.001 910l60.999 -18.999c-44 -58 -86.333 -89 -127 -93c-24 -2 -50.333 4.66699 -79 20c-23.333 18 -40.666 26.667 -51.999 26c-21.333 -2 -41.666 -16.333 -60.999 -43
l-61 22c48.667 56.667 93 86.667 133 90c22 2 46.333 -5 73 -21c25.333 -18.667 44.666 -27.334 57.999 -26.001c18 1.33301 36.333 16 55 44z" />
    <glyph glyph-name="ch904" unicode="&#x169;" horiz-adv-x="615" 
d="M555 0h-167.001l6 101h-8c-21.333 -71.333 -73.666 -107 -156.999 -107c-118.667 0 -178 57.333 -178 172v359h172v-313c0 -28.667 3.33301 -49 10 -61c9.33301 -16.667 27 -25 53 -25c25.333 0 47.333 6 66 18c20.667 14.667 31 34 31 58v323h172v-525zM417.999 687
l54.998 -16.999c-39.333 -52.667 -77.333 -80.667 -114 -84c-22 -2 -45.667 4 -71 18c-22 16.667 -37.667 24.667 -47 24c-19.333 -1.33301 -37.666 -14.333 -54.999 -39l-55 20c42.667 51.333 82.667 78.333 120 81c20 1.33301 41.667 -5 65 -19
c22.667 -16.667 40.334 -24.667 53.001 -24c14.667 1.33301 31 14.666 49 39.999z" />
    <glyph glyph-name="Ydieresis" unicode="&#x178;" horiz-adv-x="708" 
d="M724 750l-274 -487v-263h-200v263l-266 487h229l134 -289h7l138 289h232zM304 937v-103h-109v103h109zM514 937v-103h-109v103h109z" />
    <glyph glyph-name="Zcaron" unicode="&#x17d;" horiz-adv-x="659" 
d="M636 750v-168l-359 -408h359v-174h-613v169l354 407h-331v174h590zM328 815l-179 109l27 57l152 -62l158 62l25 -57z" />
    <glyph glyph-name="zcaron" unicode="&#x17e;" horiz-adv-x="496" 
d="M40 525h435v-136l-254 -269h254v-120h-454v142l248 263h-229v120zM246 590l-179 109l27 57l152 -62l158 62l25 -57z" />
    <glyph glyph-name="florin" unicode="&#x192;" 
d="M596 489l-22.001 -126.001h-102l-69 -390c-12.667 -72 -26 -119.667 -40 -143c-16.667 -28.667 -46 -46.667 -88 -54c-31.333 -6 -97.333 -9 -198 -9l22 131c28.667 -3.33301 45.667 -5 51 -5c26 0 44.667 8.33301 56 25c6.66699 10.667 12.667 31 18 61l68 384h-76
l22 126h75l11 59c13.333 70 29.5 119 48.5 147s49.5 45.667 91.5 53c29.333 5.33301 89 8 179 8l-22 -131c-14.667 3.33301 -28 5 -40 5c-25.333 0 -42.666 -5 -51.999 -15c-11.333 -11.333 -20 -35.666 -26 -72.999l-9 -53h102z" />
    <glyph glyph-name="glyph277" unicode="&#x1a0;" horiz-adv-x="760" 
d="M380 166c55.333 0 92.001 6.66895 110.001 20.002c20.667 15.333 31 49.666 31 102.999v169c0 53.333 -10.333 87.666 -31 102.999c-16.667 12.667 -53.334 19 -110.001 19c-56 0 -92.333 -6.33301 -109 -19c-21.333 -16 -32 -50.333 -32 -103v-169
c0 -53.333 10.667 -88 32 -104c16.667 -12.667 53 -19 109 -19zM604.001 717.002c39.333 5.33301 59 17 59 35c0 8.66699 -4.66699 14.334 -14 17.001c-2 13.333 2 25.166 12 35.499s21.667 15.5 35 15.5c26 0 39 -12.333 39 -37c0 -47.333 -29.667 -78 -89 -92
c54 -43.333 81 -114 81 -212v-212c0 -107.333 -32.667 -182 -98 -224c-52.667 -34 -135.667 -51 -249 -51s-196.333 17 -249 51c-65.333 42 -98 116.667 -98 224v212c0 107.333 32.667 182 98 224c52.667 34 135.667 51 249 51c99.333 0 174 -12.333 224 -37z" />
    <glyph glyph-name="glyph278" unicode="&#x1a1;" horiz-adv-x="593" 
d="M299 399c-45.333 0 -73.666 -13 -84.999 -39c-5.33301 -12.667 -8 -45.334 -8 -98.001c0 -52 2.66699 -84.333 8 -97c11.333 -26 39.666 -39 84.999 -39c42.667 0 69.334 12.667 80.001 38c5.33301 12.667 8 45.334 8 98.001s-2.66699 85.667 -8 99
c-10.667 25.333 -37.334 38 -80.001 38zM437 518l68 -0.000976562c3.33301 0 6.83301 2.5 10.5 7.5s5.5 9.16699 5.5 12.5c0 8.66699 -4.33301 14 -13 16c-2 11.333 1.5 21.833 10.5 31.5s19.5 14.5 31.5 14.5c24 0 36 -11.333 36 -34c0 -39.333 -26 -67.666 -78 -84.999
c34 -33.333 51 -106.333 51 -219c0 -107.333 -17.167 -178.833 -51.5 -214.5s-104.833 -53.5 -211.5 -53.5c-105.333 0 -175.333 18.167 -210 54.5s-52 107.5 -52 213.5c0 108 17 179.833 51 215.5s104.333 53.5 211 53.5c62.667 0 109.667 -4.33301 141 -13z" />
    <glyph glyph-name="glyph279" unicode="&#x1af;" horiz-adv-x="771" 
d="M709 687l0.00195312 -437c0 -101.333 -28 -171.333 -84 -210c-45.333 -30.667 -122 -46 -230 -46c-78 0 -136.667 4.66699 -176 14c-71.333 16 -117 48 -137 96c-12.667 30 -19 78.667 -19 146v500h200v-496c0 -38.667 11.667 -63.667 35 -75
c15.333 -7.33301 47.666 -11 96.999 -11c45.333 0 75 5 89 15c16.667 12 25 38.667 25 80v487l155 -10l45 -13c12 6 18 14.333 18 25c0 8.66699 -4.66699 14.334 -14 17.001c-2 13.333 2 25.166 12 35.499s21.667 15.5 35 15.5c26 0 39 -12.333 39 -37
c0 -23.333 -8.83301 -43.5 -26.5 -60.5s-38.834 -28.833 -63.501 -35.5z" />
    <glyph glyph-name="glyph280" unicode="&#x1b0;" horiz-adv-x="615" 
d="M555 480l-0.000976562 -480h-167l6 101h-8c-21.333 -71.333 -73.666 -107 -156.999 -107c-118.667 0 -178 57.333 -178 172v359h172v-313c0 -28.667 3.33301 -49 10 -61c9.33301 -16.667 27 -25 53 -25c25.333 0 47.333 6 66 18c20.667 14.667 31 34 31 58v323l172 -7
c2.66699 0 6 2.5 10 7.5s6 9.16699 6 12.5c0 8.66699 -4.33301 14 -13 16c-2 11.333 1.5 21.833 10.5 31.5s19.5 14.5 31.5 14.5c24 0 36 -11.333 36 -34c0 -41.333 -27 -70 -81 -86z" />
    <glyph glyph-name="circumflex" unicode="&#x2c6;" horiz-adv-x="512" 
d="M254 756l183 -109l-25 -57l-158 62l-152 -62l-27 57z" />
    <glyph glyph-name="caron" unicode="&#x2c7;" horiz-adv-x="512" 
d="M254 590l-179 109l27 57l152 -62l158 62l25 -57z" />
    <glyph glyph-name="breve" unicode="&#x2d8;" horiz-adv-x="506" 
d="M75 733h94c10 -50 38 -75 84 -75c46.667 0 74.667 25 84 75h94c-5.33301 -47.333 -24.333 -85.833 -57 -115.5s-73 -44.5 -121 -44.5c-46 0 -85.833 15.167 -119.5 45.5s-53.167 68.5 -58.5 114.5z" />
    <glyph glyph-name="dotaccent" unicode="&#x2d9;" horiz-adv-x="259" 
d="M184 712v-103h-109v103h109z" />
    <glyph glyph-name="ring" unicode="&#x2da;" horiz-adv-x="345" 
d="M75 664c0 26.667 9.5 49.5 28.5 68.5s42.167 28.5 69.5 28.5c26.667 0 49.5 -9.5 68.5 -28.5s28.5 -41.833 28.5 -68.5s-9.5 -49.667 -28.5 -69s-41.833 -29 -68.5 -29s-49.667 9.66699 -69 29s-29 42.333 -29 69zM127 664c0 -12.667 4.33301 -23.499 13 -32.499
s19.334 -13.5 32.001 -13.5c12 0 22.667 4.5 32 13.5s14 19.833 14 32.5c0 12 -4.66699 22.5 -14 31.5s-20 13.5 -32 13.5c-12.667 0 -23.334 -4.33301 -32.001 -13s-13 -19.334 -13 -32.001z" />
    <glyph glyph-name="ogonek" unicode="&#x2db;" horiz-adv-x="314" 
d="M147 0h91c-56 -33.333 -84 -61.333 -84 -84c0 -19.333 12.667 -29 38 -29c12 0 27 3 45 9v-76c-15.333 -7.33301 -34 -11 -56 -11c-29.333 0 -54.333 8 -75 24s-31 38.667 -31 68c0 41.333 24 74.333 72 99z" />
    <glyph glyph-name="tilde" unicode="&#x2dc;" horiz-adv-x="585" 
d="M428 733l81.999 -41c-32.667 -66 -73.667 -99 -123 -99c-29.333 0 -62.166 11.333 -98.499 34s-60.166 34 -71.499 34c-24 0 -44 -15 -60 -45l-82 44c36.667 64 80 96 130 96c26 0 57.167 -11.5 93.5 -34.5s62.166 -34.5 77.499 -34.5c20 0 37.333 15.333 52 46z" />
    <glyph glyph-name="hungarumlaut" unicode="&#x2dd;" horiz-adv-x="595" 
d="M219 802l82 -83l-180 -139l-46 47zM438 802l82 -83l-180 -139l-46 47z" />
    <glyph glyph-name="glyph281" unicode="&#x1ea0;" horiz-adv-x="733" 
d="M502 129h-269l-37 -129h-208l225 750h304l228 -750h-204zM462 275l-93 325h-2l-91 -325h186zM451 -40v-108h-158v108l76 10z" />
    <glyph glyph-name="glyph282" unicode="&#x1ea1;" horiz-adv-x="609" 
d="M288 217c-50 0 -75 -18.333 -75 -55c0 -38 25 -57 75 -57c34 0 56 2.33301 66 7c18.667 8.66699 28 27.667 28 57c0 22.667 -11 37 -33 43c-10.667 3.33301 -31 5 -61 5zM382 0l6 77.999h-6c-10 -56 -60.333 -84 -151 -84c-65.333 0 -112 10.667 -140 32
c-33.333 24 -50 67.667 -50 131c0 61.333 17 105 51 131c29.333 22.667 75.666 34 138.999 34c38 0 65.667 -2.33301 83 -7c32 -8.66699 52 -26 60 -52h8v83c0 28.667 -3.66699 48 -11 58c-10.667 14.667 -33 22 -67 22c-46.667 0 -70 -19 -70 -57h-172
c0 72.667 25 120 75 142c30 13.333 85.667 20 167 20c94.667 0 158.334 -11.333 191.001 -34c39.333 -27.333 59 -83.666 59 -168.999v-328h-172zM379 -59.001v-97h-142v97l68 9z" />
    <glyph glyph-name="glyph283" unicode="&#x1ea2;" horiz-adv-x="733" 
d="M502 129h-269l-37 -129h-208l225 750h304l228 -750h-204zM462 275l-93 325h-2l-91 -325h186zM401 840l-34 -30l-32 30v10c0 24.667 13.333 43.667 40 57l10 5c8 4 12 12 12 24c0 17.333 -9.66699 26 -29 26c-18.667 0 -28 -8.33301 -28 -25v-16h-46v16
c0 26 7.33301 44 22 54c12 8.66699 31.667 13 59 13c58 0 87 -22 87 -66c0 -28 -16 -49 -48 -63c-8.66699 -4 -13 -12.333 -13 -25v-10z" />
    <glyph glyph-name="glyph284" unicode="&#x1ea3;" horiz-adv-x="609" 
d="M288 217c-50 0 -75 -18.333 -75 -55c0 -38 25 -57 75 -57c34 0 56 2.33301 66 7c18.667 8.66699 28 27.667 28 57c0 22.667 -11 37 -33 43c-10.667 3.33301 -31 5 -61 5zM382 0l6 77.999h-6c-10 -56 -60.333 -84 -151 -84c-65.333 0 -112 10.667 -140 32
c-33.333 24 -50 67.667 -50 131c0 61.333 17 105 51 131c29.333 22.667 75.666 34 138.999 34c38 0 65.667 -2.33301 83 -7c32 -8.66699 52 -26 60 -52h8v83c0 28.667 -3.66699 48 -11 58c-10.667 14.667 -33 22 -67 22c-46.667 0 -70 -19 -70 -57h-172
c0 72.667 25 120 75 142c30 13.333 85.667 20 167 20c94.667 0 158.334 -11.333 191.001 -34c39.333 -27.333 59 -83.666 59 -168.999v-328h-172zM338 631.999l-34 -30l-32 30v10c0 24.667 13.333 43.667 40 57l10 5c8 4 12 12 12 24c0 17.333 -9.66699 26 -29 26
c-18.667 0 -28 -8.33301 -28 -25v-16h-46v16c0 26 7.33301 44 22 54c12 8.66699 31.667 13 59 13c58 0 87 -22 87 -66c0 -28 -16 -49 -48 -63c-8.66699 -4 -13 -12.333 -13 -25v-10z" />
    <glyph glyph-name="glyph285" unicode="&#x1ea4;" horiz-adv-x="733" 
d="M502 129h-269l-37 -129h-208l225 750h304l228 -750h-204zM462 275l-93 325h-2l-91 -325h186zM368 949l169 -128l-33 -41l-137 61l-141 -61l-35 41zM631 998h159l-196 -136h-67z" />
    <glyph glyph-name="glyph286" unicode="&#x1ea5;" horiz-adv-x="609" 
d="M288 217c-50 0 -75 -18.333 -75 -55c0 -38 25 -57 75 -57c34 0 56 2.33301 66 7c18.667 8.66699 28 27.667 28 57c0 22.667 -11 37 -33 43c-10.667 3.33301 -31 5 -61 5zM382 0l6 77.999h-6c-10 -56 -60.333 -84 -151 -84c-65.333 0 -112 10.667 -140 32
c-33.333 24 -50 67.667 -50 131c0 61.333 17 105 51 131c29.333 22.667 75.666 34 138.999 34c38 0 65.667 -2.33301 83 -7c32 -8.66699 52 -26 60 -52h8v83c0 28.667 -3.66699 48 -11 58c-10.667 14.667 -33 22 -67 22c-46.667 0 -70 -19 -70 -57h-172
c0 72.667 25 120 75 142c30 13.333 85.667 20 167 20c94.667 0 158.334 -11.333 191.001 -34c39.333 -27.333 59 -83.666 59 -168.999v-328h-172zM305 716.999l152 -115l-29 -37l-124 55l-126 -55l-32 37zM542 760.999h143l-176 -122h-61z" />
    <glyph glyph-name="glyph287" unicode="&#x1ea6;" horiz-adv-x="733" 
d="M502 129h-269l-37 -129h-208l225 750h304l228 -750h-204zM462 275l-93 325h-2l-91 -325h186zM368 949l169 -128l-33 -41l-137 61l-141 -61l-35 41zM201 861h-67l-196 136h159z" />
    <glyph glyph-name="glyph288" unicode="&#x1ea7;" horiz-adv-x="609" 
d="M288 217c-50 0 -75 -18.333 -75 -55c0 -38 25 -57 75 -57c34 0 56 2.33301 66 7c18.667 8.66699 28 27.667 28 57c0 22.667 -11 37 -33 43c-10.667 3.33301 -31 5 -61 5zM382 0l6 77.999h-6c-10 -56 -60.333 -84 -151 -84c-65.333 0 -112 10.667 -140 32
c-33.333 24 -50 67.667 -50 131c0 61.333 17 105 51 131c29.333 22.667 75.666 34 138.999 34c38 0 65.667 -2.33301 83 -7c32 -8.66699 52 -26 60 -52h8v83c0 28.667 -3.66699 48 -11 58c-10.667 14.667 -33 22 -67 22c-46.667 0 -70 -19 -70 -57h-172
c0 72.667 25 120 75 142c30 13.333 85.667 20 167 20c94.667 0 158.334 -11.333 191.001 -34c39.333 -27.333 59 -83.666 59 -168.999v-328h-172zM304 716.999l152 -115l-30 -37l-123 55l-127 -55l-31 37zM174 647.999h-61l-166 122h133z" />
    <glyph glyph-name="glyph289" unicode="&#x1ea8;" horiz-adv-x="733" 
d="M502 129h-269l-37 -129h-208l225 750h304l228 -750h-204zM462 275l-93 325h-2l-91 -325h186zM368 949l169 -128l-33 -41l-137 61l-141 -61l-35 41zM593 891l-34 -30l-32 30v10c0 24.667 13.333 43.667 40 57l10 5c8 4 12 12 12 24c0 17.333 -9.66699 26 -29 26
c-18.667 0 -28 -8.33301 -28 -25v-16h-46v16c0 26 7.33301 44 22 54c12 8.66699 31.667 13 59 13c58 0 87 -22 87 -66c0 -28 -16 -49 -48 -63c-8.66699 -4 -13 -12.333 -13 -25v-10z" />
    <glyph glyph-name="glyph290" unicode="&#x1ea9;" horiz-adv-x="609" 
d="M288 217c-50 0 -75 -18.333 -75 -55c0 -38 25 -57 75 -57c34 0 56 2.33301 66 7c18.667 8.66699 28 27.667 28 57c0 22.667 -11 37 -33 43c-10.667 3.33301 -31 5 -61 5zM382 0l6 77.999h-6c-10 -56 -60.333 -84 -151 -84c-65.333 0 -112 10.667 -140 32
c-33.333 24 -50 67.667 -50 131c0 61.333 17 105 51 131c29.333 22.667 75.666 34 138.999 34c38 0 65.667 -2.33301 83 -7c32 -8.66699 52 -26 60 -52h8v83c0 28.667 -3.66699 48 -11 58c-10.667 14.667 -33 22 -67 22c-46.667 0 -70 -19 -70 -57h-172
c0 72.667 25 120 75 142c30 13.333 85.667 20 167 20c94.667 0 158.334 -11.333 191.001 -34c39.333 -27.333 59 -83.666 59 -168.999v-328h-172zM304 716.999l152 -115l-30 -37l-123 55l-127 -55l-32 37zM529 670.999l-34 -30l-32 30v10c0 24.667 13.333 43.667 40 57l10 5
c8 4 12 12 12 24c0 17.333 -9.66699 26 -29 26c-18.667 0 -28 -8.33301 -28 -25v-16h-46v16c0 26 7.33301 44 22 54c12 8.66699 31.667 13 59 13c58 0 87 -22 87 -66c0 -28 -16 -49 -48 -63c-8.66699 -4 -13 -12.333 -13 -25v-10z" />
    <glyph glyph-name="glyph291" unicode="&#x1eaa;" horiz-adv-x="733" 
d="M502 129h-269l-37 -129h-208l225 750h304l228 -750h-204zM462 275l-93 325h-2l-91 -325h186zM368 949l169 -128l-33 -41l-137 61l-141 -61l-35 41zM494 1085l60.999 -18.999c-44 -58 -86.333 -89 -127 -93c-24 -2 -50.333 4.66699 -79 20
c-23.333 18 -40.666 26.667 -51.999 26c-21.333 -2 -41.666 -16.333 -60.999 -43l-61 22c48.667 56.667 93 86.667 133 90c22 2 46.333 -5 73 -21c25.333 -18.667 44.666 -27.334 57.999 -26.001c18 1.33301 36.333 16 55 44z" />
    <glyph glyph-name="glyph292" unicode="&#x1eab;" horiz-adv-x="609" 
d="M288 217c-50 0 -75 -18.333 -75 -55c0 -38 25 -57 75 -57c34 0 56 2.33301 66 7c18.667 8.66699 28 27.667 28 57c0 22.667 -11 37 -33 43c-10.667 3.33301 -31 5 -61 5zM382 0l6 77.999h-6c-10 -56 -60.333 -84 -151 -84c-65.333 0 -112 10.667 -140 32
c-33.333 24 -50 67.667 -50 131c0 61.333 17 105 51 131c29.333 22.667 75.666 34 138.999 34c38 0 65.667 -2.33301 83 -7c32 -8.66699 52 -26 60 -52h8v83c0 28.667 -3.66699 48 -11 58c-10.667 14.667 -33 22 -67 22c-46.667 0 -70 -19 -70 -57h-172
c0 72.667 25 120 75 142c30 13.333 85.667 20 167 20c94.667 0 158.334 -11.333 191.001 -34c39.333 -27.333 59 -83.666 59 -168.999v-328h-172zM305 716.999l152 -115l-30 -37l-123 55l-127 -55l-32 37zM418 838.999l54.998 -16.999
c-39.333 -52.667 -77.333 -80.667 -114 -84c-22 -2 -45.667 4 -71 18c-22 16.667 -37.667 24.667 -47 24c-19.333 -1.33301 -37.666 -14.333 -54.999 -39l-55 20c42.667 51.333 82.667 78.333 120 81c20 1.33301 41.667 -5 65 -19c22.667 -16.667 40.334 -24.667 53.001 -24
c14.667 1.33301 31 14.666 49 39.999z" />
    <glyph glyph-name="glyph293" unicode="&#x1eac;" horiz-adv-x="733" 
d="M502 129h-269l-37 -129h-208l225 750h304l228 -750h-204zM462 275l-93 325h-2l-91 -325h186zM368 949l169 -128l-33 -41l-137 61l-141 -61l-35 41zM451 -40v-108h-158v108l76 10z" />
    <glyph glyph-name="glyph294" unicode="&#x1ead;" horiz-adv-x="609" 
d="M288 217c-50 0 -75 -18.333 -75 -55c0 -38 25 -57 75 -57c34 0 56 2.33301 66 7c18.667 8.66699 28 27.667 28 57c0 22.667 -11 37 -33 43c-10.667 3.33301 -31 5 -61 5zM382 0l6 77.999h-6c-10 -56 -60.333 -84 -151 -84c-65.333 0 -112 10.667 -140 32
c-33.333 24 -50 67.667 -50 131c0 61.333 17 105 51 131c29.333 22.667 75.666 34 138.999 34c38 0 65.667 -2.33301 83 -7c32 -8.66699 52 -26 60 -52h8v83c0 28.667 -3.66699 48 -11 58c-10.667 14.667 -33 22 -67 22c-46.667 0 -70 -19 -70 -57h-172
c0 72.667 25 120 75 142c30 13.333 85.667 20 167 20c94.667 0 158.334 -11.333 191.001 -34c39.333 -27.333 59 -83.666 59 -168.999v-328h-172zM304 716.999l152 -115l-30 -37l-123 55l-127 -55l-31 37zM379 -59.001v-97h-142v97l68 9z" />
    <glyph glyph-name="glyph295" unicode="&#x1eae;" horiz-adv-x="733" 
d="M502 129h-269l-37 -129h-208l225 750h304l228 -750h-204zM462 275l-93 325h-2l-91 -325h186zM166 900l109 15c8 -40 39 -60 93 -60c25.333 0 44 4 56 12c14.667 8.66699 24.334 24.667 29.001 48l109 -15c-4.66699 -42.667 -26.334 -72 -65.001 -88
c-27.333 -11.333 -70.333 -17 -129 -17c-126 0 -193.333 35 -202 105zM437 1052h159l-196 -136h-67z" />
    <glyph glyph-name="glyph296" unicode="&#x1eaf;" horiz-adv-x="609" 
d="M288 217c-50 0 -75 -18.333 -75 -55c0 -38 25 -57 75 -57c34 0 56 2.33301 66 7c18.667 8.66699 28 27.667 28 57c0 22.667 -11 37 -33 43c-10.667 3.33301 -31 5 -61 5zM382 0l6 77.999h-6c-10 -56 -60.333 -84 -151 -84c-65.333 0 -112 10.667 -140 32
c-33.333 24 -50 67.667 -50 131c0 61.333 17 105 51 131c29.333 22.667 75.666 34 138.999 34c38 0 65.667 -2.33301 83 -7c32 -8.66699 52 -26 60 -52h8v83c0 28.667 -3.66699 48 -11 58c-10.667 14.667 -33 22 -67 22c-46.667 0 -70 -19 -70 -57h-172
c0 72.667 25 120 75 142c30 13.333 85.667 20 167 20c94.667 0 158.334 -11.333 191.001 -34c39.333 -27.333 59 -83.666 59 -168.999v-328h-172zM122 671.999l98 14c6.66699 -36 34.667 -54 84 -54c44 0 69.333 18 76 54l98 -14c-4.66699 -40 -26 -67 -64 -81
c-24 -8.66699 -60.667 -13 -110 -13c-114 0 -174.667 31.333 -182 94zM366 808.999h143l-177 -122h-60z" />
    <glyph glyph-name="glyph297" unicode="&#x1eb0;" horiz-adv-x="733" 
d="M502 129h-269l-37 -129h-208l225 750h304l228 -750h-204zM462 275l-93 325h-2l-91 -325h186zM166 900l109 15c8 -40 39 -60 93 -60c25.333 0 44 4 56 12c14.667 8.66699 24.334 24.667 29.001 48l109 -15c-4.66699 -42.667 -26.334 -72 -65.001 -88
c-27.333 -11.333 -70.333 -17 -129 -17c-126 0 -193.333 35 -202 105zM403 916h-67l-196 136h159z" />
    <glyph glyph-name="glyph298" unicode="&#x1eb1;" horiz-adv-x="609" 
d="M288 217c-50 0 -75 -18.333 -75 -55c0 -38 25 -57 75 -57c34 0 56 2.33301 66 7c18.667 8.66699 28 27.667 28 57c0 22.667 -11 37 -33 43c-10.667 3.33301 -31 5 -61 5zM382 0l6 77.999h-6c-10 -56 -60.333 -84 -151 -84c-65.333 0 -112 10.667 -140 32
c-33.333 24 -50 67.667 -50 131c0 61.333 17 105 51 131c29.333 22.667 75.666 34 138.999 34c38 0 65.667 -2.33301 83 -7c32 -8.66699 52 -26 60 -52h8v83c0 28.667 -3.66699 48 -11 58c-10.667 14.667 -33 22 -67 22c-46.667 0 -70 -19 -70 -57h-172
c0 72.667 25 120 75 142c30 13.333 85.667 20 167 20c94.667 0 158.334 -11.333 191.001 -34c39.333 -27.333 59 -83.666 59 -168.999v-328h-172zM122 671.999l98.001 13.999c8 -36 36 -54 84 -54c22.667 0 40 3.83301 52 11.5s20.333 21.834 25 42.501l98 -14
c-4.66699 -40 -26.334 -67 -65.001 -81c-24 -8.66699 -60.667 -13 -110 -13c-114 0 -174.667 31.333 -182 94zM336.001 686.998h-61l-176 122h143z" />
    <glyph glyph-name="glyph299" unicode="&#x1eb2;" horiz-adv-x="733" 
d="M502 129h-269l-37 -129h-208l225 750h304l228 -750h-204zM462 275l-93 325h-2l-91 -325h186zM166 900l109 15c8 -40 39 -60 93 -60c25.333 0 44 4 56 12c14.667 8.66699 24.334 24.667 29.001 48l109 -15c-4.66699 -42.667 -26.334 -72 -65.001 -88
c-27.333 -11.333 -70.333 -17 -129 -17c-126 0 -193.333 35 -202 105zM402 936l-34 -30l-32 30v10c0 24.667 13.333 43.667 40 57l10 5c8 4 12 12 12 24c0 17.333 -9.66699 26 -29 26c-18.667 0 -28 -8.33301 -28 -25v-16h-46v16c0 26 7.33301 44 22 54
c12 8.66699 31.667 13 59 13c58 0 87 -22 87 -66c0 -28 -16 -49 -48 -63c-8.66699 -4 -13 -12.333 -13 -25v-10z" />
    <glyph glyph-name="glyph300" unicode="&#x1eb3;" horiz-adv-x="609" 
d="M288 217c-50 0 -75 -18.333 -75 -55c0 -38 25 -57 75 -57c34 0 56 2.33301 66 7c18.667 8.66699 28 27.667 28 57c0 22.667 -11 37 -33 43c-10.667 3.33301 -31 5 -61 5zM382 0l6 77.999h-6c-10 -56 -60.333 -84 -151 -84c-65.333 0 -112 10.667 -140 32
c-33.333 24 -50 67.667 -50 131c0 61.333 17 105 51 131c29.333 22.667 75.666 34 138.999 34c38 0 65.667 -2.33301 83 -7c32 -8.66699 52 -26 60 -52h8v83c0 28.667 -3.66699 48 -11 58c-10.667 14.667 -33 22 -67 22c-46.667 0 -70 -19 -70 -57h-172
c0 72.667 25 120 75 142c30 13.333 85.667 20 167 20c94.667 0 158.334 -11.333 191.001 -34c39.333 -27.333 59 -83.666 59 -168.999v-328h-172zM122 671.999l98.001 13c6.66699 -35.333 34.667 -53 84 -53c43.333 0 68.666 17.667 75.999 53l98 -13
c-4.66699 -40 -26 -67 -64 -81c-23.333 -8.66699 -60 -13 -110 -13c-114 0 -174.667 31.333 -182 94zM338.001 719.999l-34 -30l-32 30v10c0 24.667 13.333 43.667 40 57l10 5c8 4 12 12 12 24c0 17.333 -9.66699 26 -29 26c-18.667 0 -28 -8.33301 -28 -25v-16h-46v16
c0 26 7.33301 44 22 54c12 8.66699 31.667 13 59 13c58 0 87 -22 87 -66c0 -28 -16 -49 -48 -63c-8.66699 -4 -13 -12.333 -13 -25v-10z" />
    <glyph glyph-name="glyph301" unicode="&#x1eb4;" horiz-adv-x="733" 
d="M502 129h-269l-37 -129h-208l225 750h304l228 -750h-204zM462 275l-93 325h-2l-91 -325h186zM166 900l109 15c8 -40 39 -60 93 -60c25.333 0 44 4 56 12c14.667 8.66699 24.334 24.667 29.001 48l109 -15c-4.66699 -42.667 -26.334 -72 -65.001 -88
c-27.333 -11.333 -70.333 -17 -129 -17c-126 0 -193.333 35 -202 105zM652 1056l60.999 -18.999c-44 -58 -86.333 -89 -127 -93c-24 -2 -50.333 4.66699 -79 20c-23.333 18 -40.666 26.667 -51.999 26c-21.333 -2 -41.666 -16.333 -60.999 -43l-61 22
c48.667 56.667 93 86.667 133 90c22 2 46.333 -5 73 -21c25.333 -18.667 44.666 -27.334 57.999 -26.001c18 1.33301 36.333 16 55 44z" />
    <glyph glyph-name="glyph302" unicode="&#x1eb5;" horiz-adv-x="609" 
d="M288 217c-50 0 -75 -18.333 -75 -55c0 -38 25 -57 75 -57c34 0 56 2.33301 66 7c18.667 8.66699 28 27.667 28 57c0 22.667 -11 37 -33 43c-10.667 3.33301 -31 5 -61 5zM382 0l6 77.999h-6c-10 -56 -60.333 -84 -151 -84c-65.333 0 -112 10.667 -140 32
c-33.333 24 -50 67.667 -50 131c0 61.333 17 105 51 131c29.333 22.667 75.666 34 138.999 34c38 0 65.667 -2.33301 83 -7c32 -8.66699 52 -26 60 -52h8v83c0 28.667 -3.66699 48 -11 58c-10.667 14.667 -33 22 -67 22c-46.667 0 -70 -19 -70 -57h-172
c0 72.667 25 120 75 142c30 13.333 85.667 20 167 20c94.667 0 158.334 -11.333 191.001 -34c39.333 -27.333 59 -83.666 59 -168.999v-328h-172zM122 671.999l98 13c7.33301 -36 35.333 -54 84 -54c44 0 69.333 18 76 54l98 -13c-4.66699 -40.667 -26 -68 -64 -82
c-23.333 -8.66699 -60 -13 -110 -13c-113.333 0 -174 31.667 -182 95zM559 811.999l54.999 -16.999c-39.333 -52.667 -77.333 -80.667 -114 -84c-22 -2 -45.667 4 -71 18c-22 16.667 -37.667 24.667 -47 24c-19.333 -1.33301 -37.666 -14.333 -54.999 -39l-55 20
c46 51.333 86 78.333 120 81c20 2 42.667 -4.83301 68 -20.5s42 -23.167 50 -22.5c14.667 1.33301 31 14.666 49 39.999z" />
    <glyph glyph-name="glyph303" unicode="&#x1eb6;" horiz-adv-x="733" 
d="M502 129h-269l-37 -129h-208l225 750h304l228 -750h-204zM462 275l-93 325h-2l-91 -325h186zM166 900l109 15c8 -40 39 -60 93 -60c25.333 0 44 4 56 12c14.667 8.66699 24.334 24.667 29.001 48l109 -15c-4.66699 -42.667 -26.334 -72 -65.001 -88
c-27.333 -11.333 -70.333 -17 -129 -17c-126 0 -193.333 35 -202 105zM451 -40v-108h-158v108l76 10z" />
    <glyph glyph-name="glyph304" unicode="&#x1eb7;" horiz-adv-x="609" 
d="M288 217c-50 0 -75 -18.333 -75 -55c0 -38 25 -57 75 -57c34 0 56 2.33301 66 7c18.667 8.66699 28 27.667 28 57c0 22.667 -11 37 -33 43c-10.667 3.33301 -31 5 -61 5zM382 0l6 77.999h-6c-10 -56 -60.333 -84 -151 -84c-65.333 0 -112 10.667 -140 32
c-33.333 24 -50 67.667 -50 131c0 61.333 17 105 51 131c29.333 22.667 75.666 34 138.999 34c38 0 65.667 -2.33301 83 -7c32 -8.66699 52 -26 60 -52h8v83c0 28.667 -3.66699 48 -11 58c-10.667 14.667 -33 22 -67 22c-46.667 0 -70 -19 -70 -57h-172
c0 72.667 25 120 75 142c30 13.333 85.667 20 167 20c94.667 0 158.334 -11.333 191.001 -34c39.333 -27.333 59 -83.666 59 -168.999v-328h-172zM379 -59.001v-97h-142v97l68 9zM122 671.999l98 14c6.66699 -36 34.667 -54 84 -54c44 0 69.333 18 76 54l98 -14
c-4.66699 -40 -26 -67 -64 -81c-24 -8.66699 -60.667 -13 -110 -13c-114 0 -174.667 31.333 -182 94z" />
    <glyph glyph-name="glyph305" unicode="&#x1eb8;" horiz-adv-x="678" 
d="M264 586v-137h320v-139h-320v-146h348v-164h-548v750h541v-164h-341zM415 -60v-108h-158v108l76 10z" />
    <glyph glyph-name="glyph306" unicode="&#x1eb9;" horiz-adv-x="574" 
d="M202 328h169.001c0 36 -7.33301 59.667 -22 71c-10.667 8 -32.334 12 -65.001 12c-32 0 -53.5 -5.66699 -64.5 -17s-16.833 -33.333 -17.5 -66zM374.001 175l169 0.000976562c0 -56 -13 -97.667 -39 -125s-67 -44.333 -123 -51c-26.667 -3.33301 -58 -5 -94 -5
c-99.333 0 -167.666 20 -204.999 60c-34.667 38.667 -52 108 -52 208c0 103.333 16.667 173.333 50 210c36 39.333 105 59 207 59c101.333 0 169.333 -19.167 204 -57.5s52 -108.833 52 -211.5v-29h-341c0 -42.667 4 -71.334 12 -86.001c11.333 -22 35.666 -33 72.999 -33
c30 0 51 3.33301 63 10c16 8.66699 24 25.667 24 51zM363.001 -58.999v-97h-142v97l68 9z" />
    <glyph glyph-name="glyph307" unicode="&#x1eba;" horiz-adv-x="678" 
d="M264 586v-137h320v-139h-320v-146h348v-164h-548v750h541v-164h-341zM366 840l-34 -30l-32 30v10c0 24.667 13.333 43.667 40 57l10 5c8 4 12 12 12 24c0 17.333 -9.66699 26 -29 26c-18.667 0 -28 -8.33301 -28 -25v-16h-46v16c0 26 7.33301 44 22 54
c12 8.66699 31.667 13 59 13c58 0 87 -22 87 -66c0 -28 -16 -49 -48 -63c-8.66699 -4 -13 -12.333 -13 -25v-10z" />
    <glyph glyph-name="glyph308" unicode="&#x1ebb;" horiz-adv-x="574" 
d="M202 328h169.001c0 36 -7.33301 59.667 -22 71c-10.667 8 -32.334 12 -65.001 12c-32 0 -53.5 -5.66699 -64.5 -17s-16.833 -33.333 -17.5 -66zM374.001 175l169 0.000976562c0 -56 -13 -97.667 -39 -125s-67 -44.333 -123 -51c-26.667 -3.33301 -58 -5 -94 -5
c-99.333 0 -167.666 20 -204.999 60c-34.667 38.667 -52 108 -52 208c0 103.333 16.667 173.333 50 210c36 39.333 105 59 207 59c101.333 0 169.333 -19.167 204 -57.5s52 -108.833 52 -211.5v-29h-341c0 -42.667 4 -71.334 12 -86.001c11.333 -22 35.666 -33 72.999 -33
c30 0 51 3.33301 63 10c16 8.66699 24 25.667 24 51zM322.001 632.001l-34 -30l-32 30v10c0 24.667 13.333 43.667 40 57l10 5c8 4 12 12 12 24c0 17.333 -9.66699 26 -29 26c-18.667 0 -28 -8.33301 -28 -25v-16h-46v16c0 26 7.33301 44 22 54c12 8.66699 31.667 13 59 13
c58 0 87 -22 87 -66c0 -28 -16 -49 -48 -63c-8.66699 -4 -13 -12.333 -13 -25v-10z" />
    <glyph glyph-name="glyph309" unicode="&#x1ebc;" horiz-adv-x="678" 
d="M264 586v-137h320v-139h-320v-146h348v-164h-548v750h541v-164h-341zM458 935l60.999 -18.999c-44 -58 -86.333 -89 -127 -93c-24 -2 -50.333 4.66699 -79 20c-23.333 18 -40.666 26.667 -51.999 26c-21.333 -2 -41.666 -16.333 -60.999 -43l-61 22
c48.667 56.667 93 86.667 133 90c22 2 46.333 -5 73 -21c25.333 -18.667 44.666 -27.334 57.999 -26.001c18 1.33301 36.333 16 55 44z" />
    <glyph glyph-name="glyph310" unicode="&#x1ebd;" horiz-adv-x="574" 
d="M202 328h169.001c0 36 -7.33301 59.667 -22 71c-10.667 8 -32.334 12 -65.001 12c-32 0 -53.5 -5.66699 -64.5 -17s-16.833 -33.333 -17.5 -66zM374.001 175l169 0.000976562c0 -56 -13 -97.667 -39 -125s-67 -44.333 -123 -51c-26.667 -3.33301 -58 -5 -94 -5
c-99.333 0 -167.666 20 -204.999 60c-34.667 38.667 -52 108 -52 208c0 103.333 16.667 173.333 50 210c36 39.333 105 59 207 59c101.333 0 169.333 -19.167 204 -57.5s52 -108.833 52 -211.5v-29h-341c0 -42.667 4 -71.334 12 -86.001c11.333 -22 35.666 -33 72.999 -33
c30 0 51 3.33301 63 10c16 8.66699 24 25.667 24 51zM402.001 716.001l54.998 -16.999c-39.333 -52.667 -77.333 -80.667 -114 -84c-22 -2 -45.667 4 -71 18c-22 16.667 -37.667 24.667 -47 24c-19.333 -1.33301 -37.666 -14.333 -54.999 -39l-55 20
c42.667 51.333 82.667 78.333 120 81c20 1.33301 41.667 -5 65 -19c22.667 -16.667 40.334 -24.667 53.001 -24c14.667 1.33301 31 14.666 49 39.999z" />
    <glyph glyph-name="glyph311" unicode="&#x1ebe;" horiz-adv-x="678" 
d="M264 586v-137h320v-139h-320v-146h348v-164h-548v750h541v-164h-341zM332 960l169 -128l-33 -41l-137 61l-141 -61l-35 41zM595 1009h159l-196 -136h-67z" />
    <glyph glyph-name="glyph312" unicode="&#x1ebf;" horiz-adv-x="574" 
d="M202 328h169.001c0 36 -7.33301 59.667 -22 71c-10.667 8 -32.334 12 -65.001 12c-32 0 -53.5 -5.66699 -64.5 -17s-16.833 -33.333 -17.5 -66zM374.001 175l169 0.000976562c0 -56 -13 -97.667 -39 -125s-67 -44.333 -123 -51c-26.667 -3.33301 -58 -5 -94 -5
c-99.333 0 -167.666 20 -204.999 60c-34.667 38.667 -52 108 -52 208c0 103.333 16.667 173.333 50 210c36 39.333 105 59 207 59c101.333 0 169.333 -19.167 204 -57.5s52 -108.833 52 -211.5v-29h-341c0 -42.667 4 -71.334 12 -86.001c11.333 -22 35.666 -33 72.999 -33
c30 0 51 3.33301 63 10c16 8.66699 24 25.667 24 51zM289.001 717.001l152 -115l-29 -37l-124 55l-126 -55l-32 37zM526.001 761.001h143l-176 -122h-61z" />
    <glyph glyph-name="glyph313" unicode="&#x1ec0;" horiz-adv-x="678" 
d="M264 586v-137h320v-139h-320v-146h348v-164h-548v750h541v-164h-341zM333 959l169 -128l-33 -41l-137 61l-141 -61l-35 41zM166 871h-67l-196 136h159z" />
    <glyph glyph-name="glyph314" unicode="&#x1ec1;" horiz-adv-x="574" 
d="M202 328h169.001c0 36 -7.33301 59.667 -22 71c-10.667 8 -32.334 12 -65.001 12c-32 0 -53.5 -5.66699 -64.5 -17s-16.833 -33.333 -17.5 -66zM374.001 175l169 0.000976562c0 -56 -13 -97.667 -39 -125s-67 -44.333 -123 -51c-26.667 -3.33301 -58 -5 -94 -5
c-99.333 0 -167.666 20 -204.999 60c-34.667 38.667 -52 108 -52 208c0 103.333 16.667 173.333 50 210c36 39.333 105 59 207 59c101.333 0 169.333 -19.167 204 -57.5s52 -108.833 52 -211.5v-29h-341c0 -42.667 4 -71.334 12 -86.001c11.333 -22 35.666 -33 72.999 -33
c30 0 51 3.33301 63 10c16 8.66699 24 25.667 24 51zM288.001 717.001l152 -115l-30 -37l-123 55l-127 -55l-31 37zM158.001 648.001h-61l-166 122h133z" />
    <glyph glyph-name="glyph315" unicode="&#x1ec2;" horiz-adv-x="678" 
d="M264 586v-137h320v-139h-320v-146h348v-164h-548v750h541v-164h-341zM332 959l169 -128l-33 -41l-137 61l-141 -61l-35 41zM557 901l-34 -30l-32 30v10c0 24.667 13.333 43.667 40 57l10 5c8 4 12 12 12 24c0 17.333 -9.66699 26 -29 26c-18.667 0 -28 -8.33301 -28 -25
v-16h-46v16c0 26 7.33301 44 22 54c12 8.66699 31.667 13 59 13c58 0 87 -22 87 -66c0 -28 -16 -49 -48 -63c-8.66699 -4 -13 -12.333 -13 -25v-10z" />
    <glyph glyph-name="glyph316" unicode="&#x1ec3;" horiz-adv-x="574" 
d="M202 328h169.001c0 36 -7.33301 59.667 -22 71c-10.667 8 -32.334 12 -65.001 12c-32 0 -53.5 -5.66699 -64.5 -17s-16.833 -33.333 -17.5 -66zM374.001 175l169 0.000976562c0 -56 -13 -97.667 -39 -125s-67 -44.333 -123 -51c-26.667 -3.33301 -58 -5 -94 -5
c-99.333 0 -167.666 20 -204.999 60c-34.667 38.667 -52 108 -52 208c0 103.333 16.667 173.333 50 210c36 39.333 105 59 207 59c101.333 0 169.333 -19.167 204 -57.5s52 -108.833 52 -211.5v-29h-341c0 -42.667 4 -71.334 12 -86.001c11.333 -22 35.666 -33 72.999 -33
c30 0 51 3.33301 63 10c16 8.66699 24 25.667 24 51zM288.001 717.001l152 -115l-30 -37l-123 55l-127 -55l-32 37zM513.001 671.001l-34 -30l-32 30v10c0 24.667 13.333 43.667 40 57l10 5c8 4 12 12 12 24c0 17.333 -9.66699 26 -29 26c-18.667 0 -28 -8.33301 -28 -25
v-16h-46v16c0 26 7.33301 44 22 54c12 8.66699 31.667 13 59 13c58 0 87 -22 87 -66c0 -28 -16 -49 -48 -63c-8.66699 -4 -13 -12.333 -13 -25v-10z" />
    <glyph glyph-name="glyph317" unicode="&#x1ec4;" horiz-adv-x="678" 
d="M264 586v-137h320v-139h-320v-146h348v-164h-548v750h541v-164h-341zM332 959l169 -128l-33 -41l-137 61l-141 -61l-35 41zM458 1095l60.999 -18.999c-44 -58 -86.333 -89 -127 -93c-24 -2 -50.333 4.66699 -79 20c-23.333 18 -40.666 26.667 -51.999 26
c-21.333 -2 -41.666 -16.333 -60.999 -43l-61 22c48.667 56.667 93 86.667 133 90c22 2 46.333 -5 73 -21c25.333 -18.667 44.666 -27.334 57.999 -26.001c18 1.33301 36.333 16 55 44z" />
    <glyph glyph-name="glyph318" unicode="&#x1ec5;" horiz-adv-x="574" 
d="M202 328h169.001c0 36 -7.33301 59.667 -22 71c-10.667 8 -32.334 12 -65.001 12c-32 0 -53.5 -5.66699 -64.5 -17s-16.833 -33.333 -17.5 -66zM374.001 175l169 0.000976562c0 -56 -13 -97.667 -39 -125s-67 -44.333 -123 -51c-26.667 -3.33301 -58 -5 -94 -5
c-99.333 0 -167.666 20 -204.999 60c-34.667 38.667 -52 108 -52 208c0 103.333 16.667 173.333 50 210c36 39.333 105 59 207 59c101.333 0 169.333 -19.167 204 -57.5s52 -108.833 52 -211.5v-29h-341c0 -42.667 4 -71.334 12 -86.001c11.333 -22 35.666 -33 72.999 -33
c30 0 51 3.33301 63 10c16 8.66699 24 25.667 24 51zM289.001 717.001l152 -115l-30 -37l-123 55l-127 -55l-32 37zM402.001 839.001l54.998 -16.999c-39.333 -52.667 -77.333 -80.667 -114 -84c-22 -2 -45.667 4 -71 18c-22 16.667 -37.667 24.667 -47 24
c-19.333 -1.33301 -37.666 -14.333 -54.999 -39l-55 20c42.667 51.333 82.667 78.333 120 81c20 1.33301 41.667 -5 65 -19c22.667 -16.667 40.334 -24.667 53.001 -24c14.667 1.33301 31 14.666 49 39.999z" />
    <glyph glyph-name="glyph319" unicode="&#x1ec6;" horiz-adv-x="678" 
d="M264 586v-137h320v-139h-320v-146h348v-164h-548v750h541v-164h-341zM332 960l169 -128l-33 -41l-137 61l-141 -61l-35 41zM415 -60v-108h-158v108l76 10z" />
    <glyph glyph-name="glyph320" unicode="&#x1ec7;" horiz-adv-x="574" 
d="M202 328h169.001c0 36 -7.33301 59.667 -22 71c-10.667 8 -32.334 12 -65.001 12c-32 0 -53.5 -5.66699 -64.5 -17s-16.833 -33.333 -17.5 -66zM374.001 175l169 0.000976562c0 -56 -13 -97.667 -39 -125s-67 -44.333 -123 -51c-26.667 -3.33301 -58 -5 -94 -5
c-99.333 0 -167.666 20 -204.999 60c-34.667 38.667 -52 108 -52 208c0 103.333 16.667 173.333 50 210c36 39.333 105 59 207 59c101.333 0 169.333 -19.167 204 -57.5s52 -108.833 52 -211.5v-29h-341c0 -42.667 4 -71.334 12 -86.001c11.333 -22 35.666 -33 72.999 -33
c30 0 51 3.33301 63 10c16 8.66699 24 25.667 24 51zM288.001 717.001l152 -115l-30 -37l-123 55l-127 -55l-31 37zM363.001 -58.999v-97h-142v97l68 9z" />
    <glyph glyph-name="glyph321" unicode="&#x1ec8;" horiz-adv-x="324" 
d="M262 750v-750h-200v750h200zM196 840l-34 -30l-32 30v10c0 24.667 13.333 43.667 40 57l10 5c8 4 12 12 12 24c0 17.333 -9.66699 26 -29 26c-18.667 0 -28 -8.33301 -28 -25v-16h-46v16c0 26 7.33301 44 22 54c12 8.66699 31.667 13 59 13c58 0 87 -22 87 -66
c0 -28 -16 -49 -48 -63c-8.66699 -4 -13 -12.333 -13 -25v-10z" />
    <glyph glyph-name="glyph322" unicode="&#x1ec9;" horiz-adv-x="257" 
d="M215 525v-525h-172v525h172zM163 622l-34 -30l-32 30v10c0 24.667 13.333 43.667 40 57l10 5c8 4 12 12 12 24c0 17.333 -9.66699 26 -29 26c-18.667 0 -28 -8.33301 -28 -25v-16h-46v16c0 26 7.33301 44 22 54c12 8.66699 31.667 13 59 13c58 0 87 -22 87 -66
c0 -28 -16 -49 -48 -63c-8.66699 -4 -13 -12.333 -13 -25v-10z" />
    <glyph glyph-name="glyph323" unicode="&#x1eca;" horiz-adv-x="324" 
d="M262 750v-750h-200v750h200zM244 -59v-108h-158v108l76 10z" />
    <glyph glyph-name="glyph324" unicode="&#x1ecb;" horiz-adv-x="257" 
d="M215 525v-525h-172v525h172zM206 718v-118h-154v118h154zM203 -57v-97h-142v97l68 9z" />
    <glyph glyph-name="glyph325" unicode="&#x1ecc;" horiz-adv-x="760" 
d="M380 -6c-113.333 0 -196.333 17 -249 51c-65.333 42 -98 116.667 -98 224v212c0 107.333 32.667 182 98 224c52.667 34 135.667 51 249 51s196.333 -17 249 -51c65.333 -42 98 -116.667 98 -224v-212c0 -107.333 -32.667 -182 -98 -224
c-52.667 -34 -135.667 -51 -249 -51zM380 168c55.333 0 92.001 6.66895 110.001 20.002c20.667 15.333 31 49.666 31 102.999v169c0 53.333 -10.333 87.666 -31 102.999c-16.667 12.667 -53.334 19 -110.001 19c-56 0 -92.333 -6.33301 -109 -19
c-21.333 -16 -32 -50.333 -32 -103v-169c0 -53.333 10.667 -88 32 -104c16.667 -12.667 53 -19 109 -19zM461.001 -64.998v-108h-158v108l76 10z" />
    <glyph glyph-name="glyph326" unicode="&#x1ecd;" horiz-adv-x="593" 
d="M296 531c108.667 0 179.667 -17.5 213 -52.5s50 -107.167 50 -216.5c0 -107.333 -17.167 -178.833 -51.5 -214.5s-104.833 -53.5 -211.5 -53.5c-105.333 0 -175.333 18.167 -210 54.5s-52 107.5 -52 213.5c0 108 17 179.833 51 215.5s104.333 53.5 211 53.5zM299 399
c-45.333 0 -73.666 -13 -84.999 -39c-5.33301 -12.667 -8 -45.334 -8 -98.001c0 -52 2.66699 -84.333 8 -97c11.333 -26 39.666 -39 84.999 -39c42.667 0 69.334 12.667 80.001 38c5.33301 12.667 8 45.334 8 98.001s-2.66699 85.667 -8 99
c-10.667 25.333 -37.334 38 -80.001 38zM371 -59v-97h-142v97l68 9z" />
    <glyph glyph-name="glyph327" unicode="&#x1ece;" horiz-adv-x="760" 
d="M380 -6c-113.333 0 -196.333 17 -249 51c-65.333 42 -98 116.667 -98 224v212c0 107.333 32.667 182 98 224c52.667 34 135.667 51 249 51s196.333 -17 249 -51c65.333 -42 98 -116.667 98 -224v-212c0 -107.333 -32.667 -182 -98 -224
c-52.667 -34 -135.667 -51 -249 -51zM380 168c55.333 0 92.001 6.66895 110.001 20.002c20.667 15.333 31 49.666 31 102.999v169c0 53.333 -10.333 87.666 -31 102.999c-16.667 12.667 -53.334 19 -110.001 19c-56 0 -92.333 -6.33301 -109 -19
c-21.333 -16 -32 -50.333 -32 -103v-169c0 -53.333 10.667 -88 32 -104c16.667 -12.667 53 -19 109 -19zM414.001 845.002l-34 -30l-32 30v10c0 24.667 13.333 43.667 40 57l10 5c8 4 12 12 12 24c0 17.333 -9.66699 26 -29 26c-18.667 0 -28 -8.33301 -28 -25v-16h-46v16
c0 26 7.33301 44 22 54c12 8.66699 31.667 13 59 13c58 0 87 -22 87 -66c0 -28 -16 -49 -48 -63c-8.66699 -4 -13 -12.333 -13 -25v-10z" />
    <glyph glyph-name="glyph328" unicode="&#x1ecf;" horiz-adv-x="593" 
d="M296 531c108.667 0 179.667 -17.5 213 -52.5s50 -107.167 50 -216.5c0 -107.333 -17.167 -178.833 -51.5 -214.5s-104.833 -53.5 -211.5 -53.5c-105.333 0 -175.333 18.167 -210 54.5s-52 107.5 -52 213.5c0 108 17 179.833 51 215.5s104.333 53.5 211 53.5zM299 399
c-45.333 0 -73.666 -13 -84.999 -39c-5.33301 -12.667 -8 -45.334 -8 -98.001c0 -52 2.66699 -84.333 8 -97c11.333 -26 39.666 -39 84.999 -39c42.667 0 69.334 12.667 80.001 38c5.33301 12.667 8 45.334 8 98.001s-2.66699 85.667 -8 99
c-10.667 25.333 -37.334 38 -80.001 38zM330 632l-34 -30l-32 30v10c0 24.667 13.333 43.667 40 57l10 5c8 4 12 12 12 24c0 17.333 -9.66699 26 -29 26c-18.667 0 -28 -8.33301 -28 -25v-16h-46v16c0 26 7.33301 44 22 54c12 8.66699 31.667 13 59 13c58 0 87 -22 87 -66
c0 -28 -16 -49 -48 -63c-8.66699 -4 -13 -12.333 -13 -25v-10z" />
    <glyph glyph-name="glyph329" unicode="&#x1ed0;" horiz-adv-x="760" 
d="M380 -6c-113.333 0 -196.333 17 -249 51c-65.333 42 -98 116.667 -98 224v212c0 107.333 32.667 182 98 224c52.667 34 135.667 51 249 51s196.333 -17 249 -51c65.333 -42 98 -116.667 98 -224v-212c0 -107.333 -32.667 -182 -98 -224
c-52.667 -34 -135.667 -51 -249 -51zM380 168c55.333 0 92.001 6.66895 110.001 20.002c20.667 15.333 31 49.666 31 102.999v169c0 53.333 -10.333 87.666 -31 102.999c-16.667 12.667 -53.334 19 -110.001 19c-56 0 -92.333 -6.33301 -109 -19
c-21.333 -16 -32 -50.333 -32 -103v-169c0 -53.333 10.667 -88 32 -104c16.667 -12.667 53 -19 109 -19zM381.001 960.002l169 -128l-33 -41l-137 61l-141 -61l-35 41zM644.001 1009h159l-196 -136h-67z" />
    <glyph glyph-name="glyph330" unicode="&#x1ed1;" horiz-adv-x="593" 
d="M296 531c108.667 0 179.667 -17.5 213 -52.5s50 -107.167 50 -216.5c0 -107.333 -17.167 -178.833 -51.5 -214.5s-104.833 -53.5 -211.5 -53.5c-105.333 0 -175.333 18.167 -210 54.5s-52 107.5 -52 213.5c0 108 17 179.833 51 215.5s104.333 53.5 211 53.5zM299 399
c-45.333 0 -73.666 -13 -84.999 -39c-5.33301 -12.667 -8 -45.334 -8 -98.001c0 -52 2.66699 -84.333 8 -97c11.333 -26 39.666 -39 84.999 -39c42.667 0 69.334 12.667 80.001 38c5.33301 12.667 8 45.334 8 98.001s-2.66699 85.667 -8 99
c-10.667 25.333 -37.334 38 -80.001 38zM297 717l152 -115l-29 -37l-124 55l-126 -55l-32 37zM534 761h143l-176 -122h-61z" />
    <glyph glyph-name="glyph331" unicode="&#x1ed2;" horiz-adv-x="760" 
d="M380 -6c-113.333 0 -196.333 17 -249 51c-65.333 42 -98 116.667 -98 224v212c0 107.333 32.667 182 98 224c52.667 34 135.667 51 249 51s196.333 -17 249 -51c65.333 -42 98 -116.667 98 -224v-212c0 -107.333 -32.667 -182 -98 -224
c-52.667 -34 -135.667 -51 -249 -51zM380 168c55.333 0 92.001 6.66895 110.001 20.002c20.667 15.333 31 49.666 31 102.999v169c0 53.333 -10.333 87.666 -31 102.999c-16.667 12.667 -53.334 19 -110.001 19c-56 0 -92.333 -6.33301 -109 -19
c-21.333 -16 -32 -50.333 -32 -103v-169c0 -53.333 10.667 -88 32 -104c16.667 -12.667 53 -19 109 -19zM380.001 959.002l169 -128l-33 -41l-137 61l-141 -61l-35 41zM213.001 871.002h-67l-196 136h159z" />
    <glyph glyph-name="glyph332" unicode="&#x1ed3;" horiz-adv-x="593" 
d="M296 531c108.667 0 179.667 -17.5 213 -52.5s50 -107.167 50 -216.5c0 -107.333 -17.167 -178.833 -51.5 -214.5s-104.833 -53.5 -211.5 -53.5c-105.333 0 -175.333 18.167 -210 54.5s-52 107.5 -52 213.5c0 108 17 179.833 51 215.5s104.333 53.5 211 53.5zM299 399
c-45.333 0 -73.666 -13 -84.999 -39c-5.33301 -12.667 -8 -45.334 -8 -98.001c0 -52 2.66699 -84.333 8 -97c11.333 -26 39.666 -39 84.999 -39c42.667 0 69.334 12.667 80.001 38c5.33301 12.667 8 45.334 8 98.001s-2.66699 85.667 -8 99
c-10.667 25.333 -37.334 38 -80.001 38zM297 716l152 -115l-30 -37l-123 55l-127 -55l-31 37zM167 647h-61l-166 122h133z" />
    <glyph glyph-name="glyph333" unicode="&#x1ed4;" horiz-adv-x="760" 
d="M380 -6c-113.333 0 -196.333 17 -249 51c-65.333 42 -98 116.667 -98 224v212c0 107.333 32.667 182 98 224c52.667 34 135.667 51 249 51s196.333 -17 249 -51c65.333 -42 98 -116.667 98 -224v-212c0 -107.333 -32.667 -182 -98 -224
c-52.667 -34 -135.667 -51 -249 -51zM380 168c55.333 0 92.001 6.66895 110.001 20.002c20.667 15.333 31 49.666 31 102.999v169c0 53.333 -10.333 87.666 -31 102.999c-16.667 12.667 -53.334 19 -110.001 19c-56 0 -92.333 -6.33301 -109 -19
c-21.333 -16 -32 -50.333 -32 -103v-169c0 -53.333 10.667 -88 32 -104c16.667 -12.667 53 -19 109 -19zM379.001 959.002l169 -128l-33 -41l-137 61l-141 -61l-35 41zM604.001 901.002l-34 -30l-32 30v10c0 24.667 13.333 43.667 40 57l10 5c8 4 12 12 12 24
c0 17.333 -9.66699 26 -29 26c-18.667 0 -28 -8.33301 -28 -25v-16h-46v16c0 26 7.33301 44 22 54c12 8.66699 31.667 13 59 13c58 0 87 -22 87 -66c0 -28 -16 -49 -48 -63c-8.66699 -4 -13 -12.333 -13 -25v-10z" />
    <glyph glyph-name="glyph334" unicode="&#x1ed5;" horiz-adv-x="593" 
d="M296 531c108.667 0 179.667 -17.5 213 -52.5s50 -107.167 50 -216.5c0 -107.333 -17.167 -178.833 -51.5 -214.5s-104.833 -53.5 -211.5 -53.5c-105.333 0 -175.333 18.167 -210 54.5s-52 107.5 -52 213.5c0 108 17 179.833 51 215.5s104.333 53.5 211 53.5zM299 399
c-45.333 0 -73.666 -13 -84.999 -39c-5.33301 -12.667 -8 -45.334 -8 -98.001c0 -52 2.66699 -84.333 8 -97c11.333 -26 39.666 -39 84.999 -39c42.667 0 69.334 12.667 80.001 38c5.33301 12.667 8 45.334 8 98.001s-2.66699 85.667 -8 99
c-10.667 25.333 -37.334 38 -80.001 38zM296 717l152 -115l-30 -37l-123 55l-127 -55l-32 37zM521 671l-34 -30l-32 30v10c0 24.667 13.333 43.667 40 57l10 5c8 4 12 12 12 24c0 17.333 -9.66699 26 -29 26c-18.667 0 -28 -8.33301 -28 -25v-16h-46v16
c0 26 7.33301 44 22 54c12 8.66699 31.667 13 59 13c58 0 87 -22 87 -66c0 -28 -16 -49 -48 -63c-8.66699 -4 -13 -12.333 -13 -25v-10z" />
    <glyph glyph-name="glyph335" unicode="&#x1ed6;" horiz-adv-x="760" 
d="M380 -6c-113.333 0 -196.333 17 -249 51c-65.333 42 -98 116.667 -98 224v212c0 107.333 32.667 182 98 224c52.667 34 135.667 51 249 51s196.333 -17 249 -51c65.333 -42 98 -116.667 98 -224v-212c0 -107.333 -32.667 -182 -98 -224
c-52.667 -34 -135.667 -51 -249 -51zM380 168c55.333 0 92.001 6.66895 110.001 20.002c20.667 15.333 31 49.666 31 102.999v169c0 53.333 -10.333 87.666 -31 102.999c-16.667 12.667 -53.334 19 -110.001 19c-56 0 -92.333 -6.33301 -109 -19
c-21.333 -16 -32 -50.333 -32 -103v-169c0 -53.333 10.667 -88 32 -104c16.667 -12.667 53 -19 109 -19zM380.001 960.002l169 -128l-33 -41l-137 61l-141 -61l-35 41zM506.001 1096l60.999 -18.999c-44 -58 -86.333 -89 -127 -93c-24 -2 -50.333 4.66699 -79 20
c-23.333 18 -40.666 26.667 -51.999 26c-21.333 -2 -41.666 -16.333 -60.999 -43l-61 22c48.667 56.667 93 86.667 133 90c22 2 46.333 -5 73 -21c25.333 -18.667 44.666 -27.334 57.999 -26.001c18 1.33301 36.333 16 55 44z" />
    <glyph glyph-name="glyph336" unicode="&#x1ed7;" horiz-adv-x="593" 
d="M296 531c108.667 0 179.667 -17.5 213 -52.5s50 -107.167 50 -216.5c0 -107.333 -17.167 -178.833 -51.5 -214.5s-104.833 -53.5 -211.5 -53.5c-105.333 0 -175.333 18.167 -210 54.5s-52 107.5 -52 213.5c0 108 17 179.833 51 215.5s104.333 53.5 211 53.5zM299 399
c-45.333 0 -73.666 -13 -84.999 -39c-5.33301 -12.667 -8 -45.334 -8 -98.001c0 -52 2.66699 -84.333 8 -97c11.333 -26 39.666 -39 84.999 -39c42.667 0 69.334 12.667 80.001 38c5.33301 12.667 8 45.334 8 98.001s-2.66699 85.667 -8 99
c-10.667 25.333 -37.334 38 -80.001 38zM297 717l152 -115l-30 -37l-123 55l-127 -55l-32 37zM410 839l54.998 -16.999c-39.333 -52.667 -77.333 -80.667 -114 -84c-22 -2 -45.667 4 -71 18c-22 16.667 -37.667 24.667 -47 24c-19.333 -1.33301 -37.666 -14.333 -54.999 -39
l-55 20c42.667 51.333 82.667 78.333 120 81c20 1.33301 41.667 -5 65 -19c22.667 -16.667 40.334 -24.667 53.001 -24c14.667 1.33301 31 14.666 49 39.999z" />
    <glyph glyph-name="glyph337" unicode="&#x1ed8;" horiz-adv-x="760" 
d="M380 -6c-113.333 0 -196.333 17 -249 51c-65.333 42 -98 116.667 -98 224v212c0 107.333 32.667 182 98 224c52.667 34 135.667 51 249 51s196.333 -17 249 -51c65.333 -42 98 -116.667 98 -224v-212c0 -107.333 -32.667 -182 -98 -224
c-52.667 -34 -135.667 -51 -249 -51zM380 168c55.333 0 92.001 6.66895 110.001 20.002c20.667 15.333 31 49.666 31 102.999v169c0 53.333 -10.333 87.666 -31 102.999c-16.667 12.667 -53.334 19 -110.001 19c-56 0 -92.333 -6.33301 -109 -19
c-21.333 -16 -32 -50.333 -32 -103v-169c0 -53.333 10.667 -88 32 -104c16.667 -12.667 53 -19 109 -19zM381.001 960.002l169 -128l-33 -41l-137 61l-141 -61l-35 41zM461.001 -64.998v-108h-158v108l76 10z" />
    <glyph glyph-name="glyph338" unicode="&#x1ed9;" horiz-adv-x="593" 
d="M296 531c108.667 0 179.667 -17.5 213 -52.5s50 -107.167 50 -216.5c0 -107.333 -17.167 -178.833 -51.5 -214.5s-104.833 -53.5 -211.5 -53.5c-105.333 0 -175.333 18.167 -210 54.5s-52 107.5 -52 213.5c0 108 17 179.833 51 215.5s104.333 53.5 211 53.5zM299 399
c-45.333 0 -73.666 -13 -84.999 -39c-5.33301 -12.667 -8 -45.334 -8 -98.001c0 -52 2.66699 -84.333 8 -97c11.333 -26 39.666 -39 84.999 -39c42.667 0 69.334 12.667 80.001 38c5.33301 12.667 8 45.334 8 98.001s-2.66699 85.667 -8 99
c-10.667 25.333 -37.334 38 -80.001 38zM297 716l152 -115l-30 -37l-123 55l-127 -55l-31 37zM371 -59v-97h-142v97l68 9z" />
    <glyph glyph-name="glyph339" unicode="&#x1eda;" horiz-adv-x="760" 
d="M380 166c55.333 0 92.001 6.66895 110.001 20.002c20.667 15.333 31 49.666 31 102.999v169c0 53.333 -10.333 87.666 -31 102.999c-16.667 12.667 -53.334 19 -110.001 19c-56 0 -92.333 -6.33301 -109 -19c-21.333 -16 -32 -50.333 -32 -103v-169
c0 -53.333 10.667 -88 32 -104c16.667 -12.667 53 -19 109 -19zM604.001 717.002c39.333 5.33301 59 17 59 35c0 8.66699 -4.66699 14.334 -14 17.001c-2 13.333 2 25.166 12 35.499s21.667 15.5 35 15.5c26 0 39 -12.333 39 -37c0 -47.333 -29.667 -78 -89 -92
c54 -43.333 81 -114 81 -212v-212c0 -107.333 -32.667 -182 -98 -224c-52.667 -34 -135.667 -51 -249 -51s-196.333 17 -249 51c-65.333 42 -98 116.667 -98 224v212c0 107.333 32.667 182 98 224c52.667 34 135.667 51 249 51c99.333 0 174 -12.333 224 -37z
M449.001 961.002h159l-196 -136h-67z" />
    <glyph glyph-name="glyph340" unicode="&#x1edb;" horiz-adv-x="593" 
d="M299 399c-45.333 0 -73.666 -13 -84.999 -39c-5.33301 -12.667 -8 -45.334 -8 -98.001c0 -52 2.66699 -84.333 8 -97c11.333 -26 39.666 -39 84.999 -39c42.667 0 69.334 12.667 80.001 38c5.33301 12.667 8 45.334 8 98.001s-2.66699 85.667 -8 99
c-10.667 25.333 -37.334 38 -80.001 38zM437 518l68 -0.000976562c3.33301 0 6.83301 2.5 10.5 7.5s5.5 9.16699 5.5 12.5c0 8.66699 -4.33301 14 -13 16c-2 11.333 1.5 21.833 10.5 31.5s19.5 14.5 31.5 14.5c24 0 36 -11.333 36 -34c0 -39.333 -26 -67.666 -78 -84.999
c34 -33.333 51 -106.333 51 -219c0 -107.333 -17.167 -178.833 -51.5 -214.5s-104.833 -53.5 -211.5 -53.5c-105.333 0 -175.333 18.167 -210 54.5s-52 107.5 -52 213.5c0 108 17 179.833 51 215.5s104.333 53.5 211 53.5c62.667 0 109.667 -4.33301 141 -13zM359 733.999
h143l-176 -122h-61z" />
    <glyph glyph-name="glyph341" unicode="&#x1edc;" horiz-adv-x="760" 
d="M380 166c55.333 0 92.001 6.66895 110.001 20.002c20.667 15.333 31 49.666 31 102.999v169c0 53.333 -10.333 87.666 -31 102.999c-16.667 12.667 -53.334 19 -110.001 19c-56 0 -92.333 -6.33301 -109 -19c-21.333 -16 -32 -50.333 -32 -103v-169
c0 -53.333 10.667 -88 32 -104c16.667 -12.667 53 -19 109 -19zM604.001 717.002c39.333 5.33301 59 17 59 35c0 8.66699 -4.66699 14.334 -14 17.001c-2 13.333 2 25.166 12 35.499s21.667 15.5 35 15.5c26 0 39 -12.333 39 -37c0 -47.333 -29.667 -78 -89 -92
c54 -43.333 81 -114 81 -212v-212c0 -107.333 -32.667 -182 -98 -224c-52.667 -34 -135.667 -51 -249 -51s-196.333 17 -249 51c-65.333 42 -98 116.667 -98 224v212c0 107.333 32.667 182 98 224c52.667 34 135.667 51 249 51c99.333 0 174 -12.333 224 -37z
M415.001 825.002h-67l-196 136h159z" />
    <glyph glyph-name="glyph342" unicode="&#x1edd;" horiz-adv-x="593" 
d="M299 399c-45.333 0 -73.666 -13 -84.999 -39c-5.33301 -12.667 -8 -45.334 -8 -98.001c0 -52 2.66699 -84.333 8 -97c11.333 -26 39.666 -39 84.999 -39c42.667 0 69.334 12.667 80.001 38c5.33301 12.667 8 45.334 8 98.001s-2.66699 85.667 -8 99
c-10.667 25.333 -37.334 38 -80.001 38zM437 518l68 -0.000976562c3.33301 0 6.83301 2.5 10.5 7.5s5.5 9.16699 5.5 12.5c0 8.66699 -4.33301 14 -13 16c-2 11.333 1.5 21.833 10.5 31.5s19.5 14.5 31.5 14.5c24 0 36 -11.333 36 -34c0 -39.333 -26 -67.666 -78 -84.999
c34 -33.333 51 -106.333 51 -219c0 -107.333 -17.167 -178.833 -51.5 -214.5s-104.833 -53.5 -211.5 -53.5c-105.333 0 -175.333 18.167 -210 54.5s-52 107.5 -52 213.5c0 108 17 179.833 51 215.5s104.333 53.5 211 53.5c62.667 0 109.667 -4.33301 141 -13zM328 611.999
h-61l-166 122h133z" />
    <glyph glyph-name="glyph343" unicode="&#x1ede;" horiz-adv-x="760" 
d="M380 166c55.333 0 92.001 6.66895 110.001 20.002c20.667 15.333 31 49.666 31 102.999v169c0 53.333 -10.333 87.666 -31 102.999c-16.667 12.667 -53.334 19 -110.001 19c-56 0 -92.333 -6.33301 -109 -19c-21.333 -16 -32 -50.333 -32 -103v-169
c0 -53.333 10.667 -88 32 -104c16.667 -12.667 53 -19 109 -19zM604.001 717.002c39.333 5.33301 59 17 59 35c0 8.66699 -4.66699 14.334 -14 17.001c-2 13.333 2 25.166 12 35.499s21.667 15.5 35 15.5c26 0 39 -12.333 39 -37c0 -47.333 -29.667 -78 -89 -92
c54 -43.333 81 -114 81 -212v-212c0 -107.333 -32.667 -182 -98 -224c-52.667 -34 -135.667 -51 -249 -51s-196.333 17 -249 51c-65.333 42 -98 116.667 -98 224v212c0 107.333 32.667 182 98 224c52.667 34 135.667 51 249 51c99.333 0 174 -12.333 224 -37z
M414.001 845.002l-34 -30l-32 30v10c0 24.667 13.333 43.667 40 57l10 5c8 4 12 12 12 24c0 17.333 -9.66699 26 -29 26c-18.667 0 -28 -8.33301 -28 -25v-16h-46v16c0 26 7.33301 44 22 54c12 8.66699 31.667 13 59 13c58 0 87 -22 87 -66c0 -28 -16 -49 -48 -63
c-8.66699 -4 -13 -12.333 -13 -25v-10z" />
    <glyph glyph-name="glyph344" unicode="&#x1edf;" horiz-adv-x="593" 
d="M299 399c-45.333 0 -73.666 -13 -84.999 -39c-5.33301 -12.667 -8 -45.334 -8 -98.001c0 -52 2.66699 -84.333 8 -97c11.333 -26 39.666 -39 84.999 -39c42.667 0 69.334 12.667 80.001 38c5.33301 12.667 8 45.334 8 98.001s-2.66699 85.667 -8 99
c-10.667 25.333 -37.334 38 -80.001 38zM437 518l68 -0.000976562c3.33301 0 6.83301 2.5 10.5 7.5s5.5 9.16699 5.5 12.5c0 8.66699 -4.33301 14 -13 16c-2 11.333 1.5 21.833 10.5 31.5s19.5 14.5 31.5 14.5c24 0 36 -11.333 36 -34c0 -39.333 -26 -67.666 -78 -84.999
c34 -33.333 51 -106.333 51 -219c0 -107.333 -17.167 -178.833 -51.5 -214.5s-104.833 -53.5 -211.5 -53.5c-105.333 0 -175.333 18.167 -210 54.5s-52 107.5 -52 213.5c0 108 17 179.833 51 215.5s104.333 53.5 211 53.5c62.667 0 109.667 -4.33301 141 -13zM330 631.999
l-34 -30l-32 30v10c0 24.667 13.333 43.667 40 57l10 5c8 4 12 12 12 24c0 17.333 -9.66699 26 -29 26c-18.667 0 -28 -8.33301 -28 -25v-16h-46v16c0 26 7.33301 44 22 54c12 8.66699 31.667 13 59 13c58 0 87 -22 87 -66c0 -28 -16 -49 -48 -63
c-8.66699 -4 -13 -12.333 -13 -25v-10z" />
    <glyph glyph-name="glyph345" unicode="&#x1ee0;" horiz-adv-x="760" 
d="M380 166c55.333 0 92.001 6.66895 110.001 20.002c20.667 15.333 31 49.666 31 102.999v169c0 53.333 -10.333 87.666 -31 102.999c-16.667 12.667 -53.334 19 -110.001 19c-56 0 -92.333 -6.33301 -109 -19c-21.333 -16 -32 -50.333 -32 -103v-169
c0 -53.333 10.667 -88 32 -104c16.667 -12.667 53 -19 109 -19zM604.001 717.002c39.333 5.33301 59 17 59 35c0 8.66699 -4.66699 14.334 -14 17.001c-2 13.333 2 25.166 12 35.499s21.667 15.5 35 15.5c26 0 39 -12.333 39 -37c0 -47.333 -29.667 -78 -89 -92
c54 -43.333 81 -114 81 -212v-212c0 -107.333 -32.667 -182 -98 -224c-52.667 -34 -135.667 -51 -249 -51s-196.333 17 -249 51c-65.333 42 -98 116.667 -98 224v212c0 107.333 32.667 182 98 224c52.667 34 135.667 51 249 51c99.333 0 174 -12.333 224 -37z
M506.001 935.002l60.999 -18.999c-44 -58 -86.333 -89 -127 -93c-24 -2 -50.333 4.66699 -79 20c-23.333 18 -40.666 26.667 -51.999 26c-21.333 -2 -41.666 -16.333 -60.999 -43l-61 22c48.667 56.667 93 86.667 133 90c22 2 46.333 -5 73 -21
c25.333 -18.667 44.666 -27.334 57.999 -26.001c18 1.33301 36.333 16 55 44z" />
    <glyph glyph-name="glyph346" unicode="&#x1ee1;" horiz-adv-x="593" 
d="M299 399c-45.333 0 -73.666 -13 -84.999 -39c-5.33301 -12.667 -8 -45.334 -8 -98.001c0 -52 2.66699 -84.333 8 -97c11.333 -26 39.666 -39 84.999 -39c42.667 0 69.334 12.667 80.001 38c5.33301 12.667 8 45.334 8 98.001s-2.66699 85.667 -8 99
c-10.667 25.333 -37.334 38 -80.001 38zM437 518l68 -0.000976562c3.33301 0 6.83301 2.5 10.5 7.5s5.5 9.16699 5.5 12.5c0 8.66699 -4.33301 14 -13 16c-2 11.333 1.5 21.833 10.5 31.5s19.5 14.5 31.5 14.5c24 0 36 -11.333 36 -34c0 -39.333 -26 -67.666 -78 -84.999
c34 -33.333 51 -106.333 51 -219c0 -107.333 -17.167 -178.833 -51.5 -214.5s-104.833 -53.5 -211.5 -53.5c-105.333 0 -175.333 18.167 -210 54.5s-52 107.5 -52 213.5c0 108 17 179.833 51 215.5s104.333 53.5 211 53.5c62.667 0 109.667 -4.33301 141 -13zM410 715.999
l54.998 -16.999c-39.333 -52.667 -77.333 -80.667 -114 -84c-22 -2 -45.667 4 -71 18c-22 16.667 -37.667 24.667 -47 24c-19.333 -1.33301 -37.666 -14.333 -54.999 -39l-55 20c42.667 51.333 82.667 78.333 120 81c20 1.33301 41.667 -5 65 -19
c22.667 -16.667 40.334 -24.667 53.001 -24c14.667 1.33301 31 14.666 49 39.999z" />
    <glyph glyph-name="glyph347" unicode="&#x1ee2;" horiz-adv-x="760" 
d="M380 166c55.333 0 92.001 6.66895 110.001 20.002c20.667 15.333 31 49.666 31 102.999v169c0 53.333 -10.333 87.666 -31 102.999c-16.667 12.667 -53.334 19 -110.001 19c-56 0 -92.333 -6.33301 -109 -19c-21.333 -16 -32 -50.333 -32 -103v-169
c0 -53.333 10.667 -88 32 -104c16.667 -12.667 53 -19 109 -19zM604.001 717.002c39.333 5.33301 59 17 59 35c0 8.66699 -4.66699 14.334 -14 17.001c-2 13.333 2 25.166 12 35.499s21.667 15.5 35 15.5c26 0 39 -12.333 39 -37c0 -47.333 -29.667 -78 -89 -92
c54 -43.333 81 -114 81 -212v-212c0 -107.333 -32.667 -182 -98 -224c-52.667 -34 -135.667 -51 -249 -51s-196.333 17 -249 51c-65.333 42 -98 116.667 -98 224v212c0 107.333 32.667 182 98 224c52.667 34 135.667 51 249 51c99.333 0 174 -12.333 224 -37z
M461.001 -64.998v-108h-158v108l76 10z" />
    <glyph glyph-name="glyph348" unicode="&#x1ee3;" horiz-adv-x="593" 
d="M299 399c-45.333 0 -73.666 -13 -84.999 -39c-5.33301 -12.667 -8 -45.334 -8 -98.001c0 -52 2.66699 -84.333 8 -97c11.333 -26 39.666 -39 84.999 -39c42.667 0 69.334 12.667 80.001 38c5.33301 12.667 8 45.334 8 98.001s-2.66699 85.667 -8 99
c-10.667 25.333 -37.334 38 -80.001 38zM437 518l68 -0.000976562c3.33301 0 6.83301 2.5 10.5 7.5s5.5 9.16699 5.5 12.5c0 8.66699 -4.33301 14 -13 16c-2 11.333 1.5 21.833 10.5 31.5s19.5 14.5 31.5 14.5c24 0 36 -11.333 36 -34c0 -39.333 -26 -67.666 -78 -84.999
c34 -33.333 51 -106.333 51 -219c0 -107.333 -17.167 -178.833 -51.5 -214.5s-104.833 -53.5 -211.5 -53.5c-105.333 0 -175.333 18.167 -210 54.5s-52 107.5 -52 213.5c0 108 17 179.833 51 215.5s104.333 53.5 211 53.5c62.667 0 109.667 -4.33301 141 -13zM371 -59.001
v-97h-142v97l68 9z" />
    <glyph glyph-name="glyph349" unicode="&#x1ee4;" horiz-adv-x="771" 
d="M509 750h200.001v-500c0 -101.333 -28 -171.333 -84 -210c-45.333 -30.667 -122 -46 -230 -46c-78 0 -136.667 4.66699 -176 14c-71.333 16 -117 48 -137 96c-12.667 30 -19 78.667 -19 146v500h200v-496c0 -38.667 11.667 -63.667 35 -75
c15.333 -7.33301 47.666 -11 96.999 -11c45.333 0 75 5 89 15c16.667 12 25 38.667 25 80v487zM478.001 -65v-108h-158v108l76 10z" />
    <glyph glyph-name="glyph350" unicode="&#x1ee5;" horiz-adv-x="615" 
d="M555 0h-167.001l6 101h-8c-21.333 -71.333 -73.666 -107 -156.999 -107c-118.667 0 -178 57.333 -178 172v359h172v-313c0 -28.667 3.33301 -49 10 -61c9.33301 -16.667 27 -25 53 -25c25.333 0 47.333 6 66 18c20.667 14.667 31 34 31 58v323h172v-525zM370.999 -59v-97
h-142v97l68 9z" />
    <glyph glyph-name="glyph351" unicode="&#x1ee6;" horiz-adv-x="771" 
d="M509 750h200.001v-500c0 -101.333 -28 -171.333 -84 -210c-45.333 -30.667 -122 -46 -230 -46c-78 0 -136.667 4.66699 -176 14c-71.333 16 -117 48 -137 96c-12.667 30 -19 78.667 -19 146v500h200v-496c0 -38.667 11.667 -63.667 35 -75
c15.333 -7.33301 47.666 -11 96.999 -11c45.333 0 75 5 89 15c16.667 12 25 38.667 25 80v487zM421.001 820l-34 -30l-32 30v10c0 24.667 13.333 43.667 40 57l10 5c8 4 12 12 12 24c0 17.333 -9.66699 26 -29 26c-18.667 0 -28 -8.33301 -28 -25v-16h-46v16
c0 26 7.33301 44 22 54c12 8.66699 31.667 13 59 13c58 0 87 -22 87 -66c0 -28 -16 -49 -48 -63c-8.66699 -4 -13 -12.333 -13 -25v-10z" />
    <glyph glyph-name="glyph352" unicode="&#x1ee7;" horiz-adv-x="615" 
d="M555 0h-167.001l6 101h-8c-21.333 -71.333 -73.666 -107 -156.999 -107c-118.667 0 -178 57.333 -178 172v359h172v-313c0 -28.667 3.33301 -49 10 -61c9.33301 -16.667 27 -25 53 -25c25.333 0 47.333 6 66 18c20.667 14.667 31 34 31 58v323h172v-525zM329.999 598
l-34 -30l-32 30v10c0 24.667 13.333 43.667 40 57l10 5c8 4 12 12 12 24c0 17.333 -9.66699 26 -29 26c-18.667 0 -28 -8.33301 -28 -25v-16h-46v16c0 26 7.33301 44 22 54c12 8.66699 31.667 13 59 13c58 0 87 -22 87 -66c0 -28 -16 -49 -48 -63
c-8.66699 -4 -13 -12.333 -13 -25v-10z" />
    <glyph glyph-name="glyph353" unicode="&#x1ee8;" horiz-adv-x="771" 
d="M709 687l0.00195312 -437c0 -101.333 -28 -171.333 -84 -210c-45.333 -30.667 -122 -46 -230 -46c-78 0 -136.667 4.66699 -176 14c-71.333 16 -117 48 -137 96c-12.667 30 -19 78.667 -19 146v500h200v-496c0 -38.667 11.667 -63.667 35 -75
c15.333 -7.33301 47.666 -11 96.999 -11c45.333 0 75 5 89 15c16.667 12 25 38.667 25 80v487l155 -10l45 -13c12 6 18 14.333 18 25c0 8.66699 -4.66699 14.334 -14 17.001c-2 13.333 2 25.166 12 35.499s21.667 15.5 35 15.5c26 0 39 -12.333 39 -37
c0 -23.333 -8.83301 -43.5 -26.5 -60.5s-38.834 -28.833 -63.501 -35.5zM456.002 936h159l-196 -136h-67z" />
    <glyph glyph-name="glyph354" unicode="&#x1ee9;" horiz-adv-x="615" 
d="M555 480l-0.000976562 -480h-167l6 101h-8c-21.333 -71.333 -73.666 -107 -156.999 -107c-118.667 0 -178 57.333 -178 172v359h172v-313c0 -28.667 3.33301 -49 10 -61c9.33301 -16.667 27 -25 53 -25c25.333 0 47.333 6 66 18c20.667 14.667 31 34 31 58v323l172 -7
c2.66699 0 6 2.5 10 7.5s6 9.16699 6 12.5c0 8.66699 -4.33301 14 -13 16c-2 11.333 1.5 21.833 10.5 31.5s19.5 14.5 31.5 14.5c24 0 36 -11.333 36 -34c0 -41.333 -27 -70 -81 -86zM358.999 700h143l-176 -122h-61z" />
    <glyph glyph-name="glyph355" unicode="&#x1eea;" horiz-adv-x="771" 
d="M709 687l0.00195312 -437c0 -101.333 -28 -171.333 -84 -210c-45.333 -30.667 -122 -46 -230 -46c-78 0 -136.667 4.66699 -176 14c-71.333 16 -117 48 -137 96c-12.667 30 -19 78.667 -19 146v500h200v-496c0 -38.667 11.667 -63.667 35 -75
c15.333 -7.33301 47.666 -11 96.999 -11c45.333 0 75 5 89 15c16.667 12 25 38.667 25 80v487l155 -10l45 -13c12 6 18 14.333 18 25c0 8.66699 -4.66699 14.334 -14 17.001c-2 13.333 2 25.166 12 35.499s21.667 15.5 35 15.5c26 0 39 -12.333 39 -37
c0 -23.333 -8.83301 -43.5 -26.5 -60.5s-38.834 -28.833 -63.501 -35.5zM424.002 800h-67l-196 136h159z" />
    <glyph glyph-name="glyph356" unicode="&#x1eeb;" horiz-adv-x="615" 
d="M555 480l-0.000976562 -480h-167l6 101h-8c-21.333 -71.333 -73.666 -107 -156.999 -107c-118.667 0 -178 57.333 -178 172v359h172v-313c0 -28.667 3.33301 -49 10 -61c9.33301 -16.667 27 -25 53 -25c25.333 0 47.333 6 66 18c20.667 14.667 31 34 31 58v323l172 -7
c2.66699 0 6 2.5 10 7.5s6 9.16699 6 12.5c0 8.66699 -4.33301 14 -13 16c-2 11.333 1.5 21.833 10.5 31.5s19.5 14.5 31.5 14.5c24 0 36 -11.333 36 -34c0 -41.333 -27 -70 -81 -86zM335.999 578h-61l-166 122h133z" />
    <glyph glyph-name="glyph357" unicode="&#x1eec;" horiz-adv-x="771" 
d="M709 687l0.00195312 -437c0 -101.333 -28 -171.333 -84 -210c-45.333 -30.667 -122 -46 -230 -46c-78 0 -136.667 4.66699 -176 14c-71.333 16 -117 48 -137 96c-12.667 30 -19 78.667 -19 146v500h200v-496c0 -38.667 11.667 -63.667 35 -75
c15.333 -7.33301 47.666 -11 96.999 -11c45.333 0 75 5 89 15c16.667 12 25 38.667 25 80v487l155 -10l45 -13c12 6 18 14.333 18 25c0 8.66699 -4.66699 14.334 -14 17.001c-2 13.333 2 25.166 12 35.499s21.667 15.5 35 15.5c26 0 39 -12.333 39 -37
c0 -23.333 -8.83301 -43.5 -26.5 -60.5s-38.834 -28.833 -63.501 -35.5zM421.002 820l-34 -30l-32 30v10c0 24.667 13.333 43.667 40 57l10 5c8 4 12 12 12 24c0 17.333 -9.66699 26 -29 26c-18.667 0 -28 -8.33301 -28 -25v-16h-46v16c0 26 7.33301 44 22 54
c12 8.66699 31.667 13 59 13c58 0 87 -22 87 -66c0 -28 -16 -49 -48 -63c-8.66699 -4 -13 -12.333 -13 -25v-10z" />
    <glyph glyph-name="glyph358" unicode="&#x1eed;" horiz-adv-x="615" 
d="M555 480l-0.000976562 -480h-167l6 101h-8c-21.333 -71.333 -73.666 -107 -156.999 -107c-118.667 0 -178 57.333 -178 172v359h172v-313c0 -28.667 3.33301 -49 10 -61c9.33301 -16.667 27 -25 53 -25c25.333 0 47.333 6 66 18c20.667 14.667 31 34 31 58v323l172 -7
c2.66699 0 6 2.5 10 7.5s6 9.16699 6 12.5c0 8.66699 -4.33301 14 -13 16c-2 11.333 1.5 21.833 10.5 31.5s19.5 14.5 31.5 14.5c24 0 36 -11.333 36 -34c0 -41.333 -27 -70 -81 -86zM329.999 598l-34 -30l-32 30v10c0 24.667 13.333 43.667 40 57l10 5c8 4 12 12 12 24
c0 17.333 -9.66699 26 -29 26c-18.667 0 -28 -8.33301 -28 -25v-16h-46v16c0 26 7.33301 44 22 54c12 8.66699 31.667 13 59 13c58 0 87 -22 87 -66c0 -28 -16 -49 -48 -63c-8.66699 -4 -13 -12.333 -13 -25v-10z" />
    <glyph glyph-name="glyph359" unicode="&#x1eee;" horiz-adv-x="771" 
d="M709 687l0.00195312 -437c0 -101.333 -28 -171.333 -84 -210c-45.333 -30.667 -122 -46 -230 -46c-78 0 -136.667 4.66699 -176 14c-71.333 16 -117 48 -137 96c-12.667 30 -19 78.667 -19 146v500h200v-496c0 -38.667 11.667 -63.667 35 -75
c15.333 -7.33301 47.666 -11 96.999 -11c45.333 0 75 5 89 15c16.667 12 25 38.667 25 80v487l155 -10l45 -13c12 6 18 14.333 18 25c0 8.66699 -4.66699 14.334 -14 17.001c-2 13.333 2 25.166 12 35.499s21.667 15.5 35 15.5c26 0 39 -12.333 39 -37
c0 -23.333 -8.83301 -43.5 -26.5 -60.5s-38.834 -28.833 -63.501 -35.5zM513.002 910l60.999 -18.999c-44 -58 -86.333 -89 -127 -93c-24 -2 -50.333 4.66699 -79 20c-23.333 18 -40.666 26.667 -51.999 26c-21.333 -2 -41.666 -16.333 -60.999 -43l-61 22
c48.667 56.667 93 86.667 133 90c22 2 46.333 -5 73 -21c25.333 -18.667 44.666 -27.334 57.999 -26.001c18 1.33301 36.333 16 55 44z" />
    <glyph glyph-name="glyph360" unicode="&#x1eef;" horiz-adv-x="615" 
d="M555 480l-0.000976562 -480h-167l6 101h-8c-21.333 -71.333 -73.666 -107 -156.999 -107c-118.667 0 -178 57.333 -178 172v359h172v-313c0 -28.667 3.33301 -49 10 -61c9.33301 -16.667 27 -25 53 -25c25.333 0 47.333 6 66 18c20.667 14.667 31 34 31 58v323l172 -7
c2.66699 0 6 2.5 10 7.5s6 9.16699 6 12.5c0 8.66699 -4.33301 14 -13 16c-2 11.333 1.5 21.833 10.5 31.5s19.5 14.5 31.5 14.5c24 0 36 -11.333 36 -34c0 -41.333 -27 -70 -81 -86zM417.999 687l54.998 -16.999c-39.333 -52.667 -77.333 -80.667 -114 -84
c-22 -2 -45.667 4 -71 18c-22 16.667 -37.667 24.667 -47 24c-19.333 -1.33301 -37.666 -14.333 -54.999 -39l-55 20c42.667 51.333 82.667 78.333 120 81c20 1.33301 41.667 -5 65 -19c22.667 -16.667 40.334 -24.667 53.001 -24c14.667 1.33301 31 14.666 49 39.999z" />
    <glyph glyph-name="glyph361" unicode="&#x1ef0;" horiz-adv-x="771" 
d="M709 687l0.00195312 -437c0 -101.333 -28 -171.333 -84 -210c-45.333 -30.667 -122 -46 -230 -46c-78 0 -136.667 4.66699 -176 14c-71.333 16 -117 48 -137 96c-12.667 30 -19 78.667 -19 146v500h200v-496c0 -38.667 11.667 -63.667 35 -75
c15.333 -7.33301 47.666 -11 96.999 -11c45.333 0 75 5 89 15c16.667 12 25 38.667 25 80v487l155 -10l45 -13c12 6 18 14.333 18 25c0 8.66699 -4.66699 14.334 -14 17.001c-2 13.333 2 25.166 12 35.499s21.667 15.5 35 15.5c26 0 39 -12.333 39 -37
c0 -23.333 -8.83301 -43.5 -26.5 -60.5s-38.834 -28.833 -63.501 -35.5zM478.002 -65v-108h-158v108l76 10z" />
    <glyph glyph-name="glyph362" unicode="&#x1ef1;" horiz-adv-x="615" 
d="M555 480l-0.000976562 -480h-167l6 101h-8c-21.333 -71.333 -73.666 -107 -156.999 -107c-118.667 0 -178 57.333 -178 172v359h172v-313c0 -28.667 3.33301 -49 10 -61c9.33301 -16.667 27 -25 53 -25c25.333 0 47.333 6 66 18c20.667 14.667 31 34 31 58v323l172 -7
c2.66699 0 6 2.5 10 7.5s6 9.16699 6 12.5c0 8.66699 -4.33301 14 -13 16c-2 11.333 1.5 21.833 10.5 31.5s19.5 14.5 31.5 14.5c24 0 36 -11.333 36 -34c0 -41.333 -27 -70 -81 -86zM370.999 -59v-97h-142v97l68 9z" />
    <glyph glyph-name="glyph363" unicode="&#x1ef2;" horiz-adv-x="708" 
d="M724 750l-274 -487v-263h-200v263l-266 487h229l134 -289h7l138 289h232zM387 790h-67l-196 136h159z" />
    <glyph glyph-name="glyph364" unicode="&#x1ef3;" horiz-adv-x="533" 
d="M540 525l-132 -571c-16 -70 -40 -118.667 -72 -146s-83.333 -41 -154 -41c-5.33301 0 -25 1 -59 3v119c13.333 -1.33301 23.333 -2 30 -2c56 0 86 37.667 90 113h-94l-156 525h180l104 -427h2l85 427h176zM300 568h-61l-166 122h133z" />
    <glyph glyph-name="glyph365" unicode="&#x1ef4;" horiz-adv-x="708" 
d="M724 750l-274 -487v-263h-200v263l-266 487h229l134 -289h7l138 289h232zM430 -60v-108h-158v108l76 10z" />
    <glyph glyph-name="glyph366" unicode="&#x1ef5;" horiz-adv-x="533" 
d="M540 525l-132 -571c-16 -70 -40 -118.667 -72 -146s-83.333 -41 -154 -41c-5.33301 0 -25 1 -59 3v119c13.333 -1.33301 23.333 -2 30 -2c56 0 86 37.667 90 113h-94l-156 525h180l104 -427h2l85 427h176zM590 -46v-97h-142v97l68 9z" />
    <glyph glyph-name="glyph367" unicode="&#x1ef6;" horiz-adv-x="708" 
d="M724 750l-274 -487v-263h-200v263l-266 487h229l134 -289h7l138 289h232zM386 811l-34 -30l-32 30v10c0 24.667 13.333 43.667 40 57l10 5c8 4 12 12 12 24c0 17.333 -9.66699 26 -29 26c-18.667 0 -28 -8.33301 -28 -25v-16h-46v16c0 26 7.33301 44 22 54
c12 8.66699 31.667 13 59 13c58 0 87 -22 87 -66c0 -28 -16 -49 -48 -63c-8.66699 -4 -13 -12.333 -13 -25v-10z" />
    <glyph glyph-name="glyph368" unicode="&#x1ef7;" horiz-adv-x="533" 
d="M540 525l-132 -571c-16 -70 -40 -118.667 -72 -146s-83.333 -41 -154 -41c-5.33301 0 -25 1 -59 3v119c13.333 -1.33301 23.333 -2 30 -2c56 0 86 37.667 90 113h-94l-156 525h180l104 -427h2l85 427h176zM302 588l-34 -30l-32 30v10c0 24.667 13.333 43.667 40 57l10 5
c8 4 12 12 12 24c0 17.333 -9.66699 26 -29 26c-18.667 0 -28 -8.33301 -28 -25v-16h-46v16c0 26 7.33301 44 22 54c12 8.66699 31.667 13 59 13c58 0 87 -22 87 -66c0 -28 -16 -49 -48 -63c-8.66699 -4 -13 -12.333 -13 -25v-10z" />
    <glyph glyph-name="glyph369" unicode="&#x1ef8;" horiz-adv-x="708" 
d="M724 750l-274 -487v-263h-200v263l-266 487h229l134 -289h7l138 289h232zM478 909l60.999 -18.999c-44 -58 -86.333 -89 -127 -93c-24 -2 -50.333 4.66699 -79 20c-23.333 18 -40.666 26.667 -51.999 26c-21.333 -2 -41.666 -16.333 -60.999 -43l-61 22
c48.667 56.667 93 86.667 133 90c22 2 46.333 -5 73 -21c25.333 -18.667 44.666 -27.334 57.999 -26.001c18 1.33301 36.333 16 55 44z" />
    <glyph glyph-name="glyph370" unicode="&#x1ef9;" horiz-adv-x="533" 
d="M540 525l-132 -571c-16 -70 -40 -118.667 -72 -146s-83.333 -41 -154 -41c-5.33301 0 -25 1 -59 3v119c13.333 -1.33301 23.333 -2 30 -2c56 0 86 37.667 90 113h-94l-156 525h180l104 -427h2l85 427h176zM382 677l54.998 -16.999
c-39.333 -52.667 -77.333 -80.667 -114 -84c-22 -2 -45.667 4 -71 18c-22 16.667 -37.667 24.667 -47 24c-19.333 -1.33301 -37.666 -14.333 -54.999 -39l-55 20c42.667 51.333 82.667 78.333 120 81c20 1.33301 41.667 -5 65 -19c22.667 -16.667 40.334 -24.667 53.001 -24
c14.667 1.33301 31 14.666 49 39.999z" />
    <glyph glyph-name="endash" unicode="&#x2013;" horiz-adv-x="500" 
d="M0 358h500v-164h-500v164z" />
    <glyph glyph-name="emdash" unicode="&#x2014;" horiz-adv-x="1000" 
d="M0 358h1000v-164h-1000v164z" />
    <glyph glyph-name="quoteleft" unicode="&#x2018;" horiz-adv-x="264" 
d="M208 446l-162 -0.000976562v168c0 53.333 12 90.5 36 111.5s69.333 31.167 136 30.5v-75c-28 -0.666992 -47 -5.66699 -57 -15s-15 -26.666 -15 -51.999h62v-168z" />
    <glyph glyph-name="quoteright" unicode="&#x2019;" horiz-adv-x="264" 
d="M56 750l162.001 0.000976562v-168c0 -53.333 -11.667 -90 -35 -110c-24.667 -22 -70.334 -32.667 -137.001 -32v75c28 0.666992 47 5.66699 57 15s15 26.666 15 51.999h-62v168z" />
    <glyph glyph-name="quotesinglbase" unicode="&#x201a;" horiz-adv-x="264" 
d="M56 168l162.001 0.000976562v-168c0 -53.333 -11.667 -90 -35 -110c-24.667 -22 -70.334 -32.667 -137.001 -32v75c28 0.666992 47 5.66699 57 15s15 26.666 15 51.999h-62v168z" />
    <glyph glyph-name="quotedblleft" unicode="&#x201c;" horiz-adv-x="489" 
d="M433 446l-162 -0.000976562v168c0 53.333 12 90.5 36 111.5s69.333 31.167 136 30.5v-75c-28 -0.666992 -47 -5.66699 -57 -15s-15 -26.666 -15 -51.999h62v-168zM208 445.999l-162 -0.000976562v168c0 53.333 12 90.5 36 111.5s69.333 31.167 136 30.5v-75
c-28 -0.666992 -47 -5.66699 -57 -15s-15 -26.666 -15 -51.999h62v-168z" />
    <glyph glyph-name="quotedblright" unicode="&#x201d;" horiz-adv-x="489" 
d="M56 750l162.001 0.000976562v-168c0 -53.333 -11.667 -90 -35 -110c-24.667 -22 -70.334 -32.667 -137.001 -32v75c28 0.666992 47 5.66699 57 15s15 26.666 15 51.999h-62v168zM281.001 750.001l162.001 0.000976562v-168c0 -53.333 -11.667 -90 -35 -110
c-24.667 -22 -70.334 -32.667 -137.001 -32v75c28 0.666992 47 5.66699 57 15s15 26.666 15 51.999h-62v168z" />
    <glyph glyph-name="quotedblbase" unicode="&#x201e;" horiz-adv-x="489" 
d="M54 168l162.001 0.000976562v-168c0 -53.333 -11.667 -90 -35 -110c-24.667 -22 -70.334 -32.667 -137.001 -32v75c28 0.666992 47 5.66699 57 15s15 26.666 15 51.999h-62v168zM279.001 168.001l162.001 0.000976562v-168c0 -53.333 -11.667 -90 -35 -110
c-24.667 -22 -70.334 -32.667 -137.001 -32v75c28 0.666992 47 5.66699 57 15s15 26.666 15 51.999h-62v168z" />
    <glyph glyph-name="dagger" unicode="&#x2020;" 
d="M446 750v-219h182v-132h-182v-626h-172v626h-182v132h182v219h172z" />
    <glyph glyph-name="daggerdbl" unicode="&#x2021;" 
d="M446 750v-225h182v-132h-182v-261h182v-132h-182v-227h-172v227h-182v132h182v261h-182v132h182v225h172z" />
    <glyph glyph-name="bullet" unicode="&#x2022;" horiz-adv-x="600" 
d="M488 375c0 -51.333 -18.333 -95.333 -55 -132s-81 -55 -133 -55c-51.333 0 -95.166 18 -131.499 54s-54.833 80.333 -55.5 133c-0.666992 52 17.166 96.333 53.499 133s80.833 55 133.5 55c52 0 96.333 -18.333 133 -55s55 -81 55 -133z" />
    <glyph glyph-name="ellipsis" unicode="&#x2026;" horiz-adv-x="1000" 
d="M247 174v-174h-162v174h162zM581 174v-174h-162v174h162zM915 174v-174h-162v174h162z" />
    <glyph glyph-name="perthousand" unicode="&#x2030;" horiz-adv-x="1290" 
d="M1267 240l0.000976562 -109.998c0 -56.667 -13 -94.334 -39 -113.001c-21.333 -15.333 -63.333 -23 -126 -23c-62 0 -103.333 7.33301 -124 22c-24 18 -36 55.667 -36 113v110c0 57.333 12 95 36 113c20.667 15.333 61.667 23 123 23
c63.333 0 105.666 -7.33301 126.999 -22c26 -18.667 39 -56.334 39 -113.001zM1167 145.002l0.00195312 83.001c0 28 -3.83301 45 -11.5 51s-25.834 9 -54.501 9c-26.667 0 -43.167 -3.33301 -49.5 -10s-9.5 -23.334 -9.5 -50.001v-83c0 -28.667 3 -46.5 9 -53.5
s22.667 -10.5 50 -10.5s44.666 2.66699 51.999 8c9.33301 8 14 26.667 14 56zM742.003 750.003l-443 -750h-120l443 750h120zM884.003 240.003l0.000976562 -109.998c0 -56.667 -13 -94.334 -39 -113.001c-21.333 -15.333 -63.333 -23 -126 -23
c-62 0 -103.333 7.33301 -124 22c-24 18 -36 55.667 -36 113v110c0 57.333 12 95 36 113c20.667 15.333 61.667 23 123 23c63.333 0 105.666 -7.33301 126.999 -22c26 -18.667 39 -56.334 39 -113.001zM784.004 145.005l0.00195312 83.001c0 28 -3.83301 45 -11.5 51
s-25.834 9 -54.501 9c-26.667 0 -43.167 -3.33301 -49.5 -10s-9.5 -23.334 -9.5 -50.001v-83c0 -28.667 3 -46.5 9 -53.5s22.667 -10.5 50 -10.5s44.666 2.66699 51.999 8c9.33301 8 14 26.667 14 56zM348.006 621.006l0.000976562 -109.998
c0 -56.667 -13 -94.334 -39 -113.001c-21.333 -15.333 -63.333 -23 -126 -23c-62 0 -103.333 7.33301 -124 22c-24 18 -36 55.667 -36 113v110c0 57.333 12 95 36 113c20.667 15.333 61.667 23 123 23c63.333 0 105.666 -7.33301 126.999 -22
c26 -18.667 39 -56.334 39 -113.001zM248.007 526.008l0.00195312 83.001c0 28 -3.83301 45 -11.5 51s-25.834 9 -54.501 9c-26.667 0 -43.167 -3.33301 -49.5 -10s-9.5 -23.334 -9.5 -50.001v-83c0 -28.667 3 -46.5 9 -53.5s22.667 -10.5 50 -10.5s44.666 2.66699 51.999 8
c9.33301 8 14 26.667 14 56z" />
    <glyph glyph-name="guilsinglleft" unicode="&#x2039;" horiz-adv-x="331" 
d="M172 515l113 -61l-96 -182l96 -169l-107 -66l-134 235z" />
    <glyph glyph-name="guilsinglright" unicode="&#x203a;" horiz-adv-x="330" 
d="M152 37l-113 61l96 182l-96 169l107 66l134 -235z" />
    <glyph glyph-name="fraction" unicode="&#x2044;" horiz-adv-x="218" 
d="M390 750l-443 -750h-120l443 750h120z" />
    <glyph glyph-name="franc" unicode="&#x20a3;" horiz-adv-x="1035" 
d="M255 586v-147h306v-164h-306v-275h-200v750h532v-164h-332zM987 296v25c0 26 -1.66699 43.667 -5 53c-6 16.667 -19.333 25 -40 25c-42.667 0 -64 -28 -64 -84v-315h-172v525h167v-77h7c21.333 55.333 65.333 83 132 83c54 0 90.667 -20.333 110 -61
c13.333 -28 20 -72.333 20 -133v-41h-155z" />
    <glyph glyph-name="u20AB" unicode="&#x20ab;" horiz-adv-x="393" 
d="M197 501c-32 0 -60 -29.333 -84 -88c-13.333 -32.667 -20 -62.667 -20 -90c0 -34 13 -51 39 -51c27.333 0 52 23.667 74 71c18.667 40 28 75.667 28 107c0 34 -12.333 51 -37 51zM200 267c-35.333 -41.333 -70.666 -62.002 -105.999 -62.002
c-30 0 -52.667 9.33301 -68 28s-23 43.334 -23 74.001c0 53.333 18.333 104.333 55 153c39.333 52 84.666 78 135.999 78c22.667 0 43 -8 61 -24l20 75h-100l10 36h100l2 16c0 20.667 -16 31.334 -48 32.001l7 33c44.667 1.33301 87.334 6 128.001 14l15 3c4 0 6 -3 6 -9
l-3 -12l-19 -77h65l-10 -36h-65l-69 -280c-3.33301 -13.333 -5 -22.333 -5 -27c0 -10 4 -15 12 -15c4 0 20.333 14 49 42l20 -18c-46.667 -57.333 -85.667 -86 -117 -86c-28.667 0 -46.334 20.667 -53.001 62zM9 159.998h221v-56h-221v56z" />
    <glyph glyph-name="trademark" unicode="&#x2122;" horiz-adv-x="860" 
d="M864 750v-404h-93v323h-2l-117 -323h-52l-117 323h-2v-323h-93v404h147l91 -239l91 239h147zM344 750v-83h-123v-321h-102v321h-123v83h348z" />
    <glyph glyph-name="minus" unicode="&#x2212;" horiz-adv-x="600" 
d="M50 219v115h500v-115h-500z" />
    <glyph glyph-name="SF370000" unicode="&#x255f;" horiz-adv-x="718" 
d="M502 129h-269l-37 -129h-208l225 750h304l228 -750h-204zM462 275l-93 325h-2l-91 -325h186z" />
    <glyph glyph-name="SF420000" unicode="&#x2560;" horiz-adv-x="681" 
d="M264 586v-137h320v-139h-320v-146h348v-164h-548v750h541v-164h-341z" />
    <glyph glyph-name="SF190000" unicode="&#x2561;" horiz-adv-x="429" 
d="M262 750v-750h-200v750h200z" />
    <glyph glyph-name="SF200000" unicode="&#x2562;" horiz-adv-x="773" 
d="M380 -6c-114 0 -197.333 17 -250 51c-64.667 42 -97 116.667 -97 224v212c0 107.333 32.333 182 97 224c52.667 34 136 51 250 51s197.333 -17 250 -51c64.667 -42 97 -116.667 97 -224v-212c0 -107.333 -32.333 -182 -97 -224c-52.667 -34 -136 -51 -250 -51zM380 168
c56 0 92.667 6.66797 110 20.001c20.667 15.333 31 49.666 31 102.999v169c0 52.667 -10.333 87 -31 103c-17.333 12.667 -54 19 -110 19s-92.333 -6.33301 -109 -19c-21.333 -16 -32 -50.333 -32 -103v-169c0 -53.333 10.667 -88 32 -104c16.667 -12.667 53 -19 109 -19z
" />
    <glyph glyph-name="SF230000" unicode="&#x2563;" horiz-adv-x="811" 
d="M509 750l200.001 -0.000976562v-500c0 -97.333 -24.667 -165 -74 -203c-46.667 -35.333 -126.667 -53 -240 -53c-98 0 -170.5 8.5 -217.5 25.5s-78.833 45.167 -95.5 84.5c-12.667 30.667 -19 79.334 -19 146.001v500h200v-496c0 -38.667 11.667 -63.667 35 -75
c15.333 -7.33301 47.666 -11 96.999 -11c46 0 75.667 5 89 15c16.667 11.333 25 38 25 80v487z" />
    <glyph glyph-name="SF470000" unicode="&#x2564;" horiz-adv-x="699" 
d="M724 750l-274 -487v-263h-200v263l-266 487h229l134 -289h7l138 289h232z" />
    <glyph glyph-name="SF480000" unicode="&#x2565;" horiz-adv-x="541" 
d="M288 217c-50 0 -74.999 -18.333 -74.999 -55c0 -38 25 -57 75 -57c33.333 0 55.333 2.33301 66 7c18.667 8.66699 28 27.667 28 57c0 20 -8.66699 33.667 -26 41c-12.667 4.66699 -35.334 7 -68.001 7zM382.001 0l6 77.999h-6c-10 -56 -60.333 -84 -151 -84
c-65.333 0 -112 10.333 -140 31c-33.333 24.667 -50 68.667 -50 132c0 60.667 16.333 104 49 130c29.333 23.333 76.333 35 141 35c37.333 0 65 -2.33301 83 -7c32 -8.66699 52 -26 60 -52h8v83c0 28.667 -3.66699 48 -11 58c-10.667 14.667 -33 22 -67 22
c-46.667 0 -70 -19 -70 -57h-172c0 72.667 25 120 75 142c29.333 13.333 85 20 167 20c95.333 0 159 -11.333 191 -34c39.333 -27.333 59 -83.666 59 -168.999v-328h-172z" />
    <glyph glyph-name="SF410000" unicode="&#x2566;" horiz-adv-x="431" 
d="M202 328h169c0 36 -7.33301 59.667 -22 71c-10.667 8 -32.334 12 -65.001 12c-31.333 0 -52.666 -5.33301 -63.999 -16s-17.333 -33 -18 -67zM374 175h169.001c0 -56.667 -13.167 -98.5 -39.5 -125.5s-67.166 -43.833 -122.499 -50.5c-24.667 -3.33301 -56 -5 -94 -5
c-100.667 0 -169.334 20.333 -206.001 61c-34 37.333 -51 106.333 -51 207c0 103.333 16.333 173.333 49 210c35.333 39.333 104.666 59 207.999 59c99.333 0 166.833 -18.333 202.5 -55s53.5 -108 53.5 -214v-29h-341c0 -47.333 5.5 -79 16.5 -95s33.833 -24 68.5 -24
c30.667 0 51.667 3.33301 63 10c16 8.66699 24 25.667 24 51z" />
    <glyph glyph-name="SF450000" unicode="&#x2567;" horiz-adv-x="314" 
d="M215 525v-525h-172v525h172zM215 750v-132h-172v132h172z" />
    <glyph glyph-name="SF460000" unicode="&#x2568;" horiz-adv-x="314" 
d="M215 525v-525h-172v525h172z" />
    <glyph glyph-name="SF400000" unicode="&#x2569;" horiz-adv-x="498" 
d="M296 531c109.333 0 180.5 -17 213.5 -51s49.5 -106.667 49.5 -218c0 -108.667 -16.833 -180.5 -50.5 -215.5s-104.5 -52.5 -212.5 -52.5c-106 0 -176.167 18 -210.5 54s-51.5 107.333 -51.5 214c0 108.667 16.667 180.667 50 216s104 53 212 53zM299 399
c-45.333 0 -73.666 -12.999 -84.999 -38.999c-5.33301 -12.667 -8 -45.334 -8 -98.001c0 -52 2.66699 -84.333 8 -97c11.333 -26 39.666 -39 84.999 -39c39.333 0 63.833 8 73.5 24s14.5 53.333 14.5 112s-4.83301 96.167 -14.5 112.5s-34.167 24.5 -73.5 24.5z" />
    <glyph glyph-name="SF540000" unicode="&#x256a;" horiz-adv-x="557" 
d="M555 0h-167.002l6 101h-8c-21.333 -71.333 -73.666 -107 -156.999 -107c-118.667 0 -178 57.333 -178 172v359h172v-313c0 -28.667 3.33301 -49 10 -61c8.66699 -16.667 26.334 -25 53.001 -25c25.333 0 47.833 6.66699 67.5 20s29.5 32 29.5 56v323h172v-525z" />
    <glyph glyph-name="SF530000" unicode="&#x256b;" horiz-adv-x="497" 
d="M540 525l-132 -571c-16 -70.667 -39.333 -119 -70 -145c-32.667 -28 -84.667 -42 -156 -42c0.666992 0 -19 1 -59 3v119c13.333 -1.33301 23.333 -2 30 -2c56 0 86 37.667 90 113h-94l-156 525h180l104 -427h2l85 427h176z" />
    <glyph glyph-name="circle" unicode="&#x25cb;" horiz-adv-x="718" 
d="M482 988l183 -109l-25 -57l-158 62l-152 -62l-27 57zM481 1176l50 -111l-226 -71l-28 62z" />
    <glyph glyph-name="H18533" unicode="&#x25cf;" horiz-adv-x="718" 
d="M482 988l183 -109l-25 -57l-158 62l-152 -62l-27 57zM436 1177l204 -120l-28 -62l-226 71z" />
    <glyph glyph-name="invbullet" unicode="&#x25d8;" horiz-adv-x="718" 
d="M482 988l183 -109l-25 -57l-158 62l-152 -62l-27 57zM614 903c6 19.333 9.66602 40.668 10.999 64.001c0.666992 7.33301 3.33398 11.666 8.00098 12.999c2 0 4.66699 0.333008 8 1c44.667 7.33301 67 25.333 67 54c0 23.333 -9.33301 35 -28 35
c-3.33301 0 -8 -0.333008 -14 -1s-10.667 -1 -14 -1c-14 0 -21 6 -21 18c0 18.667 10.667 28 32 28c30.667 0 56 -8.5 76 -25.5s28.667 -40.5 26 -70.5c-4 -39.333 -33 -66.333 -87 -81c-16.667 -4.66699 -27 -16 -31 -34h-33z" />
    <glyph glyph-name="invcircle" unicode="&#x25d9;" horiz-adv-x="718" 
d="M482 988l183 -109l-25 -57l-158 62l-152 -62l-27 57zM703 1153l81.999 -41c-32.667 -66 -73.667 -99 -123 -99c-29.333 0 -62.166 11.333 -98.499 34s-60.166 34 -71.499 34c-24 0 -44 -15 -60 -45l-82 44c36.667 64 80 96 130 96c26 0 57.167 -11.5 93.5 -34.5
s62.166 -34.5 77.499 -34.5c20 0 37.333 15.333 52 46z" />
    <glyph glyph-name="fi" unicode="&#xf001;" horiz-adv-x="651" 
d="M608 525v-525h-172v525h172zM608 750v-132h-172v132h172zM371 750l0.00195312 -130.999c-11.333 3.33301 -22 5 -32 5c-36.667 0 -58.834 -4.66699 -66.501 -14s-11.5 -31.333 -11.5 -66v-19h117v-126h-117v-399h-172v399h-69v126h69v51c0 70 18.667 116.667 56 140
s112.666 34.666 225.999 33.999z" />
    <glyph glyph-name="fl" unicode="&#xf002;" horiz-adv-x="666" 
d="M608 750v-750h-172v750h172zM378 525l0.00195312 -125.999h-117v-399h-172v399h-69v126h69v51c0 70 18.667 116.667 56 140s112.666 34.666 225.999 33.999v-131c-11.333 3.33301 -22 5 -32 5c-36.667 0 -58.834 -4.66699 -66.501 -14s-11.5 -31.333 -11.5 -66v-19h117z
" />
    <glyph glyph-name=".null" horiz-adv-x="0" 
 />
    <glyph glyph-name="nonmarkingreturn" horiz-adv-x="360" 
 />
    <glyph glyph-name="periodcentered" horiz-adv-x="360" 
d="M261 363v-174h-162v174h162z" />
    <glyph glyph-name="glyph231" horiz-adv-x="278" 
 />
    <glyph glyph-name="glyph232" horiz-adv-x="278" 
 />
    <glyph glyph-name="glyph275" horiz-adv-x="249" 
 />
    <glyph glyph-name="glyph276" horiz-adv-x="249" 
 />
    <glyph glyph-name="glyph261" horiz-adv-x="500" 
d="M253 522c6 19.333 9.66602 40.668 10.999 64.001c0.666992 7.33301 3.33398 11.666 8.00098 12.999c2 0 4.66699 0.333008 8 1c44.667 7.33301 67 25.333 67 54c0 23.333 -9.33301 35 -28 35c-3.33301 0 -8 -0.333008 -14 -1s-10.667 -1 -14 -1c-14 0 -21 6 -21 18
c0 18.667 10.667 28 32 28c30.667 0 56 -8.5 76 -25.5s28.667 -40.5 26 -70.5c-4 -39.333 -33 -66.333 -87 -81c-16.667 -4.66699 -27 -16 -31 -34h-33z" />
    <glyph glyph-name="glyph262" horiz-adv-x="541" 
d="M279 756l183 -109l-25 -57l-158 62l-152 -62l-27 57zM277 945l50 -111l-226 -71l-28 62z" />
    <glyph glyph-name="glyph263" horiz-adv-x="541" 
d="M279 756l183 -109l-25 -57l-158 62l-152 -62l-27 57zM233 945l204 -120l-28 -62l-226 71z" />
    <glyph glyph-name="glyph264" horiz-adv-x="541" 
d="M279 756l183 -109l-25 -57l-158 62l-152 -62l-27 57zM411 671c6 19.333 9.66602 40.668 10.999 64.001c0.666992 7.33301 3.33398 11.666 8.00098 12.999c2 0 4.66699 0.333008 8 1c44.667 7.33301 67 25.333 67 54c0 23.333 -9.33301 35 -28 35
c-3.33301 0 -8 -0.333008 -14 -1s-10.667 -1 -14 -1c-14 0 -21 6 -21 18c0 18.667 10.667 28 32 28c30.667 0 56 -8.5 76 -25.5s28.667 -40.5 26 -70.5c-4 -39.333 -33 -66.333 -87 -81c-16.667 -4.66699 -27 -16 -31 -34h-33z" />
    <glyph glyph-name="glyph265" horiz-adv-x="541" 
d="M279 756l183 -109l-25 -57l-158 62l-152 -62l-27 57zM500 921l81.999 -41c-32.667 -66 -73.667 -99 -123 -99c-29.333 0 -62.166 11.333 -98.499 34s-60.166 34 -71.499 34c-24 0 -44 -15 -60 -45l-82 44c36.667 64 80 96 130 96c26 0 57.167 -11.5 93.5 -34.5
s62.166 -34.5 77.499 -34.5c20 0 37.333 15.333 52 46z" />
    <glyph glyph-name="glyph266" horiz-adv-x="541" 
d="M105 732h94c10 -50 38 -75 84 -75c46.667 0 74.667 25 84 75h94c-5.33301 -47.333 -24.333 -85.833 -57 -115.5s-73 -44.5 -121 -44.5c-46 0 -85.833 15.167 -119.5 45.5s-53.167 68.5 -58.5 114.5zM356 945l50 -111l-226 -71l-28 62z" />
    <glyph glyph-name="glyph267" horiz-adv-x="541" 
d="M105 732h94c10 -50 38 -75 84 -75c46.667 0 74.667 25 84 75h94c-5.33301 -47.333 -24.333 -85.833 -57 -115.5s-73 -44.5 -121 -44.5c-46 0 -85.833 15.167 -119.5 45.5s-53.167 68.5 -58.5 114.5zM180 945l204 -120l-28 -62l-226 71z" />
    <glyph glyph-name="glyph268" horiz-adv-x="541" 
d="M105 732h94c10 -50 38 -75 84 -75c46.667 0 74.667 25 84 75h94c-5.33301 -47.333 -24.333 -85.833 -57 -115.5s-73 -44.5 -121 -44.5c-46 0 -85.833 15.167 -119.5 45.5s-53.167 68.5 -58.5 114.5zM306 671c6 19.333 9.66602 40.668 10.999 64.001
c0.666992 7.33301 3.33398 11.666 8.00098 12.999c2 0 4.66699 0.333008 8 1c44.667 7.33301 67 25.333 67 54c0 23.333 -9.33301 35 -28 35c-3.33301 0 -8 -0.333008 -14 -1s-10.667 -1 -14 -1c-14 0 -21 6 -21 18c0 18.667 10.667 28 32 28c30.667 0 56 -8.5 76 -25.5
s28.667 -40.5 26 -70.5c-4 -39.333 -33 -66.333 -87 -81c-16.667 -4.66699 -27 -16 -31 -34h-33z" />
    <glyph glyph-name="glyph269" horiz-adv-x="541" 
d="M105 732h94c10 -50 38 -75 84 -75c46.667 0 74.667 25 84 75h94c-5.33301 -47.333 -24.333 -85.833 -57 -115.5s-73 -44.5 -121 -44.5c-46 0 -85.833 15.167 -119.5 45.5s-53.167 68.5 -58.5 114.5zM500 921l81.999 -41c-32.667 -66 -73.667 -99 -123 -99
c-29.333 0 -62.166 11.333 -98.499 34s-60.166 34 -71.499 34c-24 0 -44 -15 -60 -45l-82 44c36.667 64 80 96 130 96c26 0 57.167 -11.5 93.5 -34.5s62.166 -34.5 77.499 -34.5c20 0 37.333 15.333 52 46z" />
    <glyph glyph-name="glyph270" horiz-adv-x="249" 
 />
  </font>
</defs>
</svg>
